  0
SECTION
  2
HEADER
  9
$ACADVER
  1
AC1009
  9
$DWGCODEPAGE
  3
ansi_1252
  9
$INSBASE
 10
0.0
 20
0.0
 30
0.0
  9
$EXTMIN
 10
400.8057079761959
 20
-1682.010117640956
 30
0.0
  9
$EXTMAX
 10
4068.801294716251
 20
1985.985469099109
 30
0.0
  9
$LIMMIN
 10
0.0
 20
0.0
  9
$LIMMAX
 10
12.0
 20
9.0
  9
$ORTHOMODE
 70
     0
  9
$REGENMODE
 70
     1
  9
$FILLMODE
 70
     1
  9
$QTEXTMODE
 70
     0
  9
$MIRRTEXT
 70
     1
  9
$DRAGMODE
 70
     2
  9
$LTSCALE
 40
12.7
  9
$OSMODE
 70
    23
  9
$ATTMODE
 70
     1
  9
$TEXTSIZE
 40
3.5
  9
$TRACEWID
 40
0.05
  9
$TEXTSTYLE
  7
ONSHAPE-STANDARD
  9
$CLAYER
  8
0
  9
$CELTYPE
  6
BYLAYER
  9
$CECOLOR
 62
   256
  9
$DIMSCALE
 40
1.0
  9
$DIMASZ
 40
2.5
  9
$DIMEXO
 40
0.625
  9
$DIMDLI
 40
3.75
  9
$DIMRND
 40
0.0
  9
$DIMDLE
 40
0.0
  9
$DIMEXE
 40
1.25
  9
$DIMTP
 40
0.0
  9
$DIMTM
 40
0.0
  9
$DIMTXT
 40
3.5
  9
$DIMCEN
 40
2.5
  9
$DIMTSZ
 40
0.0
  9
$DIMTOL
 70
     0
  9
$DIMLIM
 70
     0
  9
$DIMTIH
 70
     0
  9
$DIMTOH
 70
     0
  9
$DIMSE1
 70
     0
  9
$DIMSE2
 70
     0
  9
$DIMTAD
 70
     1
  9
$DIMZIN
 70
     8
  9
$DIMBLK
  1

  9
$DIMASO
 70
     1
  9
$DIMSHO
 70
     1
  9
$DIMPOST
  1

  9
$DIMAPOST
  1

  9
$DIMALT
 70
     1
  9
$DIMALTD
 70
     3
  9
$DIMALTF
 40
25.4
  9
$DIMLFAC
 40
1.0
  9
$DIMTOFL
 70
     1
  9
$DIMTVP
 40
0.0
  9
$DIMTIX
 70
     0
  9
$DIMSOXD
 70
     0
  9
$DIMSAH
 70
     0
  9
$DIMBLK1
  1

  9
$DIMBLK2
  1

  9
$DIMSTYLE
  2
ONSHAPE-ISO-25
  9
$DIMCLRD
 70
     7
  9
$DIMCLRE
 70
     7
  9
$DIMCLRT
 70
     7
  9
$DIMTFAC
 40
1.0
  9
$DIMGAP
 40
0.625
  9
$LUNITS
 70
     2
  9
$LUPREC
 70
     4
  9
$SKETCHINC
 40
0.1
  9
$FILLETRAD
 40
0.5
  9
$AUNITS
 70
     0
  9
$AUPREC
 70
     0
  9
$MENU
  1
.
  9
$ELEVATION
 40
0.0
  9
$PELEVATION
 40
0.0
  9
$THICKNESS
 40
0.0
  9
$LIMCHECK
 70
     0
  9
$CHAMFERA
 40
0.0
  9
$CHAMFERB
 40
0.0
  9
$SKPOLY
 70
     0
  9
$TDCREATE
 40
2460933.674695428
  9
$TDUPDATE
 40
2460933.674696007
  9
$TDINDWG
 40
0.0
  9
$TDUSRTIMER
 40
0.0
  9
$USRTIMER
 70
     1
  9
$ANGBASE
 50
0.0
  9
$ANGDIR
 70
     0
  9
$PDMODE
 70
    33
  9
$PDSIZE
 40
1.0
  9
$PLINEWID
 40
0.0
  9
$COORDS
 70
     1
  9
$SPLFRAME
 70
     0
  9
$SPLINETYPE
 70
     6
  9
$SPLINESEGS
 70
     8
  9
$ATTDIA
 70
     0
  9
$ATTREQ
 70
     1
  9
$HANDLING
 70
     1
  9
$HANDSEED
  5
5A7
  9
$SURFTAB1
 70
     6
  9
$SURFTAB2
 70
     6
  9
$SURFTYPE
 70
     6
  9
$SURFU
 70
     6
  9
$SURFV
 70
     6
  9
$UCSNAME
  2

  9
$UCSORG
 10
0.0
 20
0.0
 30
0.0
  9
$UCSXDIR
 10
1.0
 20
0.0
 30
0.0
  9
$UCSYDIR
 10
0.0
 20
1.0
 30
0.0
  9
$PUCSNAME
  2

  9
$PUCSORG
 10
0.0
 20
0.0
 30
0.0
  9
$PUCSXDIR
 10
1.0
 20
0.0
 30
0.0
  9
$PUCSYDIR
 10
0.0
 20
1.0
 30
0.0
  9
$USERI1
 70
     0
  9
$USERI2
 70
     0
  9
$USERI3
 70
     0
  9
$USERI4
 70
     0
  9
$USERI5
 70
     0
  9
$USERR1
 40
0.0
  9
$USERR2
 40
0.0
  9
$USERR3
 40
0.0
  9
$USERR4
 40
0.0
  9
$USERR5
 40
0.0
  9
$WORLDVIEW
 70
     1
  9
$SHADEDGE
 70
     3
  9
$SHADEDIF
 70
    70
  9
$TILEMODE
 70
     1
  9
$MAXACTVP
 70
    64
  9
$PLIMCHECK
 70
     0
  9
$PEXTMIN
 10
1.000000000000000E+20
 20
1.000000000000000E+20
 30
1.000000000000000E+20
  9
$PEXTMAX
 10
-1.000000000000000E+20
 20
-1.000000000000000E+20
 30
-1.000000000000000E+20
  9
$PLIMMIN
 10
0.0
 20
0.0
  9
$PLIMMAX
 10
12.0
 20
9.0
  9
$UNITMODE
 70
     0
  9
$VISRETAIN
 70
     1
  9
$PLINEGEN
 70
     0
  9
$PSLTSCALE
 70
     1
  0
ENDSEC
  0
SECTION
  2
TABLES
  0
TABLE
  2
VPORT
 70
     1
  0
VPORT
  2
*ACTIVE
 70
     0
 10
0.0
 20
0.0
 11
1.0
 21
1.0
 12
2234.803501346223
 22
151.9876757290767
 13
0.0
 23
0.0
 14
0.5
 24
0.5
 15
0.5
 25
0.5
 16
0.0
 26
0.0
 36
1.0
 17
0.0
 27
0.0
 37
0.0
 40
3741.355498474866
 41
0.9999999999999973
 42
50.0
 43
0.0
 44
0.0
 50
0.0
 51
0.0
 71
     0
 72
   100
 73
     1
 74
     3
 75
     0
 76
     0
 77
     0
 78
     0
  0
ENDTAB
  0
TABLE
  2
LTYPE
 70
     1
  0
LTYPE
  2
CONTINUOUS
 70
     0
  3
Solid line
 72
    65
 73
     0
 40
0.0
  0
ENDTAB
  0
TABLE
  2
LAYER
 70
     3
  0
LAYER
  2
0
 70
     0
 62
     7
  6
CONTINUOUS
  0
LAYER
  2
VISIBLE
 70
     0
 62
     7
  6
CONTINUOUS
  0
ENDTAB
  0
TABLE
  2
STYLE
 70
    46
  0
STYLE
  2
STANDARD
 70
     0
 40
0.0
 41
1.0
 50
0.0
 71
     0
 42
3.5
  3
txt
  4

  0
STYLE
  2
ONSHAPE-STANDARD
 70
     0
 40
0.0
 41
1.0
 50
0.0
 71
     0
 42
3.5
  3
NotoSans-Regular.ttf
  4

  0
STYLE
  2
ONSHAPE-STANDARD-DIMENSION
 70
     0
 40
0.0
 41
1.0
 50
0.0
 71
     0
 42
3.5
  3

  4

  0
STYLE
  2
ONSHAPE-STANDARD-BOLD
 70
     0
 40
0.0
 41
1.0
 50
0.0
 71
     0
 42
3.5
  3
NotoSans-Bold.ttf
  4

  0
STYLE
  2
ONSHAPE-STANDARD-FIELDS
 70
     0
 40
0.0
 41
1.0
 50
0.0
 71
     0
 42
3.5
  3

  4

  0
STYLE
  2
ONSHAPE-STANDARD-TCFIELDS
 70
     0
 40
0.0
 41
1.0
 50
0.0
 71
     0
 42
3.5
  3
NotoSansTC-Regular.otf
  4

  0
STYLE
  2
ONSHAPE-STANDARD-SCFIELDS
 70
     0
 40
0.0
 41
1.0
 50
0.0
 71
     0
 42
3.5
  3
NotoSansSC-Regular.otf
  4

  0
STYLE
  2
ONSHAPE-STANDARD-KOREANFIE
 70
     0
 40
0.0
 41
1.0
 50
0.0
 71
     0
 42
3.5
  3
NotoSansKR-Regular.otf
  4

  0
STYLE
  2
ONSHAPE-STANDARD-JAPANESEF
 70
     0
 40
0.0
 41
1.0
 50
0.0
 71
     0
 42
3.5
  3
NotoSansJP-Regular.otf
  4

  0
STYLE
  2
TTFSTYLE
 70
     0
 40
0.0
 41
1.0
 50
0.0
 71
     0
 42
3.5
  3

  4

  0
STYLE
  2
ONSHAPE-STANDARD-GTOLERANC
 70
     0
 40
0.0
 41
1.0
 50
0.0
 71
     0
 42
3.5
  3

  4

  0
STYLE
  2
ONSHAPE-STANDARD-TABLE-DAT
 70
     0
 40
0.0
 41
1.0
 50
0.0
 71
     0
 42
3.5
  3
NotoSans-Regular.ttf
  4

  0
STYLE
  2
ONSHAPE-STANDARD-TABLE-TIT
 70
     0
 40
0.0
 41
1.0
 50
0.0
 71
     0
 42
3.5
  3
NotoSans-Bold.ttf
  4

  0
STYLE
  2
ONSHAPE-STANDARD-TABLE-HEA
 70
     0
 40
0.0
 41
1.0
 50
0.0
 71
     0
 42
3.5
  3
NotoSans-Bold.ttf
  4

  0
STYLE
  2
ONSHAPE-STANDARD-BOMTABLE-
 70
     0
 40
0.0
 41
1.0
 50
0.0
 71
     0
 42
3.5
  3
NotoSans-Regular.ttf
  4

  0
STYLE
  2
ONSHAPE-STANDARD-BOMTABLE0
 70
     0
 40
0.0
 41
1.0
 50
0.0
 71
     0
 42
3.5
  3
NotoSans-Bold.ttf
  4

  0
STYLE
  2
ONSHAPE-STANDARD-BOMTABLE1
 70
     0
 40
0.0
 41
1.0
 50
0.0
 71
     0
 42
3.5
  3
NotoSans-Bold.ttf
  4

  0
STYLE
  2
ONSHAPE-STANDARD-NOTESTYLE
 70
     0
 40
3.5
 41
1.0
 50
0.0
 71
     0
 42
3.5
  3
Noto Sans
  4

  0
STYLE
  2
ONSHAPE-STANDARD-DATUM-DIM
 70
     0
 40
3.5
 41
1.0
 50
0.0
 71
     0
 42
3.5
  3
Noto Sans
  4

  0
STYLE
  2
ONSHAPE-STANDARD-VIEW-LABE
 70
     0
 40
3.5
 41
1.0
 50
0.0
 71
     0
 42
3.5
  3
NotoSans-Regular.ttf
  4

  0
STYLE
  2
ONSHAPE-DETAIL-VIEW-LEADER
 70
     0
 40
3.5
 41
1.0
 50
0.0
 71
     0
 42
3.5
  3
Noto Sans
  4

  0
STYLE
  2
ONSHAPE-STANDARD-HOLE-CALL
 70
     0
 40
3.5
 41
1.0
 50
0.0
 71
     0
 42
3.5
  3
Noto Sans
  4

  0
STYLE
  2
ONSHAPE-STANDARD-HOLETABLE
 70
     0
 40
0.0
 41
1.0
 50
0.0
 71
     0
 42
3.5
  3
NotoSans-Regular.ttf
  4

  0
STYLE
  2
ONSHAPE-STANDARD-HOLETABL0
 70
     0
 40
0.0
 41
1.0
 50
0.0
 71
     0
 42
3.5
  3
NotoSans-Bold.ttf
  4

  0
STYLE
  2
ONSHAPE-STANDARD-HOLETABL1
 70
     0
 40
0.0
 41
1.0
 50
0.0
 71
     0
 42
3.5
  3
NotoSans-Bold.ttf
  4

  0
STYLE
  2
ONSHAPE-STANDARD-HOLE-TAG
 70
     0
 40
3.5
 41
1.0
 50
0.0
 71
     0
 42
3.5
  3
Noto Sans
  4

  0
STYLE
  2
ONSHAPE-STANDARD-REVISIONT
 70
     0
 40
0.0
 41
1.0
 50
0.0
 71
     0
 42
3.5
  3
NotoSans-Regular.ttf
  4

  0
STYLE
  2
ONSHAPE-STANDARD-REVISION0
 70
     0
 40
0.0
 41
1.0
 50
0.0
 71
     0
 42
3.5
  3
NotoSans-Bold.ttf
  4

  0
STYLE
  2
ONSHAPE-STANDARD-REVISION1
 70
     0
 40
0.0
 41
1.0
 50
0.0
 71
     0
 42
3.5
  3
NotoSans-Bold.ttf
  4

  0
STYLE
  2
ONSHAPE-STANDARD-REVISION-
 70
     0
 40
3.5
 41
1.0
 50
0.0
 71
     0
 42
3.5
  3
Noto Sans
  4

  0
STYLE
  2
ONSHAPE-STANDARD-CUTLISTTA
 70
     0
 40
0.0
 41
1.0
 50
0.0
 71
     0
 42
3.5
  3
NotoSans-Regular.ttf
  4

  0
STYLE
  2
ONSHAPE-STANDARD-CUTLISTT0
 70
     0
 40
0.0
 41
1.0
 50
0.0
 71
     0
 42
3.5
  3
NotoSans-Bold.ttf
  4

  0
STYLE
  2
ONSHAPE-STANDARD-CUTLISTT1
 70
     0
 40
0.0
 41
1.0
 50
0.0
 71
     0
 42
3.5
  3
NotoSans-Bold.ttf
  4

  0
STYLE
  2
ONSHAPE-STANDARD-CUSTOMTAB
 70
     0
 40
0.0
 41
1.0
 50
0.0
 71
     0
 42
3.5
  3
NotoSans-Regular.ttf
  4

  0
STYLE
  2
ONSHAPE-STANDARD-CUSTOMTA0
 70
     0
 40
0.0
 41
1.0
 50
0.0
 71
     0
 42
3.5
  3
NotoSans-Bold.ttf
  4

  0
STYLE
  2
ONSHAPE-STANDARD-CUSTOMTA1
 70
     0
 40
0.0
 41
1.0
 50
0.0
 71
     0
 42
3.5
  3
NotoSans-Bold.ttf
  4

  0
STYLE
  2
ONSHAPE-CUSTOM-STYLE-NOTE_
 70
     0
 40
0.0
 41
1.0
 50
0.0
 71
     0
 42
3.5
  3
NotoSans-Regular.ttf
  4

  0
STYLE
  2
ONSHAPE-CUSTOM-STYLE-NOTE0
 70
     0
 40
0.0
 41
1.0
 50
0.0
 71
     0
 42
3.5
  3

  4

  0
STYLE
  2
ONSHAPE-CUSTOM-STYLE-NOTE1
 70
     0
 40
0.0
 41
1.0
 50
0.0
 71
     0
 42
3.5
  3
NotoSans-Regular.ttf
  4

  0
STYLE
  2
ONSHAPE-CUSTOM-STYLE-NOTE2
 70
     0
 40
0.0
 41
1.0
 50
0.0
 71
     0
 42
3.5
  3

  4

  0
STYLE
  2
ONSHAPE-CUSTOM-STYLE-NOTE3
 70
     0
 40
0.0
 41
1.0
 50
0.0
 71
     0
 42
3.5
  3

  4

  0
STYLE
  2
ONSHAPE-CUSTOM-STYLE-NOTE4
 70
     0
 40
0.0
 41
1.0
 50
0.0
 71
     0
 42
3.5
  3
NotoSans-Regular.ttf
  4

  0
STYLE
  2
ONSHAPE-CUSTOM-STYLE-NOTE5
 70
     0
 40
0.0
 41
1.0
 50
0.0
 71
     0
 42
3.5
  3

  4

  0
STYLE
  2
ONSHAPE-CUSTOM-STYLE-NOTE6
 70
     0
 40
0.0
 41
1.0
 50
0.0
 71
     0
 42
3.5
  3
NotoSans-Regular.ttf
  4

  0
STYLE
  2
ONSHAPE-CUSTOM-STYLE-NOTE7
 70
     0
 40
0.0
 41
1.0
 50
0.0
 71
     0
 42
3.5
  3

  4

  0
STYLE
  2
ONSHAPE-CUSTOM-STYLE-NOTE8
 70
     0
 40
0.0
 41
1.0
 50
0.0
 71
     0
 42
3.5
  3
NotoSans-Regular.ttf
  4

  0
ENDTAB
  0
TABLE
  2
VIEW
 70
     0
  0
ENDTAB
  0
TABLE
  2
UCS
 70
     0
  0
ENDTAB
  0
TABLE
  2
APPID
 70
     1
  0
APPID
  2
ACAD
 70
     0
  0
ENDTAB
  0
TABLE
  2
DIMSTYLE
 70
    23
  0
DIMSTYLE
  2
STANDARD
 70
     0
  3

  4

  5

  6

  7

 40
1.0
 41
0.18
 42
0.0625
 43
0.38
 44
0.18
 45
0.0
 46
0.0
 47
0.0
 48
0.0
140
0.18
141
0.09
142
0.0
143
25.4
144
1.0
145
0.0
146
1.0
147
0.09
 71
     0
 72
     0
 73
     1
 74
     1
 75
     0
 76
     0
 77
     0
 78
     0
170
     0
171
     2
172
     0
173
     0
174
     0
175
     0
176
     0
177
     0
178
     0
  0
DIMSTYLE
  2
ONSHAPE-ISO-25
 70
     0
  3

  4

  5

  6

  7

 40
1.0
 41
2.5
 42
0.625
 43
3.75
 44
1.25
 45
0.0
 46
0.0
 47
0.0
 48
0.0
140
3.5
141
2.5
142
0.0
143
25.4
144
1.0
145
0.0
146
1.0
147
0.625
 71
     0
 72
     0
 73
     0
 74
     0
 75
     0
 76
     0
 77
     1
 78
     8
170
     0
171
     3
172
     1
173
     0
174
     0
175
     0
176
     7
177
     7
178
     7
  0
DIMSTYLE
  2
ISO-25
 70
     0
  3

  4

  5

  6

  7

 40
1.0
 41
2.5
 42
0.625
 43
3.75
 44
1.25
 45
0.0
 46
0.0
 47
0.0
 48
0.0
140
2.5
141
2.5
142
0.0
143
25.4
144
1.0
145
0.0
146
1.0
147
0.625
 71
     0
 72
     0
 73
     0
 74
     0
 75
     0
 76
     0
 77
     1
 78
     8
170
     0
171
     3
172
     1
173
     0
174
     0
175
     0
176
     7
177
     7
178
     7
  0
DIMSTYLE
  2
ISO
 70
     0
  3

  4
"
  5

  6

  7

 40
1.0
 41
3.5
 42
1.0
 43
10.0
 44
1.0
 45
0.0
 46
0.0
 47
0.1
 48
0.1
140
3.5
141
0.0
142
0.0
143
25.4
144
1.0
145
0.0
146
0.71
147
1.5
 71
     0
 72
     0
 73
     0
 74
     0
 75
     0
 76
     0
 77
     1
 78
     8
170
     0
171
     3
172
     1
173
     0
174
     0
175
     0
176
     7
177
     7
178
     7
  0
DIMSTYLE
  2
ISO$3
 70
     0
  3

  4
"
  5

  6

  7

 40
1.0
 41
3.5
 42
1.0
 43
10.0
 44
1.0
 45
0.0
 46
0.0
 47
0.1
 48
0.1
140
3.5
141
0.0
142
0.0
143
25.4
144
1.0
145
0.0
146
0.71
147
1.5
 71
     0
 72
     0
 73
     0
 74
     1
 75
     0
 76
     0
 77
     1
 78
     8
170
     0
171
     3
172
     0
173
     0
174
     0
175
     0
176
     7
177
     7
178
     7
  0
DIMSTYLE
  2
ISO$4
 70
     0
  3

  4
"
  5

  6

  7

 40
1.0
 41
3.5
 42
1.0
 43
10.0
 44
1.0
 45
0.0
 46
0.0
 47
0.1
 48
0.1
140
3.5
141
0.0
142
0.0
143
25.4
144
1.0
145
0.0
146
0.71
147
1.5
 71
     0
 72
     0
 73
     0
 74
     0
 75
     0
 76
     0
 77
     1
 78
     8
170
     0
171
     3
172
     1
173
     0
174
     0
175
     0
176
     7
177
     7
178
     7
  0
DIMSTYLE
  2
ISO$6
 70
     0
  3

  4
"
  5

  6

  7

 40
1.0
 41
0.5
 42
1.0
 43
10.0
 44
1.0
 45
0.0
 46
0.0
 47
0.1
 48
0.1
140
3.5
141
0.0
142
0.0
143
25.4
144
1.0
145
0.0
146
0.71
147
1.5
 71
     0
 72
     0
 73
     0
 74
     0
 75
     0
 76
     0
 77
     0
 78
     8
170
     0
171
     3
172
     1
173
     0
174
     0
175
     0
176
     7
177
     7
178
     7
  0
DIMSTYLE
  2
ISO$7
 70
     0
  3

  4
"
  5

  6

  7

 40
1.0
 41
3.5
 42
1.0
 43
10.0
 44
1.0
 45
0.0
 46
0.0
 47
0.1
 48
0.1
140
3.5
141
0.0
142
0.0
143
25.4
144
1.0
145
0.0
146
0.71
147
1.5
 71
     0
 72
     0
 73
     0
 74
     0
 75
     0
 76
     0
 77
     1
 78
     8
170
     0
171
     3
172
     1
173
     0
174
     0
175
     0
176
     7
177
     7
178
     7
  0
DIMSTYLE
  2
ISO$SF
 70
     0
  3

  4
"
  5

  6

  7

 40
1.0
 41
3.5
 42
1.0
 43
10.0
 44
1.0
 45
0.0
 46
0.0
 47
0.1
 48
0.1
140
3.5
141
0.0
142
0.0
143
25.4
144
1.0
145
0.0
146
0.71
147
1.5
 71
     0
 72
     0
 73
     0
 74
     0
 75
     1
 76
     1
 77
     1
 78
     8
170
     0
171
     3
172
     1
173
     0
174
     0
175
     0
176
     7
177
     7
178
     7
  0
DIMSTYLE
  2
ISO$SH
 70
     0
  3

  4
"
  5

  6

  7

 40
1.0
 41
3.5
 42
1.0
 43
10.0
 44
1.0
 45
0.0
 46
0.0
 47
0.1
 48
0.1
140
3.5
141
0.0
142
0.0
143
25.4
144
2.0
145
0.0
146
0.71
147
1.5
 71
     0
 72
     0
 73
     0
 74
     0
 75
     1
 76
     1
 77
     1
 78
     8
170
     0
171
     3
172
     1
173
     1
174
     0
175
     0
176
     7
177
     7
178
     7
  0
DIMSTYLE
  2
ONSHAPE-ISO-25$0
 70
     0
  3

  4

  5

  6

  7

 40
1.0
 41
2.5
 42
0.625
 43
3.75
 44
1.25
 45
0.0
 46
0.0
 47
0.0
 48
0.0
140
3.5
141
2.5
142
0.0
143
25.4
144
1.0
145
0.0
146
1.0
147
0.625
 71
     0
 72
     0
 73
     0
 74
     0
 75
     0
 76
     0
 77
     1
 78
     8
170
     0
171
     3
172
     1
173
     0
174
     0
175
     0
176
     7
177
     7
178
     7
  0
DIMSTYLE
  2
ONSHAPE-ISO-25$2
 70
     0
  3

  4

  5

  6

  7

 40
1.0
 41
2.5
 42
0.625
 43
3.75
 44
1.25
 45
0.0
 46
0.0
 47
0.0
 48
0.0
140
3.5
141
2.5
142
0.0
143
25.4
144
1.0
145
0.0
146
1.0
147
0.625
 71
     0
 72
     0
 73
     0
 74
     0
 75
     0
 76
     0
 77
     1
 78
     8
170
     0
171
     3
172
     1
173
     0
174
     0
175
     0
176
     7
177
     7
178
     7
  0
DIMSTYLE
  2
ONSHAPE-ISO-25$3
 70
     0
  3

  4

  5

  6

  7

 40
1.0
 41
2.5
 42
0.625
 43
3.75
 44
1.25
 45
0.0
 46
0.0
 47
0.0
 48
0.0
140
3.5
141
0.0
142
0.0
143
25.4
144
1.0
145
0.0
146
1.0
147
0.625
 71
     0
 72
     0
 73
     0
 74
     0
 75
     0
 76
     0
 77
     1
 78
     8
170
     0
171
     3
172
     1
173
     0
174
     0
175
     0
176
     7
177
     7
178
     7
  0
DIMSTYLE
  2
ONSHAPE-ISO-25$4
 70
     0
  3

  4

  5

  6

  7

 40
1.0
 41
2.5
 42
0.625
 43
3.75
 44
1.25
 45
0.0
 46
0.0
 47
0.0
 48
0.0
140
3.5
141
0.0
142
0.0
143
25.4
144
1.0
145
0.0
146
1.0
147
0.625
 71
     0
 72
     0
 73
     0
 74
     0
 75
     0
 76
     0
 77
     1
 78
     8
170
     0
171
     3
172
     1
173
     0
174
     0
175
     0
176
     7
177
     7
178
     7
  0
DIMSTYLE
  2
ONSHAPE-ISO-25$6
 70
     0
  3

  4

  5

  6

  7

 40
1.0
 41
0.5
 42
0.625
 43
3.75
 44
1.25
 45
0.0
 46
0.0
 47
0.0
 48
0.0
140
3.5
141
2.5
142
0.0
143
25.4
144
1.0
145
0.0
146
1.0
147
0.625
 71
     0
 72
     0
 73
     0
 74
     0
 75
     0
 76
     0
 77
     1
 78
     8
170
     0
171
     3
172
     1
173
     0
174
     0
175
     0
176
     7
177
     7
178
     7
  0
DIMSTYLE
  2
ONSHAPE-ISO-25$7
 70
     0
  3

  4

  5

  6

  7

 40
1.0
 41
2.5
 42
0.625
 43
3.75
 44
1.25
 45
0.0
 46
0.0
 47
0.0
 48
0.0
140
3.5
141
2.5
142
0.0
143
25.4
144
1.0
145
0.0
146
1.0
147
0.625
 71
     0
 72
     0
 73
     0
 74
     0
 75
     0
 76
     0
 77
     1
 78
     8
170
     0
171
     3
172
     1
173
     0
174
     0
175
     0
176
     7
177
     7
178
     7
  0
DIMSTYLE
  2
ONSHAPE-STANDARD-GTOLERANC
 70
     0
  3

  4

  5

  6

  7

 40
1.0
 41
2.5
 42
0.625
 43
3.75
 44
1.25
 45
0.0
 46
0.0
 47
0.0
 48
0.0
140
3.5
141
2.5
142
0.0
143
0.03937
144
1.0
145
0.0
146
1.0
147
0.625
 71
     0
 72
     0
 73
     0
 74
     0
 75
     0
 76
     0
 77
     1
 78
     8
170
     0
171
     3
172
     1
173
     0
174
     0
175
     0
176
     7
177
     7
178
     7
  0
DIMSTYLE
  2
ONSHAPE-ORDINATESTYLE
 70
     0
  3

  4

  5

  6

  7

 40
1.0
 41
2.5
 42
0.625
 43
3.75
 44
1.25
 45
0.0
 46
0.0
 47
0.0
 48
0.0
140
3.5
141
2.5
142
0.0
143
25.4
144
1.0
145
0.0
146
1.0
147
0.625
 71
     0
 72
     0
 73
     0
 74
     0
 75
     0
 76
     0
 77
     1
 78
     8
170
     0
171
     3
172
     1
173
     0
174
     0
175
     0
176
     7
177
     7
178
     7
  0
DIMSTYLE
  2
ONSHAPE-CHAMFERDIMSTYLE
 70
     0
  3

  4

  5

  6

  7

 40
1.0
 41
2.5
 42
0.625
 43
3.75
 44
1.25
 45
0.0
 46
0.0
 47
0.0
 48
0.0
140
3.5
141
2.5
142
0.0
143
25.4
144
1.0
145
0.0
146
1.0
147
0.625
 71
     0
 72
     0
 73
     0
 74
     0
 75
     0
 76
     0
 77
     1
 78
     8
170
     0
171
     3
172
     1
173
     0
174
     0
175
     0
176
     7
177
     7
178
     7
  0
DIMSTYLE
  2
ONSHAPE-SKETCHDRIVENDIMSTY
 70
     0
  3

  4

  5

  6

  7

 40
1.0
 41
2.5
 42
0.625
 43
3.75
 44
1.25
 45
0.0
 46
0.0
 47
0.0
 48
0.0
140
3.5
141
2.5
142
0.0
143
25.4
144
1.0
145
0.0
146
1.0
147
0.625
 71
     0
 72
     0
 73
     0
 74
     0
 75
     0
 76
     0
 77
     1
 78
     8
170
     0
171
     3
172
     1
173
     0
174
     0
175
     0
176
   251
177
   251
178
   251
  0
DIMSTYLE
  2
ONSHAPE-SKETCHDRIVENDIMST0
 70
     0
  3

  4

  5

  6

  7

 40
1.0
 41
2.5
 42
0.625
 43
3.75
 44
1.25
 45
0.0
 46
0.0
 47
0.0
 48
0.0
140
3.5
141
2.5
142
0.0
143
25.4
144
1.0
145
0.0
146
1.0
147
0.625
 71
     0
 72
     0
 73
     0
 74
     0
 75
     0
 76
     0
 77
     1
 78
     8
170
     0
171
     3
172
     1
173
     0
174
     0
175
     0
176
   251
177
   251
178
   251
  0
DIMSTYLE
  2
ONSHAPE-SKETCHDRIVENDIMST1
 70
     0
  3

  4

  5

  6

  7

 40
1.0
 41
2.5
 42
0.625
 43
3.75
 44
1.25
 45
0.0
 46
0.0
 47
0.0
 48
0.0
140
3.5
141
0.0
142
0.0
143
25.4
144
1.0
145
0.0
146
1.0
147
0.625
 71
     0
 72
     0
 73
     0
 74
     0
 75
     0
 76
     0
 77
     1
 78
     8
170
     0
171
     3
172
     1
173
     0
174
     0
175
     0
176
   251
177
   251
178
   251
  0
DIMSTYLE
  2
ONSHAPE-SKETCHDRIVENDIMST2
 70
     0
  3

  4

  5

  6

  7

 40
1.0
 41
2.5
 42
0.625
 43
3.75
 44
1.25
 45
0.0
 46
0.0
 47
0.0
 48
0.0
140
3.5
141
0.0
142
0.0
143
25.4
144
1.0
145
0.0
146
1.0
147
0.625
 71
     0
 72
     0
 73
     0
 74
     0
 75
     0
 76
     0
 77
     1
 78
     8
170
     0
171
     3
172
     1
173
     0
174
     0
175
     0
176
   251
177
   251
178
   251
  0
ENDTAB
  0
ENDSEC
  0
SECTION
  2
BLOCKS
  0
BLOCK
  8
0
  2
$MODEL_SPACE
 70
     0
 10
0.0
 20
0.0
 30
0.0
  3
$MODEL_SPACE
  1

  0
ENDBLK
  5
21
  8
0
  0
BLOCK
 67
     1
  8
0
  2
$PAPER_SPACE
 70
     0
 10
0.0
 20
0.0
 30
0.0
  3
$PAPER_SPACE
  1

  0
ENDBLK
  5
1D
 67
     1
  8
0
  0
ENDSEC
  0
SECTION
  2
ENTITIES
  0
LINE
  5
A9
  8
VISIBLE
 10
449.6245079762498
 20
-1679.028917640956
 30
0.0
 11
449.6245079762507
 21
-1634.191317640956
 31
0.0
  0
LINE
  5
AA
  8
VISIBLE
 10
451.6057079762504
 20
-1680.010117640956
 30
0.0
 11
451.6057079762506
 21
-1638.671317640956
 31
0.0
  0
LINE
  5
AB
  8
VISIBLE
 10
402.7869079762506
 20
-1634.191317640955
 30
0.0
 11
402.7869079762497
 21
-1679.028917640955
 31
0.0
  0
LINE
  5
AC
  8
VISIBLE
 10
402.805707976248
 20
-1682.010117640955
 30
0.0
 11
449.6057079762479
 21
-1682.010117640955
 31
0.0
  0
LINE
  5
AD
  8
VISIBLE
 10
400.8057079762507
 20
-1633.210117640954
 30
0.0
 11
400.8057079762498
 21
-1680.010117640954
 31
0.0
  0
LINE
  5
AE
  8
VISIBLE
 10
449.1245079762507
 20
-1631.210117640955
 30
0.0
 11
447.1257079762509
 21
-1631.210117640956
 31
0.0
  0
LINE
  5
AF
  8
VISIBLE
 10
444.1445079762507
 20
-1631.210117640955
 30
0.0
 11
402.8057079762507
 21
-1631.210117640955
 31
0.0
  0
LINE
  5
B0
  8
VISIBLE
 10
451.6057079762509
 20
-1630.710117640956
 30
0.0
 11
451.6057079762506
 21
-1625.360117640956
 31
0.0
  0
LINE
  5
B1
  8
VISIBLE
 10
457.4557079762508
 20
-1631.210117640953
 30
0.0
 11
452.1057079762506
 21
-1631.210117640955
 31
0.0
  0
LINE
  5
B2
  8
VISIBLE
 10
449.6245079762507
 20
-1630.710117640956
 30
0.0
 11
449.6245079762507
 21
-1626.802952043823
 31
0.0
  0
LINE
  5
B3
  8
VISIBLE
 10
403.7869079762497
 20
-1680.028917640955
 30
0.0
 11
448.6245079762496
 21
-1680.028917640956
 31
0.0
  0
LINE
  5
B4
  8
VISIBLE
 10
457.7424961944262
 20
-1637.290825144084
 30
0.0
 11
456.2996617915592
 21
-1636.28054161881
 31
0.0
  0
LINE
  5
B5
  8
VISIBLE
 10
452.1057079762506
 20
-1636.190117640956
 30
0.0
 11
456.0128735733836
 21
-1636.190117640955
 31
0.0
  0
LINE
  5
B6
  8
VISIBLE
 10
451.6057079762509
 20
-1635.690117640956
 30
0.0
 11
451.6057079762506
 21
-1633.691317640956
 31
0.0
  0
LINE
  5
B7
  8
VISIBLE
 10
456.2996617915589
 20
-1633.100893663099
 30
0.0
 11
457.7424961944262
 21
-1632.090610137822
 31
0.0
  0
LINE
  5
B8
  8
VISIBLE
 10
444.6445079762507
 20
-1630.710117640956
 30
0.0
 11
444.6445079762507
 21
-1625.360117640956
 31
0.0
  0
LINE
  5
B9
  8
VISIBLE
 10
446.6257079762506
 20
-1630.710117640956
 30
0.0
 11
446.6257079762506
 21
-1626.802952043823
 31
0.0
  0
LINE
  5
BA
  8
VISIBLE
 10
452.1057079762506
 20
-1638.171317640956
 30
0.0
 11
457.4557079762508
 21
-1638.171317640955
 31
0.0
  0
LINE
  5
BB
  8
VISIBLE
 10
456.0128735733836
 20
-1633.191317640956
 30
0.0
 11
452.1057079762506
 21
-1633.191317640956
 31
0.0
  0
LINE
  5
BC
  8
VISIBLE
 10
450.7252154793819
 20
-1625.07332942278
 30
0.0
 11
449.7149319541061
 21
-1626.516163825647
 31
0.0
  0
LINE
  5
BD
  8
VISIBLE
 10
448.6245079762507
 20
-1633.191317640956
 30
0.0
 11
403.7869079762506
 21
-1633.191317640955
 31
0.0
  0
LINE
  5
BE
  8
VISIBLE
 10
445.5250004731188
 20
-1625.07332942278
 30
0.0
 11
446.5352839983952
 21
-1626.516163825647
 31
0.0
  0
ARC
  5
BF
  8
VISIBLE
 10
452.1057079762506
 20
-1638.671317640956
 30
0.0
 40
0.5
 50
90.0
 51
180.0
  0
ARC
  5
C0
  8
VISIBLE
 10
403.7869079762497
 20
-1679.028917640955
 30
0.0
 40
1.0
 50
180.0
 51
270.0
  0
ARC
  5
C1
  8
VISIBLE
 10
448.6245079762496
 20
-1679.028917640956
 30
0.0
 40
1.0
 50
270.0
 51
0.0
  0
ARC
  5
C2
  8
VISIBLE
 10
450.1245079762507
 20
-1626.802952043823
 30
0.0
 40
0.5
 50
145.0000000000208
 51
180.0
  0
ARC
  5
C3
  8
VISIBLE
 10
451.1347915015265
 20
-1625.360117640956
 30
0.0
 40
0.5
 50
91.66659825711541
 51
145.0000000000208
  0
ARC
  5
C4
  8
VISIBLE
 10
402.8057079762507
 20
-1633.210117640955
 30
0.0
 40
2.0
 50
90.0
 51
180.0
  0
ARC
  5
C5
  8
VISIBLE
 10
449.1245079762507
 20
-1630.710117640956
 30
0.0
 40
0.5
 50
270.0
 51
0.0
  0
ARC
  5
C6
  8
VISIBLE
 10
402.8057079762498
 20
-1680.010117640955
 30
0.0
 40
2.0
 50
180.0
 51
269.9999999999479
  0
ARC
  5
C7
  8
VISIBLE
 10
449.6057079762497
 20
-1680.010117640956
 30
0.0
 40
2.0
 50
269.9999999999479
 51
0.0
  0
ARC
  5
C8
  8
VISIBLE
 10
452.1057079762506
 20
-1630.710117640956
 30
0.0
 40
0.5
 50
180.0
 51
270.0
  0
ARC
  5
C9
  8
VISIBLE
 10
457.4557079762508
 20
-1637.671317640953
 30
0.0
 40
0.5
 50
270.0
 51
358.3334017425981
  0
ARC
  5
CA
  8
VISIBLE
 10
452.1057079762506
 20
-1635.690117640956
 30
0.0
 40
0.5
 50
180.0
 51
270.0
  0
ARC
  5
CB
  8
VISIBLE
 10
444.1445079762507
 20
-1630.710117640955
 30
0.0
 40
0.5
 50
270.0
 51
359.9999999999479
  0
ARC
  5
CC
  8
VISIBLE
 10
452.1057079762506
 20
-1633.691317640956
 30
0.0
 40
0.5
 50
90.0
 51
180.0
  0
ARC
  5
CD
  8
VISIBLE
 10
445.1445079762507
 20
-1625.360117640956
 30
0.0
 40
0.5
 50
91.66659825711541
 51
180.0
  0
ARC
  5
CE
  8
VISIBLE
 10
456.0128735733836
 20
-1636.690117640954
 30
0.0
 40
0.5
 50
54.9999999999845
 51
90.0
  0
ARC
  5
CF
  8
VISIBLE
 10
457.4557079762508
 20
-1637.700401166229
 30
0.0
 40
0.5
 50
1.666598256776839
 51
55.00000000002079
  0
ARC
  5
D0
  8
VISIBLE
 10
403.7869079762506
 20
-1634.191317640955
 30
0.0
 40
1.0
 50
90.0
 51
180.0
  0
ARC
  5
D1
  8
VISIBLE
 10
448.6245079762507
 20
-1634.191317640956
 30
0.0
 40
1.0
 50
359.999999999974
 51
90.0
  0
ARC
  5
D2
  8
VISIBLE
 10
457.4557079762508
 20
-1631.681034115677
 30
0.0
 40
0.5
 50
304.9999999999792
 51
358.3334017426242
  0
ARC
  5
D3
  8
VISIBLE
 10
446.1257079762506
 20
-1626.802952043823
 30
0.0
 40
0.5
 50
359.999999999974
 51
34.99999999997922
  0
ARC
  5
D4
  8
VISIBLE
 10
445.1154244509746
 20
-1625.360117640956
 30
0.0
 40
0.5
 50
35.00000000003685
 51
88.33340174291062
  0
ARC
  5
D5
  8
VISIBLE
 10
456.0128735733836
 20
-1632.691317640954
 30
0.0
 40
0.5
 50
270.0
 51
304.9999999999792
  0
ARC
  5
D6
  8
VISIBLE
 10
447.1257079762509
 20
-1630.710117640956
 30
0.0
 40
0.5
 50
180.0
 51
270.0
  0
ARC
  5
D7
  8
VISIBLE
 10
451.1057079762506
 20
-1625.360117640956
 30
0.0
 40
0.5
 50
0.0000000000260551
 51
88.33340174293667
  0
ARC
  5
D8
  8
VISIBLE
 10
457.4557079762508
 20
-1631.710117640953
 30
0.0
 40
0.5
 50
1.666598256828927
 51
90.0
  0
LINE
  5
D9
  8
VISIBLE
 10
2803.128501346249
 20
-1633.191317640936
 30
0.0
 11
1666.478501346249
 21
-1633.191317640936
 31
0.0
  0
LINE
  5
DA
  8
VISIBLE
 10
1666.478501346249
 20
-1633.191317640936
 30
0.0
 11
1666.478501346249
 21
-1635.691317640936
 31
0.0
  0
LINE
  5
DB
  8
VISIBLE
 10
2803.128501346249
 20
-1635.691317640936
 30
0.0
 11
1666.478501346249
 21
-1635.691317640936
 31
0.0
  0
LINE
  5
DC
  8
VISIBLE
 10
2803.128501346249
 20
-1635.691317640936
 30
0.0
 11
2803.128501346249
 21
-1633.191317640936
 31
0.0
  0
LINE
  5
DD
  8
VISIBLE
 10
1058.110952340454
 20
1838.589882348497
 30
0.0
 11
1055.579723418057
 21
1838.589882348497
 31
0.0
  0
LINE
  5
DE
  8
VISIBLE
 10
1057.824549220589
 20
1838.872725060972
 30
0.0
 11
1060.561923865424
 21
1838.872725060971
 31
0.0
  0
LINE
  5
DF
  8
VISIBLE
 10
1052.786975294168
 20
1838.589882348497
 30
0.0
 11
1039.228406270353
 21
1838.589882348497
 31
0.0
  0
LINE
  5
E0
  8
VISIBLE
 10
1035.156110636298
 20
1838.589882348497
 30
0.0
 11
1024.873777146652
 21
1838.589882348497
 31
0.0
  0
LINE
  5
E1
  8
VISIBLE
 10
1039.395476092002
 20
1838.872725060972
 30
0.0
 11
1039.228406270353
 21
1838.589882348497
 31
0.0
  0
LINE
  5
E2
  8
VISIBLE
 10
1034.99139454379
 20
1838.872725060972
 30
0.0
 11
1039.395476092002
 21
1838.872725060972
 31
0.0
  0
LINE
  5
E3
  8
VISIBLE
 10
1058.110952340454
 20
1838.589882348497
 30
0.0
 11
1057.824549220589
 21
1838.872725060972
 31
0.0
  0
LINE
  5
E4
  8
VISIBLE
 10
1024.873777146651
 20
1901.781055849701
 30
0.0
 11
1069.162834385803
 21
1901.781055849701
 31
0.0
  0
LINE
  5
E5
  8
VISIBLE
 10
1078.613892516829
 20
1892.329997718675
 30
0.0
 11
1078.613892516829
 21
1848.040940479523
 31
0.0
  0
LINE
  5
E6
  8
VISIBLE
 10
1060.561923865424
 20
1838.872725060971
 30
0.0
 11
1060.858622764644
 21
1838.589882348497
 31
0.0
  0
LINE
  5
E7
  8
VISIBLE
 10
1035.156110636298
 20
1838.589882348497
 30
0.0
 11
1034.99139454379
 21
1838.872725060972
 31
0.0
  0
LINE
  5
E8
  8
VISIBLE
 10
1069.162834385803
 20
1838.589882348497
 30
0.0
 11
1060.858622764644
 21
1838.589882348497
 31
0.0
  0
LINE
  5
E9
  8
VISIBLE
 10
1015.422719015625
 20
1848.040940479523
 30
0.0
 11
1015.422719015625
 21
1892.329997718674
 31
0.0
  0
LINE
  5
EA
  8
VISIBLE
 10
1053.085544253598
 20
1838.872725060972
 30
0.0
 11
1055.868632476879
 21
1838.872725060972
 31
0.0
  0
LINE
  5
EB
  8
VISIBLE
 10
1070.435626591938
 20
1841.135466760769
 30
0.0
 11
1023.600984940516
 21
1841.135466760769
 31
0.0
  0
LINE
  5
EC
  8
VISIBLE
 10
1052.786975294168
 20
1838.589882348497
 30
0.0
 11
1053.085544253598
 21
1838.872725060972
 31
0.0
  0
LINE
  5
ED
  8
VISIBLE
 10
1017.968303427896
 20
1846.768148273387
 30
0.0
 11
1017.968303427896
 21
1893.60278992481
 31
0.0
  0
LINE
  5
EE
  8
VISIBLE
 10
1055.868632476879
 20
1838.872725060972
 30
0.0
 11
1055.579723418057
 21
1838.589882348497
 31
0.0
  0
LINE
  5
EF
  8
VISIBLE
 10
1023.600984940515
 20
1899.235471437429
 30
0.0
 11
1070.435626591938
 21
1899.235471437429
 31
0.0
  0
LINE
  5
F0
  8
VISIBLE
 10
1076.068308104557
 20
1893.60278992481
 30
0.0
 11
1076.068308104557
 21
1846.768148273388
 31
0.0
  0
ARC
  5
F1
  8
VISIBLE
 10
1022.269568424698
 20
1845.43673175757
 30
0.0
 40
5.771961598583545
 50
213.4209522039655
 51
236.5790477960345
  0
ARC
  5
F2
  8
VISIBLE
 10
1071.767043107756
 20
1845.43673175757
 30
0.0
 40
5.771961598583553
 50
303.4209522039674
 51
326.5790477960357
  0
ARC
  5
F3
  8
VISIBLE
 10
1071.767043107756
 20
1894.934206440628
 30
0.0
 40
5.771961598583545
 50
33.42095220396428
 51
56.57904779603259
  0
ARC
  5
F4
  8
VISIBLE
 10
1022.269568424698
 20
1894.934206440628
 30
0.0
 40
5.771961598583561
 50
123.4209522039655
 51
146.5790477960357
  0
ARC
  5
F5
  8
VISIBLE
 10
1071.767043107756
 20
1894.934206440628
 30
0.0
 40
3.867239415335324
 50
27.56764041112541
 51
62.43235958887161
  0
ARC
  5
F6
  8
VISIBLE
 10
1022.269568424698
 20
1845.43673175757
 30
0.0
 40
3.867239415335324
 50
207.5676404111224
 51
242.4323595888746
  0
ARC
  5
F7
  8
VISIBLE
 10
1071.767043107756
 20
1845.43673175757
 30
0.0
 40
3.867239415335336
 50
297.5676404111284
 51
332.4323595888746
  0
ARC
  5
F8
  8
VISIBLE
 10
1022.269568424698
 20
1894.934206440628
 30
0.0
 40
3.867239415335348
 50
117.5676404111254
 51
152.4323595888746
  0
POLYLINE
  5
F9
  8
VISIBLE
 66
     1
 10
0.0
 20
0.0
 30
0.0
  0
VERTEX
  5
49F
  8
VISIBLE
 10
1076.068308104557
 20
1846.768148273388
 30
0.0
  0
VERTEX
  5
4A0
  8
VISIBLE
 10
1075.969100822726
 20
1845.782323386092
 30
0.0
  0
VERTEX
  5
4A1
  8
VISIBLE
 10
1075.674792979556
 20
1844.730222529137
 30
0.0
  0
VERTEX
  5
4A2
  8
VISIBLE
 10
1075.195215878337
 20
1843.646990952154
 30
0.0
  0
SEQEND
  5
577
  8
VISIBLE
  0
POLYLINE
  5
FA
  8
VISIBLE
 66
     1
 10
0.0
 20
0.0
 30
0.0
  0
VERTEX
  5
4A3
  8
VISIBLE
 10
1069.162834385803
 20
1901.781055849701
 30
0.0
  0
VERTEX
  5
4A4
  8
VISIBLE
 10
1070.519392883417
 20
1901.649162681364
 30
0.0
  0
VERTEX
  5
4A5
  8
VISIBLE
 10
1071.96567251278
 20
1901.257583407585
 30
0.0
  0
VERTEX
  5
4A6
  8
VISIBLE
 10
1073.456712030016
 20
1900.618491256052
 30
0.0
  0
VERTEX
  5
4A7
  8
VISIBLE
 10
1074.94615871743
 20
1899.751754015468
 30
0.0
  0
SEQEND
  5
578
  8
VISIBLE
  0
POLYLINE
  5
FB
  8
VISIBLE
 66
     1
 10
0.0
 20
0.0
 30
0.0
  0
VERTEX
  5
4A8
  8
VISIBLE
 10
1078.613892516829
 20
1848.040940479523
 30
0.0
  0
VERTEX
  5
4A9
  8
VISIBLE
 10
1078.481999348492
 20
1846.684381981909
 30
0.0
  0
VERTEX
  5
4AA
  8
VISIBLE
 10
1078.090420074713
 20
1845.238102352545
 30
0.0
  0
VERTEX
  5
4AB
  8
VISIBLE
 10
1077.45132792318
 20
1843.74706283531
 30
0.0
  0
VERTEX
  5
4AC
  8
VISIBLE
 10
1076.584590682596
 20
1842.257616147895
 30
0.0
  0
SEQEND
  5
579
  8
VISIBLE
  0
POLYLINE
  5
FC
  8
VISIBLE
 66
     1
 10
0.0
 20
0.0
 30
0.0
  0
VERTEX
  5
4AD
  8
VISIBLE
 10
1020.479827619282
 20
1898.362379211209
 30
0.0
  0
VERTEX
  5
4AE
  8
VISIBLE
 10
1021.563059196265
 20
1898.841956312428
 30
0.0
  0
VERTEX
  5
4AF
  8
VISIBLE
 10
1022.61516005322
 20
1899.136264155598
 30
0.0
  0
VERTEX
  5
4B0
  8
VISIBLE
 10
1023.600984940515
 20
1899.235471437429
 30
0.0
  0
SEQEND
  5
57A
  8
VISIBLE
  0
POLYLINE
  5
FD
  8
VISIBLE
 66
     1
 10
0.0
 20
0.0
 30
0.0
  0
VERTEX
  5
4B1
  8
VISIBLE
 10
1070.435626591938
 20
1899.235471437429
 30
0.0
  0
VERTEX
  5
4B2
  8
VISIBLE
 10
1071.421451479234
 20
1899.136264155598
 30
0.0
  0
VERTEX
  5
4B3
  8
VISIBLE
 10
1072.473552336188
 20
1898.841956312428
 30
0.0
  0
VERTEX
  5
4B4
  8
VISIBLE
 10
1073.556783913172
 20
1898.362379211209
 30
0.0
  0
SEQEND
  5
57B
  8
VISIBLE
  0
POLYLINE
  5
FE
  8
VISIBLE
 66
     1
 10
0.0
 20
0.0
 30
0.0
  0
VERTEX
  5
4B5
  8
VISIBLE
 10
1018.841395654116
 20
1843.646990952154
 30
0.0
  0
VERTEX
  5
4B6
  8
VISIBLE
 10
1018.361818552898
 20
1844.730222529137
 30
0.0
  0
VERTEX
  5
4B7
  8
VISIBLE
 10
1018.067510709728
 20
1845.782323386092
 30
0.0
  0
VERTEX
  5
4B8
  8
VISIBLE
 10
1017.968303427896
 20
1846.768148273387
 30
0.0
  0
SEQEND
  5
57C
  8
VISIBLE
  0
POLYLINE
  5
FF
  8
VISIBLE
 66
     1
 10
0.0
 20
0.0
 30
0.0
  0
VERTEX
  5
4B9
  8
VISIBLE
 10
1074.946158717431
 20
1840.619184182729
 30
0.0
  0
VERTEX
  5
4BA
  8
VISIBLE
 10
1073.456712030016
 20
1839.752446942146
 30
0.0
  0
VERTEX
  5
4BB
  8
VISIBLE
 10
1071.96567251278
 20
1839.113354790612
 30
0.0
  0
VERTEX
  5
4BC
  8
VISIBLE
 10
1070.519392883417
 20
1838.721775516834
 30
0.0
  0
VERTEX
  5
4BD
  8
VISIBLE
 10
1069.162834385803
 20
1838.589882348497
 30
0.0
  0
SEQEND
  5
57D
  8
VISIBLE
  0
POLYLINE
  5
100
  8
VISIBLE
 66
     1
 10
0.0
 20
0.0
 30
0.0
  0
VERTEX
  5
4BE
  8
VISIBLE
 10
1076.584590682596
 20
1898.113322050302
 30
0.0
  0
VERTEX
  5
4BF
  8
VISIBLE
 10
1077.45132792318
 20
1896.623875362888
 30
0.0
  0
VERTEX
  5
4C0
  8
VISIBLE
 10
1078.090420074714
 20
1895.132835845652
 30
0.0
  0
VERTEX
  5
4C1
  8
VISIBLE
 10
1078.481999348492
 20
1893.686556216289
 30
0.0
  0
VERTEX
  5
4C2
  8
VISIBLE
 10
1078.613892516829
 20
1892.329997718675
 30
0.0
  0
SEQEND
  5
57E
  8
VISIBLE
  0
POLYLINE
  5
101
  8
VISIBLE
 66
     1
 10
0.0
 20
0.0
 30
0.0
  0
VERTEX
  5
4C3
  8
VISIBLE
 10
1073.556783913172
 20
1842.008558986988
 30
0.0
  0
VERTEX
  5
4C4
  8
VISIBLE
 10
1072.473552336188
 20
1841.52898188577
 30
0.0
  0
VERTEX
  5
4C5
  8
VISIBLE
 10
1071.421451479234
 20
1841.2346740426
 30
0.0
  0
VERTEX
  5
4C6
  8
VISIBLE
 10
1070.435626591938
 20
1841.135466760768
 30
0.0
  0
SEQEND
  5
57F
  8
VISIBLE
  0
POLYLINE
  5
102
  8
VISIBLE
 66
     1
 10
0.0
 20
0.0
 30
0.0
  0
VERTEX
  5
4C7
  8
VISIBLE
 10
1075.195215878337
 20
1896.723947246044
 30
0.0
  0
VERTEX
  5
4C8
  8
VISIBLE
 10
1075.674792979556
 20
1895.64071566906
 30
0.0
  0
VERTEX
  5
4C9
  8
VISIBLE
 10
1075.969100822726
 20
1894.588614812106
 30
0.0
  0
VERTEX
  5
4CA
  8
VISIBLE
 10
1076.068308104557
 20
1893.60278992481
 30
0.0
  0
SEQEND
  5
580
  8
VISIBLE
  0
POLYLINE
  5
103
  8
VISIBLE
 66
     1
 10
0.0
 20
0.0
 30
0.0
  0
VERTEX
  5
4CB
  8
VISIBLE
 10
1015.422719015624
 20
1892.329997718674
 30
0.0
  0
VERTEX
  5
4CC
  8
VISIBLE
 10
1015.554612183961
 20
1893.686556216288
 30
0.0
  0
VERTEX
  5
4CD
  8
VISIBLE
 10
1015.94619145774
 20
1895.132835845652
 30
0.0
  0
VERTEX
  5
4CE
  8
VISIBLE
 10
1016.585283609273
 20
1896.623875362888
 30
0.0
  0
VERTEX
  5
4CF
  8
VISIBLE
 10
1017.452020849857
 20
1898.113322050302
 30
0.0
  0
SEQEND
  5
581
  8
VISIBLE
  0
POLYLINE
  5
104
  8
VISIBLE
 66
     1
 10
0.0
 20
0.0
 30
0.0
  0
VERTEX
  5
4D0
  8
VISIBLE
 10
1023.600984940516
 20
1841.135466760768
 30
0.0
  0
VERTEX
  5
4D1
  8
VISIBLE
 10
1022.61516005322
 20
1841.2346740426
 30
0.0
  0
VERTEX
  5
4D2
  8
VISIBLE
 10
1021.563059196265
 20
1841.52898188577
 30
0.0
  0
VERTEX
  5
4D3
  8
VISIBLE
 10
1020.479827619282
 20
1842.008558986989
 30
0.0
  0
SEQEND
  5
582
  8
VISIBLE
  0
POLYLINE
  5
105
  8
VISIBLE
 66
     1
 10
0.0
 20
0.0
 30
0.0
  0
VERTEX
  5
4D4
  8
VISIBLE
 10
1017.452020849857
 20
1842.257616147895
 30
0.0
  0
VERTEX
  5
4D5
  8
VISIBLE
 10
1016.585283609274
 20
1843.74706283531
 30
0.0
  0
VERTEX
  5
4D6
  8
VISIBLE
 10
1015.94619145774
 20
1845.238102352546
 30
0.0
  0
VERTEX
  5
4D7
  8
VISIBLE
 10
1015.554612183962
 20
1846.684381981909
 30
0.0
  0
VERTEX
  5
4D8
  8
VISIBLE
 10
1015.422719015625
 20
1848.040940479523
 30
0.0
  0
SEQEND
  5
583
  8
VISIBLE
  0
POLYLINE
  5
106
  8
VISIBLE
 66
     1
 10
0.0
 20
0.0
 30
0.0
  0
VERTEX
  5
4D9
  8
VISIBLE
 10
1017.968303427896
 20
1893.60278992481
 30
0.0
  0
VERTEX
  5
4DA
  8
VISIBLE
 10
1018.067510709727
 20
1894.588614812105
 30
0.0
  0
VERTEX
  5
4DB
  8
VISIBLE
 10
1018.361818552898
 20
1895.64071566906
 30
0.0
  0
VERTEX
  5
4DC
  8
VISIBLE
 10
1018.841395654116
 20
1896.723947246044
 30
0.0
  0
SEQEND
  5
584
  8
VISIBLE
  0
POLYLINE
  5
107
  8
VISIBLE
 66
     1
 10
0.0
 20
0.0
 30
0.0
  0
VERTEX
  5
4DD
  8
VISIBLE
 10
1019.090452815023
 20
1899.751754015468
 30
0.0
  0
VERTEX
  5
4DE
  8
VISIBLE
 10
1020.579899502438
 20
1900.618491256052
 30
0.0
  0
VERTEX
  5
4DF
  8
VISIBLE
 10
1022.070939019673
 20
1901.257583407586
 30
0.0
  0
VERTEX
  5
4E0
  8
VISIBLE
 10
1023.517218649037
 20
1901.649162681364
 30
0.0
  0
VERTEX
  5
4E1
  8
VISIBLE
 10
1024.873777146651
 20
1901.781055849701
 30
0.0
  0
SEQEND
  5
585
  8
VISIBLE
  0
POLYLINE
  5
108
  8
VISIBLE
 66
     1
 10
0.0
 20
0.0
 30
0.0
  0
VERTEX
  5
4E2
  8
VISIBLE
 10
1024.873777146651
 20
1838.589882348497
 30
0.0
  0
VERTEX
  5
4E3
  8
VISIBLE
 10
1023.517218649037
 20
1838.721775516834
 30
0.0
  0
VERTEX
  5
4E4
  8
VISIBLE
 10
1022.070939019674
 20
1839.113354790612
 30
0.0
  0
VERTEX
  5
4E5
  8
VISIBLE
 10
1020.579899502438
 20
1839.752446942146
 30
0.0
  0
VERTEX
  5
4E6
  8
VISIBLE
 10
1019.090452815023
 20
1840.619184182729
 30
0.0
  0
SEQEND
  5
586
  8
VISIBLE
  0
LINE
  5
109
  8
VISIBLE
 10
2265.570568072351
 20
199.6514789586123
 30
0.0
 11
2271.869535622714
 21
193.3525114082499
 31
0.0
  0
LINE
  5
10A
  8
VISIBLE
 10
2263.802801119385
 20
197.8837120056459
 30
0.0
 11
2270.101768669747
 21
191.5847444552835
 31
0.0
  0
LINE
  5
10B
  8
VISIBLE
 10
2276.168337025396
 20
189.0537100055675
 30
0.0
 11
2282.467304575759
 21
182.7547424552052
 31
0.0
  0
LINE
  5
10C
  8
VISIBLE
 10
2282.467304575759
 20
182.7547424552052
 30
0.0
 11
2280.699537622792
 21
180.9869755022388
 31
0.0
  0
LINE
  5
10D
  8
VISIBLE
 10
2291.356051572559
 20
173.8659954584049
 30
0.0
 11
2300.336307693628
 21
164.8857393373359
 31
0.0
  0
LINE
  5
10E
  8
VISIBLE
 10
2289.588284619593
 20
172.0982285054386
 30
0.0
 11
2298.568540740662
 21
163.1179723843696
 31
0.0
  0
LINE
  5
10F
  8
VISIBLE
 10
2291.356051572559
 20
173.8659954584049
 30
0.0
 11
2289.588284619593
 21
172.0982285054386
 31
0.0
  0
LINE
  5
110
  8
VISIBLE
 10
2300.911044085377
 20
162.1476757290844
 30
0.0
 11
2308.531044085377
 21
162.1476757290845
 31
0.0
  0
LINE
  5
111
  8
VISIBLE
 10
2263.802801119385
 20
197.8837120056459
 30
0.0
 11
2265.570568072351
 21
199.6514789586123
 31
0.0
  0
LINE
  5
112
  8
VISIBLE
 10
2274.40057007243
 20
187.2859430526011
 30
0.0
 11
2280.699537622792
 21
180.9869755022388
 31
0.0
  0
LINE
  5
113
  8
VISIBLE
 10
2308.531044085377
 20
162.1476757290845
 30
0.0
 11
2308.531044085377
 21
164.6476757290845
 31
0.0
  0
LINE
  5
114
  8
VISIBLE
 10
2247.701564954481
 20
217.5204820764815
 30
0.0
 11
2256.68182107555
 21
208.5402259554125
 31
0.0
  0
LINE
  5
115
  8
VISIBLE
 10
2244.96350134623
 20
225.7152184682299
 30
0.0
 11
2244.96350134623
 21
218.0952184682299
 31
0.0
  0
LINE
  5
116
  8
VISIBLE
 10
2247.46350134623
 20
225.7152184682299
 30
0.0
 11
2247.46350134623
 21
218.0952184682299
 31
0.0
  0
LINE
  5
117
  8
VISIBLE
 10
2245.933798001515
 20
215.7527151235151
 30
0.0
 11
2254.914054122584
 21
206.7724590024461
 31
0.0
  0
LINE
  5
118
  8
VISIBLE
 10
2247.46350134623
 20
225.7152184682299
 30
0.0
 11
2244.96350134623
 21
225.7152184682299
 31
0.0
  0
LINE
  5
119
  8
VISIBLE
 10
2254.914054122584
 20
206.7724590024461
 30
0.0
 11
2256.68182107555
 21
208.5402259554125
 31
0.0
  0
LINE
  5
11A
  8
VISIBLE
 10
2276.168337025396
 20
189.0537100055675
 30
0.0
 11
2274.40057007243
 21
187.2859430526011
 31
0.0
  0
LINE
  5
11B
  8
VISIBLE
 10
2300.911044085377
 20
164.6476757290844
 30
0.0
 11
2308.531044085377
 21
164.6476757290845
 31
0.0
  0
LINE
  5
11C
  8
VISIBLE
 10
2270.101768669747
 20
191.5847444552835
 30
0.0
 11
2271.869535622714
 21
193.3525114082499
 31
0.0
  0
ARC
  5
11D
  8
VISIBLE
 10
2300.911044085376
 20
165.4604757290844
 30
0.0
 40
0.8128000000000001
 50
225.0000000000213
 51
270.0000000000321
  0
ARC
  5
11E
  8
VISIBLE
 10
2300.911044085376
 20
165.4604757290844
 30
0.0
 40
3.3128
 50
225.0000000000014
 51
270.0000000000078
  0
ARC
  5
11F
  8
VISIBLE
 10
2248.27630134623
 20
218.0952184682299
 30
0.0
 40
3.3128
 50
180.0
 51
225.0000000000014
  0
ARC
  5
120
  8
VISIBLE
 10
2248.27630134623
 20
218.0952184682299
 30
0.0
 40
0.8128000000000001
 50
180.0
 51
224.9999999999958
  0
LINE
  5
121
  8
VISIBLE
 10
1617.492103556253
 20
-1634.191317640941
 30
0.0
 11
1617.492103556253
 21
-1679.028917640941
 31
0.0
  0
LINE
  5
122
  8
VISIBLE
 10
1603.024115338077
 20
-1637.290825144073
 30
0.0
 11
1604.466949740944
 21
-1636.280541618797
 31
0.0
  0
LINE
  5
123
  8
VISIBLE
 10
1617.510903556253
 20
-1682.010117640941
 30
0.0
 11
1664.310903556253
 21
-1682.010117640941
 31
0.0
  0
LINE
  5
124
  8
VISIBLE
 10
1615.510903556253
 20
-1639.171317640941
 30
0.0
 11
1615.510903556253
 21
-1680.010117640941
 31
0.0
  0
LINE
  5
125
  8
VISIBLE
 10
1603.024115338077
 20
-1632.09061013781
 30
0.0
 11
1604.466949740944
 21
-1633.100893663086
 31
0.0
  0
LINE
  5
126
  8
VISIBLE
 10
1664.329703556253
 20
-1679.028917640941
 30
0.0
 11
1664.329703556253
 21
-1634.19131764094
 31
0.0
  0
LINE
  5
127
  8
VISIBLE
 10
1614.510903556253
 20
-1638.171317640941
 30
0.0
 11
1603.310903556252
 21
-1638.171317640941
 31
0.0
  0
LINE
  5
128
  8
VISIBLE
 10
1602.810903556253
 20
-1631.681034115665
 30
0.0
 11
1602.810903556253
 21
-1631.210117640941
 31
0.0
  0
LINE
  5
129
  8
VISIBLE
 10
1666.310903556253
 20
-1680.010117640941
 30
0.0
 11
1666.310903556253
 21
-1639.171317640941
 31
0.0
  0
LINE
  5
12A
  8
VISIBLE
 10
1663.329703556253
 20
-1633.191317640941
 30
0.0
 11
1618.492103556253
 21
-1633.191317640941
 31
0.0
  0
LINE
  5
12B
  8
VISIBLE
 10
1618.492103556253
 20
-1680.028917640941
 30
0.0
 11
1663.329703556253
 21
-1680.028917640941
 31
0.0
  0
LINE
  5
12C
  8
VISIBLE
 10
1615.010903556253
 20
-1636.190117640941
 30
0.0
 11
1604.75373795912
 21
-1636.190117640941
 31
0.0
  0
LINE
  5
12D
  8
VISIBLE
 10
1678.510903556253
 20
-1631.210117640941
 30
0.0
 11
1602.810903556253
 21
-1631.210117640941
 31
0.0
  0
LINE
  5
12E
  8
VISIBLE
 10
1678.797691774428
 20
-1637.290825144072
 30
0.0
 11
1677.354857371561
 21
-1636.280541618796
 31
0.0
  0
LINE
  5
12F
  8
VISIBLE
 10
1678.797691774428
 20
-1632.090610137809
 30
0.0
 11
1677.354857371561
 21
-1633.100893663085
 31
0.0
  0
LINE
  5
130
  8
VISIBLE
 10
1666.310903556253
 20
-1635.690117640941
 30
0.0
 11
1666.310903556253
 21
-1633.69131764094
 31
0.0
  0
LINE
  5
131
  8
VISIBLE
 10
1615.010903556253
 20
-1633.191317640941
 30
0.0
 11
1604.75373795912
 21
-1633.191317640941
 31
0.0
  0
LINE
  5
132
  8
VISIBLE
 10
1667.310903556253
 20
-1638.17131764094
 30
0.0
 11
1678.510903556253
 21
-1638.17131764094
 31
0.0
  0
LINE
  5
133
  8
VISIBLE
 10
1666.810903556253
 20
-1636.190117640941
 30
0.0
 11
1677.068069153386
 21
-1636.190117640941
 31
0.0
  0
LINE
  5
134
  8
VISIBLE
 10
1615.510903556253
 20
-1633.691317640941
 30
0.0
 11
1615.510903556253
 21
-1635.690117640941
 31
0.0
  0
LINE
  5
135
  8
VISIBLE
 10
1666.810903556253
 20
-1633.191317640941
 30
0.0
 11
1677.068069153386
 21
-1633.19131764094
 31
0.0
  0
ARC
  5
136
  8
VISIBLE
 10
1617.510903556253
 20
-1680.010117640941
 30
0.0
 40
2.0
 50
180.0
 51
270.0
  0
ARC
  5
137
  8
VISIBLE
 10
1604.75373795912
 20
-1636.690117640941
 30
0.0
 40
0.5
 50
90.0
 51
125.0000000000155
  0
ARC
  5
138
  8
VISIBLE
 10
1603.310903556252
 20
-1637.700401166217
 30
0.0
 40
0.5
 50
124.9999999999942
 51
178.3334017429099
  0
ARC
  5
139
  8
VISIBLE
 10
1618.492103556253
 20
-1679.028917640941
 30
0.0
 40
1.0
 50
180.0
 51
270.0
  0
ARC
  5
13A
  8
VISIBLE
 10
1615.010903556253
 20
-1635.690117640941
 30
0.0
 40
0.5
 50
270.0
 51
0.0
  0
ARC
  5
13B
  8
VISIBLE
 10
1603.310903556252
 20
-1631.681034115665
 30
0.0
 40
0.5
 50
180.0
 51
235.0000000000208
  0
ARC
  5
13C
  8
VISIBLE
 10
1615.010903556253
 20
-1633.691317640941
 30
0.0
 40
0.5
 50
0.0
 51
90.0
  0
ARC
  5
13D
  8
VISIBLE
 10
1618.492103556253
 20
-1634.191317640941
 30
0.0
 40
1.0
 50
90.0
 51
180.0
  0
ARC
  5
13E
  8
VISIBLE
 10
1663.329703556253
 20
-1679.028917640941
 30
0.0
 40
1.0
 50
270.000000000013
 51
0.0
  0
ARC
  5
13F
  8
VISIBLE
 10
1603.310903556252
 20
-1637.671317640941
 30
0.0
 40
0.5
 50
181.6665982570901
 51
270.0
  0
ARC
  5
140
  8
VISIBLE
 10
1664.310903556253
 20
-1680.010117640941
 30
0.0
 40
2.0
 50
270.0
 51
0.0000000000065138
  0
ARC
  5
141
  8
VISIBLE
 10
1614.510903556253
 20
-1639.171317640941
 30
0.0
 40
1.0
 50
0.0
 51
90.0
  0
ARC
  5
142
  8
VISIBLE
 10
1678.510903556253
 20
-1637.671317640941
 30
0.0
 40
0.5
 50
270.000000000026
 51
358.3334017429367
  0
ARC
  5
143
  8
VISIBLE
 10
1678.510903556253
 20
-1631.71011764094
 30
0.0
 40
0.5
 50
1.666598257089368
 51
90.0
  0
ARC
  5
144
  8
VISIBLE
 10
1677.068069153386
 20
-1636.69011764094
 30
0.0
 40
0.5
 50
54.9999999999845
 51
90.0
  0
ARC
  5
145
  8
VISIBLE
 10
1678.510903556253
 20
-1637.700401166216
 30
0.0
 40
0.5
 50
1.666598257115412
 51
55.00000000002079
  0
ARC
  5
146
  8
VISIBLE
 10
1678.510903556253
 20
-1631.681034115664
 30
0.0
 40
0.5
 50
304.9999999999792
 51
358.3334017429107
  0
ARC
  5
147
  8
VISIBLE
 10
1663.329703556253
 20
-1634.19131764094
 30
0.0
 40
1.0
 50
0.0
 51
89.99999999998697
  0
ARC
  5
148
  8
VISIBLE
 10
1677.068069153386
 20
-1632.69131764094
 30
0.0
 40
0.5
 50
270.0
 51
305.0000000000155
  0
ARC
  5
149
  8
VISIBLE
 10
1667.310903556253
 20
-1639.171317640941
 30
0.0
 40
1.0
 50
90.0
 51
180.0
  0
ARC
  5
14A
  8
VISIBLE
 10
1666.810903556253
 20
-1635.690117640941
 30
0.0
 40
0.5
 50
180.0
 51
270.0
  0
ARC
  5
14B
  8
VISIBLE
 10
1604.75373795912
 20
-1632.691317640941
 30
0.0
 40
0.5
 50
234.9999999999845
 51
270.0
  0
ARC
  5
14C
  8
VISIBLE
 10
1666.810903556253
 20
-1633.69131764094
 30
0.0
 40
0.5
 50
90.0
 51
180.0
  0
LINE
  5
14D
  8
VISIBLE
 10
1012.431537172975
 20
-1607.89462318647
 30
0.0
 11
1020.438712986447
 21
-1629.894157927587
 31
0.0
  0
LINE
  5
14E
  8
VISIBLE
 10
1015.013350927454
 20
-1606.216684977649
 30
0.0
 11
1022.539335601076
 21
-1626.894157927587
 31
0.0
  0
LINE
  5
14F
  8
VISIBLE
 10
1022.318098228019
 20
-1631.210117640936
 30
0.0
 11
1071.718513304438
 21
-1631.210117640936
 31
0.0
  0
LINE
  5
150
  8
VISIBLE
 10
1024.418720842648
 20
-1628.210117640936
 30
0.0
 11
1069.617890689809
 21
-1628.210117640936
 31
0.0
  0
LINE
  5
151
  8
VISIBLE
 10
1073.59789854601
 20
-1629.894157927587
 30
0.0
 11
1081.605074359482
 21
-1607.89462318647
 31
0.0
  0
LINE
  5
152
  8
VISIBLE
 10
1071.497275931381
 20
-1626.894157927587
 30
0.0
 11
1079.023260605004
 21
-1606.216684977649
 31
0.0
  0
ARC
  5
153
  8
VISIBLE
 10
1047.018305766229
 20
-1566.210117640936
 30
0.0
 40
50.0
 50
313.6325906046038
 51
226.367409395396
  0
ARC
  5
154
  8
VISIBLE
 10
1047.018305766229
 20
-1566.210117640936
 30
0.0
 40
53.0
 50
314.2790770102727
 51
225.7209229897271
  0
ARC
  5
155
  8
VISIBLE
 10
1005.616424719595
 20
-1609.636886410905
 30
0.0
 40
10.0
 50
20.00000000000082
 51
46.36740939539697
  0
ARC
  5
156
  8
VISIBLE
 10
1003.034610965116
 20
-1611.314824619727
 30
0.0
 40
10.0
 50
20.00000000000082
 51
45.72092298972694
  0
ARC
  5
157
  8
VISIBLE
 10
1022.318098228019
 20
-1629.210117640936
 30
0.0
 40
2.0
 50
199.9999999999953
 51
270.0
  0
ARC
  5
158
  8
VISIBLE
 10
1024.418720842648
 20
-1626.210117640936
 30
0.0
 40
2.0
 50
199.9999999999953
 51
270.0
  0
ARC
  5
159
  8
VISIBLE
 10
1071.718513304438
 20
-1629.210117640936
 30
0.0
 40
2.0
 50
270.0
 51
340.0000000000047
  0
ARC
  5
15A
  8
VISIBLE
 10
1069.617890689809
 20
-1626.210117640936
 30
0.0
 40
2.0
 50
270.0
 51
340.0000000000047
  0
ARC
  5
15B
  8
VISIBLE
 10
1088.420186812863
 20
-1609.636886410905
 30
0.0
 40
10.0
 50
133.632590604604
 51
159.9999999999992
  0
ARC
  5
15C
  8
VISIBLE
 10
1091.002000567342
 20
-1611.314824619727
 30
0.0
 40
10.0
 50
134.2790770102731
 51
159.9999999999992
  0
LINE
  5
15D
  8
VISIBLE
 10
1034.531550830354
 20
-374.2068347868416
 30
0.0
 11
1028.145245225391
 21
-380.593140391807
 31
0.0
  0
LINE
  5
15E
  8
VISIBLE
 10
1036.299317783321
 20
-375.9746017398079
 30
0.0
 11
1029.913012178357
 21
-382.3609073447728
 31
0.0
  0
LINE
  5
15F
  8
VISIBLE
 10
1029.913012178357
 20
-382.3609073447728
 30
0.0
 11
1028.145245225391
 21
-380.593140391807
 31
0.0
  0
LINE
  5
160
  8
VISIBLE
 10
1044.337990514561
 20
-382.3609073447733
 30
0.0
 11
1046.105757467527
 21
-380.593140391807
 31
0.0
  0
LINE
  5
161
  8
VISIBLE
 10
1044.337990514561
 20
-382.3609073447733
 30
0.0
 11
1037.951684909597
 21
-375.9746017398072
 31
0.0
  0
LINE
  5
162
  8
VISIBLE
 10
1046.105757467527
 20
-380.593140391807
 30
0.0
 11
1039.719451862563
 21
-374.2068347868424
 31
0.0
  0
LINE
  5
163
  8
VISIBLE
 10
1011.727145994844
 20
-400.5467735282871
 30
0.0
 11
1009.959379041877
 21
-398.7790065753202
 31
0.0
  0
LINE
  5
164
  8
VISIBLE
 10
1009.959379041877
 20
-398.7790065753202
 30
0.0
 11
995.096454575953
 21
-413.6419310412429
 31
0.0
  0
LINE
  5
165
  8
VISIBLE
 10
1011.727145994844
 20
-400.5467735282871
 30
0.0
 11
996.8642215289194
 21
-415.4096979942091
 31
0.0
  0
LINE
  5
166
  8
VISIBLE
 10
1077.386781163998
 20
-415.4096979942102
 30
0.0
 11
1062.523856698075
 21
-400.5467735282871
 31
0.0
  0
LINE
  5
167
  8
VISIBLE
 10
1062.523856698075
 20
-400.5467735282871
 30
0.0
 11
1064.291623651041
 21
-398.7790065753209
 31
0.0
  0
LINE
  5
168
  8
VISIBLE
 10
1079.154548116964
 20
-413.6419310412439
 30
0.0
 11
1064.291623651041
 21
-398.7790065753209
 31
0.0
  0
LINE
  5
169
  8
VISIBLE
 10
995.096454575953
 20
-413.6419310412429
 30
0.0
 11
996.8642215289194
 21
-415.4096979942091
 31
0.0
  0
LINE
  5
16A
  8
VISIBLE
 10
1077.386781163998
 20
-415.4096979942102
 30
0.0
 11
1079.154548116964
 21
-413.6419310412439
 31
0.0
  0
ARC
  5
16B
  8
VISIBLE
 10
1037.125501346459
 20
-376.8007853029462
 30
0.0
 40
3.6684
 50
45.0000000000044
 51
135.0000000000013
  0
ARC
  5
16C
  8
VISIBLE
 10
1037.125501346459
 20
-376.8007853029462
 30
0.0
 40
1.1684
 50
45.00000000003548
 51
134.999999999998
  0
LINE
  5
16D
  8
VISIBLE
 10
2806.277299136247
 20
-1680.028917640931
 30
0.0
 11
2851.114899136247
 21
-1680.028917640931
 31
0.0
  0
LINE
  5
16E
  8
VISIBLE
 10
2854.096099136247
 20
-1680.010117640931
 30
0.0
 11
2854.096099136247
 21
-1639.171317640931
 31
0.0
  0
LINE
  5
16F
  8
VISIBLE
 10
2852.114899136247
 20
-1679.028917640931
 30
0.0
 11
2852.114899136247
 21
-1634.19131764093
 31
0.0
  0
LINE
  5
170
  8
VISIBLE
 10
2803.296099136247
 20
-1639.171317640931
 30
0.0
 11
2803.296099136247
 21
-1680.010117640931
 31
0.0
  0
LINE
  5
171
  8
VISIBLE
 10
2805.296099136247
 20
-1682.010117640931
 30
0.0
 11
2852.096099136247
 21
-1682.010117640931
 31
0.0
  0
LINE
  5
172
  8
VISIBLE
 10
2864.85326473338
 20
-1636.190117640931
 30
0.0
 11
2854.596099136247
 21
-1636.190117640931
 31
0.0
  0
LINE
  5
173
  8
VISIBLE
 10
2805.277299136247
 20
-1634.191317640931
 30
0.0
 11
2805.277299136247
 21
-1679.028917640931
 31
0.0
  0
LINE
  5
174
  8
VISIBLE
 10
2851.114899136247
 20
-1633.191317640931
 30
0.0
 11
2806.277299136247
 21
-1633.191317640931
 31
0.0
  0
LINE
  5
175
  8
VISIBLE
 10
2866.296099136247
 20
-1638.17131764093
 30
0.0
 11
2855.096099136246
 21
-1638.171317640931
 31
0.0
  0
LINE
  5
176
  8
VISIBLE
 10
2792.252145320938
 20
-1636.280541618787
 30
0.0
 11
2790.809310918071
 21
-1637.290825144063
 31
0.0
  0
LINE
  5
177
  8
VISIBLE
 10
2866.796099136247
 20
-1631.210117640931
 30
0.0
 11
2866.796099136247
 21
-1631.681034115654
 31
0.0
  0
LINE
  5
178
  8
VISIBLE
 10
2854.096099136246
 20
-1635.690117640931
 30
0.0
 11
2854.096099136247
 21
-1633.69131764093
 31
0.0
  0
LINE
  5
179
  8
VISIBLE
 10
2865.140052951555
 20
-1636.280541618786
 30
0.0
 11
2866.582887354422
 21
-1637.290825144062
 31
0.0
  0
LINE
  5
17A
  8
VISIBLE
 10
2866.796099136247
 20
-1631.210117640931
 30
0.0
 11
2791.096099136247
 21
-1631.210117640931
 31
0.0
  0
LINE
  5
17B
  8
VISIBLE
 10
2803.296099136247
 20
-1633.691317640931
 30
0.0
 11
2803.296099136247
 21
-1635.690117640931
 31
0.0
  0
LINE
  5
17C
  8
VISIBLE
 10
2792.252145320938
 20
-1633.100893663076
 30
0.0
 11
2790.809310918071
 21
-1632.0906101378
 31
0.0
  0
LINE
  5
17D
  8
VISIBLE
 10
2865.140052951555
 20
-1633.100893663075
 30
0.0
 11
2866.582887354422
 21
-1632.090610137799
 31
0.0
  0
LINE
  5
17E
  8
VISIBLE
 10
2864.85326473338
 20
-1633.19131764093
 30
0.0
 11
2854.596099136247
 21
-1633.191317640931
 31
0.0
  0
LINE
  5
17F
  8
VISIBLE
 10
2792.538933539114
 20
-1633.191317640931
 30
0.0
 11
2802.796099136247
 21
-1633.191317640931
 31
0.0
  0
LINE
  5
180
  8
VISIBLE
 10
2792.538933539114
 20
-1636.190117640931
 30
0.0
 11
2802.796099136247
 21
-1636.190117640931
 31
0.0
  0
LINE
  5
181
  8
VISIBLE
 10
2791.096099136247
 20
-1638.171317640931
 30
0.0
 11
2802.296099136247
 21
-1638.171317640931
 31
0.0
  0
ARC
  5
182
  8
VISIBLE
 10
2852.096099136247
 20
-1680.010117640931
 30
0.0
 40
2.0
 50
270.0
 51
0.0
  0
ARC
  5
183
  8
VISIBLE
 10
2805.296099136247
 20
-1680.010117640931
 30
0.0
 40
2.0
 50
180.0
 51
270.0
  0
ARC
  5
184
  8
VISIBLE
 10
2851.114899136247
 20
-1679.028917640931
 30
0.0
 40
1.0
 50
270.0
 51
0.0
  0
ARC
  5
185
  8
VISIBLE
 10
2806.277299136247
 20
-1679.028917640931
 30
0.0
 40
1.0
 50
180.0
 51
270.0
  0
ARC
  5
186
  8
VISIBLE
 10
2854.596099136247
 20
-1633.69131764093
 30
0.0
 40
0.5
 50
90.0
 51
180.0
  0
ARC
  5
187
  8
VISIBLE
 10
2802.796099136247
 20
-1633.691317640931
 30
0.0
 40
0.5
 50
0.0
 51
90.0
  0
ARC
  5
188
  8
VISIBLE
 10
2854.596099136247
 20
-1635.690117640931
 30
0.0
 40
0.5
 50
180.0
 51
270.0
  0
ARC
  5
189
  8
VISIBLE
 10
2866.296099136247
 20
-1637.671317640931
 30
0.0
 40
0.5
 50
270.0
 51
358.3334017429374
  0
ARC
  5
18A
  8
VISIBLE
 10
2792.538933539114
 20
-1636.690117640931
 30
0.0
 40
0.5
 50
90.0
 51
125.0000000000368
  0
ARC
  5
18B
  8
VISIBLE
 10
2791.096099136247
 20
-1637.671317640931
 30
0.0
 40
0.5
 50
181.6665982570886
 51
270.0
  0
ARC
  5
18C
  8
VISIBLE
 10
2791.096099136247
 20
-1631.710117640931
 30
0.0
 40
0.5
 50
90.0
 51
178.3334017429374
  0
ARC
  5
18D
  8
VISIBLE
 10
2855.096099136247
 20
-1639.171317640931
 30
0.0
 40
1.0
 50
90.00000000002606
 51
180.0
  0
ARC
  5
18E
  8
VISIBLE
 10
2802.796099136247
 20
-1635.690117640931
 30
0.0
 40
0.5
 50
270.0
 51
0.0
  0
ARC
  5
18F
  8
VISIBLE
 10
2851.114899136247
 20
-1634.19131764093
 30
0.0
 40
1.0
 50
0.0
 51
90.0
  0
ARC
  5
190
  8
VISIBLE
 10
2791.096099136247
 20
-1637.700401166207
 30
0.0
 40
0.5
 50
125.0000000000368
 51
178.3334017429114
  0
ARC
  5
191
  8
VISIBLE
 10
2791.096099136247
 20
-1631.681034115655
 30
0.0
 40
0.5
 50
181.6665982571147
 51
235.0000000000208
  0
ARC
  5
192
  8
VISIBLE
 10
2792.538933539114
 20
-1632.691317640931
 30
0.0
 40
0.5
 50
235.0000000000058
 51
270.0
  0
ARC
  5
193
  8
VISIBLE
 10
2802.296099136247
 20
-1639.171317640931
 30
0.0
 40
1.0
 50
0.0
 51
90.0
  0
ARC
  5
194
  8
VISIBLE
 10
2806.277299136247
 20
-1634.191317640931
 30
0.0
 40
1.0
 50
90.0
 51
180.0
  0
ARC
  5
195
  8
VISIBLE
 10
2864.85326473338
 20
-1636.69011764093
 30
0.0
 40
0.5
 50
55.00000000000584
 51
90.0
  0
ARC
  5
196
  8
VISIBLE
 10
2866.296099136247
 20
-1637.700401166206
 30
0.0
 40
0.5
 50
1.666598257114654
 51
54.99999999997809
  0
ARC
  5
197
  8
VISIBLE
 10
2866.296099136247
 20
-1631.681034115654
 30
0.0
 40
0.5
 50
305.0000000000219
 51
0.0
  0
ARC
  5
198
  8
VISIBLE
 10
2864.85326473338
 20
-1632.69131764093
 30
0.0
 40
0.5
 50
270.0
 51
304.9999999999792
  0
LINE
  5
199
  8
VISIBLE
 10
1076.068308104559
 20
-1542.792796815225
 30
0.0
 11
1076.068308104559
 21
-1589.627438466647
 31
0.0
  0
LINE
  5
19A
  8
VISIBLE
 10
1017.968303427898
 20
-1589.627438466647
 30
0.0
 11
1017.968303427898
 21
-1542.792796815225
 31
0.0
  0
LINE
  5
19B
  8
VISIBLE
 10
1070.43562659194
 20
-1595.260119979267
 30
0.0
 11
1023.600984940517
 21
-1595.260119979267
 31
0.0
  0
LINE
  5
19C
  8
VISIBLE
 10
1040.951067278859
 20
-1534.897373602809
 30
0.0
 11
1038.167979055577
 21
-1534.897373602809
 31
0.0
  0
LINE
  5
19D
  8
VISIBLE
 10
1059.045216988666
 20
-1534.897373602809
 30
0.0
 11
1054.641135440454
 21
-1534.897373602809
 31
0.0
  0
LINE
  5
19E
  8
VISIBLE
 10
1038.167979055577
 20
-1534.897373602809
 30
0.0
 11
1038.456888114398
 21
-1534.614530890334
 31
0.0
  0
LINE
  5
19F
  8
VISIBLE
 10
1015.422719015627
 20
-1588.354646260512
 30
0.0
 11
1015.422719015627
 21
-1544.06558902136
 31
0.0
  0
LINE
  5
1A0
  8
VISIBLE
 10
1058.880500896158
 20
-1534.614530890334
 30
0.0
 11
1059.045216988666
 21
-1534.897373602809
 31
0.0
  0
LINE
  5
1A1
  8
VISIBLE
 10
1036.212062311868
 20
-1534.897373602809
 30
0.0
 11
1033.474687667032
 21
-1534.897373602809
 31
0.0
  0
LINE
  5
1A2
  8
VISIBLE
 10
1078.613892516831
 20
-1544.06558902136
 30
0.0
 11
1078.613892516831
 21
-1588.354646260512
 31
0.0
  0
LINE
  5
1A3
  8
VISIBLE
 10
1069.162834385804
 20
-1597.805704391538
 30
0.0
 11
1024.873777146653
 21
-1597.805704391538
 31
0.0
  0
LINE
  5
1A4
  8
VISIBLE
 10
1024.873777146653
 20
-1534.614530890334
 30
0.0
 11
1033.177988767812
 21
-1534.614530890334
 31
0.0
  0
LINE
  5
1A5
  8
VISIBLE
 10
1035.925659192003
 20
-1534.614530890334
 30
0.0
 11
1038.456888114398
 21
-1534.614530890334
 31
0.0
  0
LINE
  5
1A6
  8
VISIBLE
 10
1023.600984940517
 20
-1537.160115302606
 30
0.0
 11
1070.43562659194
 21
-1537.160115302606
 31
0.0
  0
LINE
  5
1A7
  8
VISIBLE
 10
1041.249636238288
 20
-1534.614530890334
 30
0.0
 11
1054.808205262103
 21
-1534.614530890334
 31
0.0
  0
LINE
  5
1A8
  8
VISIBLE
 10
1033.474687667032
 20
-1534.897373602809
 30
0.0
 11
1033.177988767812
 21
-1534.614530890334
 31
0.0
  0
LINE
  5
1A9
  8
VISIBLE
 10
1058.880500896158
 20
-1534.614530890334
 30
0.0
 11
1069.162834385804
 21
-1534.614530890334
 31
0.0
  0
LINE
  5
1AA
  8
VISIBLE
 10
1035.925659192003
 20
-1534.614530890334
 30
0.0
 11
1036.212062311868
 21
-1534.897373602809
 31
0.0
  0
LINE
  5
1AB
  8
VISIBLE
 10
1054.641135440454
 20
-1534.897373602809
 30
0.0
 11
1054.808205262103
 21
-1534.614530890334
 31
0.0
  0
LINE
  5
1AC
  8
VISIBLE
 10
1041.249636238288
 20
-1534.614530890334
 30
0.0
 11
1040.951067278859
 21
-1534.897373602809
 31
0.0
  0
ARC
  5
1AD
  8
VISIBLE
 10
1071.767043107758
 20
-1541.461380299407
 30
0.0
 40
3.867239415335324
 50
27.56764041112541
 51
62.4323595888746
  0
ARC
  5
1AE
  8
VISIBLE
 10
1022.2695684247
 20
-1541.461380299407
 30
0.0
 40
3.867239415335348
 50
117.5676404111254
 51
152.4323595888791
  0
ARC
  5
1AF
  8
VISIBLE
 10
1022.2695684247
 20
-1590.958854982465
 30
0.0
 40
3.867239415335324
 50
207.5676404111224
 51
242.4323595888776
  0
ARC
  5
1B0
  8
VISIBLE
 10
1022.2695684247
 20
-1590.958854982465
 30
0.0
 40
5.771961598583545
 50
213.4209522039655
 51
236.5790477960357
  0
ARC
  5
1B1
  8
VISIBLE
 10
1071.767043107758
 20
-1590.958854982465
 30
0.0
 40
5.771961598583561
 50
303.4209522039674
 51
326.5790477960326
  0
ARC
  5
1B2
  8
VISIBLE
 10
1071.767043107758
 20
-1541.461380299407
 30
0.0
 40
5.771961598583545
 50
33.42095220397054
 51
56.57904779603449
  0
ARC
  5
1B3
  8
VISIBLE
 10
1071.767043107758
 20
-1590.958854982465
 30
0.0
 40
3.867239415335348
 50
297.5676404111209
 51
332.4323595888746
  0
ARC
  5
1B4
  8
VISIBLE
 10
1022.2695684247
 20
-1541.461380299407
 30
0.0
 40
5.771961598583561
 50
123.4209522039643
 51
146.5790477960345
  0
POLYLINE
  5
1B5
  8
VISIBLE
 66
     1
 10
0.0
 20
0.0
 30
0.0
  0
VERTEX
  5
4E7
  8
VISIBLE
 10
1018.841395654119
 20
-1592.748595787881
 30
0.0
  0
VERTEX
  5
4E8
  8
VISIBLE
 10
1018.3618185529
 20
-1591.665364210897
 30
0.0
  0
VERTEX
  5
4E9
  8
VISIBLE
 10
1018.06751070973
 20
-1590.613263353943
 30
0.0
  0
VERTEX
  5
4EA
  8
VISIBLE
 10
1017.968303427898
 20
-1589.627438466647
 30
0.0
  0
SEQEND
  5
587
  8
VISIBLE
  0
POLYLINE
  5
1B6
  8
VISIBLE
 66
     1
 10
0.0
 20
0.0
 30
0.0
  0
VERTEX
  5
4EB
  8
VISIBLE
 10
1073.556783913173
 20
-1594.387027753047
 30
0.0
  0
VERTEX
  5
4EC
  8
VISIBLE
 10
1072.47355233619
 20
-1594.866604854265
 30
0.0
  0
VERTEX
  5
4ED
  8
VISIBLE
 10
1071.421451479235
 20
-1595.160912697435
 30
0.0
  0
VERTEX
  5
4EE
  8
VISIBLE
 10
1070.43562659194
 20
-1595.260119979266
 30
0.0
  0
SEQEND
  5
588
  8
VISIBLE
  0
POLYLINE
  5
1B7
  8
VISIBLE
 66
     1
 10
0.0
 20
0.0
 30
0.0
  0
VERTEX
  5
4EF
  8
VISIBLE
 10
1070.43562659194
 20
-1537.160115302606
 30
0.0
  0
VERTEX
  5
4F0
  8
VISIBLE
 10
1071.421451479235
 20
-1537.259322584437
 30
0.0
  0
VERTEX
  5
4F1
  8
VISIBLE
 10
1072.47355233619
 20
-1537.553630427607
 30
0.0
  0
VERTEX
  5
4F2
  8
VISIBLE
 10
1073.556783913173
 20
-1538.033207528826
 30
0.0
  0
SEQEND
  5
589
  8
VISIBLE
  0
POLYLINE
  5
1B8
  8
VISIBLE
 66
     1
 10
0.0
 20
0.0
 30
0.0
  0
VERTEX
  5
4F3
  8
VISIBLE
 10
1075.195215878339
 20
-1539.671639493992
 30
0.0
  0
VERTEX
  5
4F4
  8
VISIBLE
 10
1075.674792979558
 20
-1540.754871070975
 30
0.0
  0
VERTEX
  5
4F5
  8
VISIBLE
 10
1075.969100822728
 20
-1541.80697192793
 30
0.0
  0
VERTEX
  5
4F6
  8
VISIBLE
 10
1076.068308104559
 20
-1542.792796815225
 30
0.0
  0
SEQEND
  5
58A
  8
VISIBLE
  0
POLYLINE
  5
1B9
  8
VISIBLE
 66
     1
 10
0.0
 20
0.0
 30
0.0
  0
VERTEX
  5
4F7
  8
VISIBLE
 10
1076.068308104559
 20
-1589.627438466647
 30
0.0
  0
VERTEX
  5
4F8
  8
VISIBLE
 10
1075.969100822728
 20
-1590.613263353943
 30
0.0
  0
VERTEX
  5
4F9
  8
VISIBLE
 10
1075.674792979558
 20
-1591.665364210897
 30
0.0
  0
VERTEX
  5
4FA
  8
VISIBLE
 10
1075.195215878339
 20
-1592.748595787881
 30
0.0
  0
SEQEND
  5
58B
  8
VISIBLE
  0
POLYLINE
  5
1BA
  8
VISIBLE
 66
     1
 10
0.0
 20
0.0
 30
0.0
  0
VERTEX
  5
4FB
  8
VISIBLE
 10
1023.600984940517
 20
-1595.260119979266
 30
0.0
  0
VERTEX
  5
4FC
  8
VISIBLE
 10
1022.615160053222
 20
-1595.160912697435
 30
0.0
  0
VERTEX
  5
4FD
  8
VISIBLE
 10
1021.563059196268
 20
-1594.866604854265
 30
0.0
  0
VERTEX
  5
4FE
  8
VISIBLE
 10
1020.479827619284
 20
-1594.387027753047
 30
0.0
  0
SEQEND
  5
58C
  8
VISIBLE
  0
POLYLINE
  5
1BB
  8
VISIBLE
 66
     1
 10
0.0
 20
0.0
 30
0.0
  0
VERTEX
  5
4FF
  8
VISIBLE
 10
1017.968303427898
 20
-1542.792796815225
 30
0.0
  0
VERTEX
  5
500
  8
VISIBLE
 10
1018.06751070973
 20
-1541.80697192793
 30
0.0
  0
VERTEX
  5
501
  8
VISIBLE
 10
1018.3618185529
 20
-1540.754871070975
 30
0.0
  0
VERTEX
  5
502
  8
VISIBLE
 10
1018.841395654118
 20
-1539.671639493992
 30
0.0
  0
SEQEND
  5
58D
  8
VISIBLE
  0
POLYLINE
  5
1BC
  8
VISIBLE
 66
     1
 10
0.0
 20
0.0
 30
0.0
  0
VERTEX
  5
503
  8
VISIBLE
 10
1074.946158717432
 20
-1595.776402557306
 30
0.0
  0
VERTEX
  5
504
  8
VISIBLE
 10
1073.456712030018
 20
-1596.643139797889
 30
0.0
  0
VERTEX
  5
505
  8
VISIBLE
 10
1071.965672512782
 20
-1597.282231949423
 30
0.0
  0
VERTEX
  5
506
  8
VISIBLE
 10
1070.519392883419
 20
-1597.673811223201
 30
0.0
  0
VERTEX
  5
507
  8
VISIBLE
 10
1069.162834385804
 20
-1597.805704391538
 30
0.0
  0
SEQEND
  5
58E
  8
VISIBLE
  0
POLYLINE
  5
1BD
  8
VISIBLE
 66
     1
 10
0.0
 20
0.0
 30
0.0
  0
VERTEX
  5
508
  8
VISIBLE
 10
1069.162834385804
 20
-1534.614530890334
 30
0.0
  0
VERTEX
  5
509
  8
VISIBLE
 10
1070.519392883419
 20
-1534.746424058671
 30
0.0
  0
VERTEX
  5
50A
  8
VISIBLE
 10
1071.965672512782
 20
-1535.138003332449
 30
0.0
  0
VERTEX
  5
50B
  8
VISIBLE
 10
1073.456712030018
 20
-1535.777095483983
 30
0.0
  0
VERTEX
  5
50C
  8
VISIBLE
 10
1074.946158717432
 20
-1536.643832724567
 30
0.0
  0
SEQEND
  5
58F
  8
VISIBLE
  0
POLYLINE
  5
1BE
  8
VISIBLE
 66
     1
 10
0.0
 20
0.0
 30
0.0
  0
VERTEX
  5
50D
  8
VISIBLE
 10
1020.479827619284
 20
-1538.033207528826
 30
0.0
  0
VERTEX
  5
50E
  8
VISIBLE
 10
1021.563059196267
 20
-1537.553630427607
 30
0.0
  0
VERTEX
  5
50F
  8
VISIBLE
 10
1022.615160053222
 20
-1537.259322584437
 30
0.0
  0
VERTEX
  5
510
  8
VISIBLE
 10
1023.600984940517
 20
-1537.160115302606
 30
0.0
  0
SEQEND
  5
590
  8
VISIBLE
  0
POLYLINE
  5
1BF
  8
VISIBLE
 66
     1
 10
0.0
 20
0.0
 30
0.0
  0
VERTEX
  5
511
  8
VISIBLE
 10
1078.613892516831
 20
-1588.354646260512
 30
0.0
  0
VERTEX
  5
512
  8
VISIBLE
 10
1078.481999348494
 20
-1589.711204758126
 30
0.0
  0
VERTEX
  5
513
  8
VISIBLE
 10
1078.090420074715
 20
-1591.15748438749
 30
0.0
  0
VERTEX
  5
514
  8
VISIBLE
 10
1077.451327923182
 20
-1592.648523904725
 30
0.0
  0
VERTEX
  5
515
  8
VISIBLE
 10
1076.584590682598
 20
-1594.13797059214
 30
0.0
  0
SEQEND
  5
591
  8
VISIBLE
  0
POLYLINE
  5
1C0
  8
VISIBLE
 66
     1
 10
0.0
 20
0.0
 30
0.0
  0
VERTEX
  5
516
  8
VISIBLE
 10
1019.090452815025
 20
-1536.643832724567
 30
0.0
  0
VERTEX
  5
517
  8
VISIBLE
 10
1020.57989950244
 20
-1535.777095483983
 30
0.0
  0
VERTEX
  5
518
  8
VISIBLE
 10
1022.070939019676
 20
-1535.138003332449
 30
0.0
  0
VERTEX
  5
519
  8
VISIBLE
 10
1023.517218649039
 20
-1534.746424058671
 30
0.0
  0
VERTEX
  5
51A
  8
VISIBLE
 10
1024.873777146653
 20
-1534.614530890334
 30
0.0
  0
SEQEND
  5
592
  8
VISIBLE
  0
POLYLINE
  5
1C1
  8
VISIBLE
 66
     1
 10
0.0
 20
0.0
 30
0.0
  0
VERTEX
  5
51B
  8
VISIBLE
 10
1076.584590682598
 20
-1538.282264689733
 30
0.0
  0
VERTEX
  5
51C
  8
VISIBLE
 10
1077.451327923182
 20
-1539.771711377147
 30
0.0
  0
VERTEX
  5
51D
  8
VISIBLE
 10
1078.090420074716
 20
-1541.262750894383
 30
0.0
  0
VERTEX
  5
51E
  8
VISIBLE
 10
1078.481999348494
 20
-1542.709030523746
 30
0.0
  0
VERTEX
  5
51F
  8
VISIBLE
 10
1078.613892516831
 20
-1544.06558902136
 30
0.0
  0
SEQEND
  5
593
  8
VISIBLE
  0
POLYLINE
  5
1C2
  8
VISIBLE
 66
     1
 10
0.0
 20
0.0
 30
0.0
  0
VERTEX
  5
520
  8
VISIBLE
 10
1017.45202084986
 20
-1594.13797059214
 30
0.0
  0
VERTEX
  5
521
  8
VISIBLE
 10
1016.585283609276
 20
-1592.648523904725
 30
0.0
  0
VERTEX
  5
522
  8
VISIBLE
 10
1015.946191457742
 20
-1591.157484387489
 30
0.0
  0
VERTEX
  5
523
  8
VISIBLE
 10
1015.554612183964
 20
-1589.711204758126
 30
0.0
  0
VERTEX
  5
524
  8
VISIBLE
 10
1015.422719015627
 20
-1588.354646260512
 30
0.0
  0
SEQEND
  5
594
  8
VISIBLE
  0
POLYLINE
  5
1C3
  8
VISIBLE
 66
     1
 10
0.0
 20
0.0
 30
0.0
  0
VERTEX
  5
525
  8
VISIBLE
 10
1015.422719015627
 20
-1544.06558902136
 30
0.0
  0
VERTEX
  5
526
  8
VISIBLE
 10
1015.554612183964
 20
-1542.709030523746
 30
0.0
  0
VERTEX
  5
527
  8
VISIBLE
 10
1015.946191457742
 20
-1541.262750894383
 30
0.0
  0
VERTEX
  5
528
  8
VISIBLE
 10
1016.585283609276
 20
-1539.771711377147
 30
0.0
  0
VERTEX
  5
529
  8
VISIBLE
 10
1017.452020849859
 20
-1538.282264689733
 30
0.0
  0
SEQEND
  5
595
  8
VISIBLE
  0
POLYLINE
  5
1C4
  8
VISIBLE
 66
     1
 10
0.0
 20
0.0
 30
0.0
  0
VERTEX
  5
52A
  8
VISIBLE
 10
1024.873777146653
 20
-1597.805704391538
 30
0.0
  0
VERTEX
  5
52B
  8
VISIBLE
 10
1023.517218649039
 20
-1597.673811223201
 30
0.0
  0
VERTEX
  5
52C
  8
VISIBLE
 10
1022.070939019675
 20
-1597.282231949423
 30
0.0
  0
VERTEX
  5
52D
  8
VISIBLE
 10
1020.57989950244
 20
-1596.643139797889
 30
0.0
  0
VERTEX
  5
52E
  8
VISIBLE
 10
1019.090452815025
 20
-1595.776402557305
 30
0.0
  0
SEQEND
  5
596
  8
VISIBLE
  0
LINE
  5
1C5
  8
VISIBLE
 10
1614.010903556251
 20
-1635.691317640951
 30
0.0
 11
451.9609035562507
 21
-1635.691317640951
 31
0.0
  0
LINE
  5
1C6
  8
VISIBLE
 10
1614.010903556251
 20
-1633.191317640951
 30
0.0
 11
451.9609035562507
 21
-1633.191317640951
 31
0.0
  0
LINE
  5
1C7
  8
VISIBLE
 10
451.9609035562507
 20
-1633.191317640951
 30
0.0
 11
451.9609035562507
 21
-1635.691317640951
 31
0.0
  0
LINE
  5
1C8
  8
VISIBLE
 10
1614.010903556251
 20
-1635.691317640951
 30
0.0
 11
1614.010903556251
 21
-1633.191317640951
 31
0.0
  0
LINE
  5
1C9
  8
VISIBLE
 10
3451.638699264555
 20
-1542.792796818405
 30
0.0
 11
3451.638699264555
 21
-1589.627438469827
 31
0.0
  0
LINE
  5
1CA
  8
VISIBLE
 10
3393.538694587894
 20
-1589.627438469827
 30
0.0
 11
3393.538694587894
 21
-1542.792796818405
 31
0.0
  0
LINE
  5
1CB
  8
VISIBLE
 10
3446.006017751936
 20
-1595.260119982446
 30
0.0
 11
3399.171376100513
 21
-1595.260119982446
 31
0.0
  0
LINE
  5
1CC
  8
VISIBLE
 10
3416.521458438855
 20
-1534.897373605989
 30
0.0
 11
3413.738370215573
 21
-1534.897373605989
 31
0.0
  0
LINE
  5
1CD
  8
VISIBLE
 10
3434.615608148662
 20
-1534.897373605989
 30
0.0
 11
3430.21152660045
 21
-1534.897373605989
 31
0.0
  0
LINE
  5
1CE
  8
VISIBLE
 10
3413.738370215573
 20
-1534.897373605989
 30
0.0
 11
3414.027279274394
 21
-1534.614530893514
 31
0.0
  0
LINE
  5
1CF
  8
VISIBLE
 10
3411.782453471864
 20
-1534.897373605989
 30
0.0
 11
3409.045078827028
 21
-1534.897373605989
 31
0.0
  0
LINE
  5
1D0
  8
VISIBLE
 10
3434.450892056154
 20
-1534.614530893514
 30
0.0
 11
3434.615608148662
 21
-1534.897373605989
 31
0.0
  0
LINE
  5
1D1
  8
VISIBLE
 10
3390.993110175623
 20
-1588.354646263692
 30
0.0
 11
3390.993110175623
 21
-1544.06558902454
 31
0.0
  0
LINE
  5
1D2
  8
VISIBLE
 10
3454.184283676827
 20
-1544.06558902454
 30
0.0
 11
3454.184283676827
 21
-1588.354646263692
 31
0.0
  0
LINE
  5
1D3
  8
VISIBLE
 10
3411.496050351999
 20
-1534.614530893514
 30
0.0
 11
3414.027279274394
 21
-1534.614530893514
 31
0.0
  0
LINE
  5
1D4
  8
VISIBLE
 10
3399.171376100513
 20
-1537.160115305786
 30
0.0
 11
3446.006017751936
 21
-1537.160115305786
 31
0.0
  0
LINE
  5
1D5
  8
VISIBLE
 10
3416.820027398284
 20
-1534.614530893514
 30
0.0
 11
3430.378596422099
 21
-1534.614530893514
 31
0.0
  0
LINE
  5
1D6
  8
VISIBLE
 10
3409.045078827028
 20
-1534.897373605989
 30
0.0
 11
3408.748379927808
 21
-1534.614530893514
 31
0.0
  0
LINE
  5
1D7
  8
VISIBLE
 10
3434.450892056154
 20
-1534.614530893514
 30
0.0
 11
3444.7332255458
 21
-1534.614530893514
 31
0.0
  0
LINE
  5
1D8
  8
VISIBLE
 10
3411.496050351999
 20
-1534.614530893514
 30
0.0
 11
3411.782453471864
 21
-1534.897373605989
 31
0.0
  0
LINE
  5
1D9
  8
VISIBLE
 10
3444.7332255458
 20
-1597.805704394718
 30
0.0
 11
3400.444168306649
 21
-1597.805704394718
 31
0.0
  0
LINE
  5
1DA
  8
VISIBLE
 10
3400.444168306649
 20
-1534.614530893514
 30
0.0
 11
3408.748379927808
 21
-1534.614530893514
 31
0.0
  0
LINE
  5
1DB
  8
VISIBLE
 10
3430.21152660045
 20
-1534.897373605989
 30
0.0
 11
3430.378596422099
 21
-1534.614530893514
 31
0.0
  0
LINE
  5
1DC
  8
VISIBLE
 10
3416.820027398284
 20
-1534.614530893514
 30
0.0
 11
3416.521458438855
 21
-1534.897373605989
 31
0.0
  0
ARC
  5
1DD
  8
VISIBLE
 10
3447.337434267754
 20
-1541.461380302587
 30
0.0
 40
3.867239415335324
 50
27.56764041112541
 51
62.43235958888057
  0
ARC
  5
1DE
  8
VISIBLE
 10
3397.839959584696
 20
-1541.461380302587
 30
0.0
 40
3.867239415335348
 50
117.5676404111254
 51
152.4323595888776
  0
ARC
  5
1DF
  8
VISIBLE
 10
3397.839959584696
 20
-1590.958854985645
 30
0.0
 40
3.867239415335324
 50
207.5676404111224
 51
242.4323595888746
  0
ARC
  5
1E0
  8
VISIBLE
 10
3397.839959584696
 20
-1590.958854985645
 30
0.0
 40
5.771961598583545
 50
213.4209522039643
 51
236.5790477960345
  0
ARC
  5
1E1
  8
VISIBLE
 10
3447.337434267754
 20
-1590.958854985645
 30
0.0
 40
5.771961598583561
 50
303.4209522039643
 51
326.579047796027
  0
ARC
  5
1E2
  8
VISIBLE
 10
3447.337434267754
 20
-1541.461380302587
 30
0.0
 40
5.771961598583545
 50
33.42095220396865
 51
56.57904779603449
  0
ARC
  5
1E3
  8
VISIBLE
 10
3447.337434267754
 20
-1590.958854985645
 30
0.0
 40
3.867239415335348
 50
297.5676404111178
 51
332.4323595888746
  0
ARC
  5
1E4
  8
VISIBLE
 10
3397.839959584696
 20
-1541.461380302587
 30
0.0
 40
5.771961598583561
 50
123.4209522039655
 51
146.5790477960376
  0
POLYLINE
  5
1E5
  8
VISIBLE
 66
     1
 10
0.0
 20
0.0
 30
0.0
  0
VERTEX
  5
52F
  8
VISIBLE
 10
3394.411786814115
 20
-1592.74859579106
 30
0.0
  0
VERTEX
  5
530
  8
VISIBLE
 10
3393.932209712897
 20
-1591.665364214077
 30
0.0
  0
VERTEX
  5
531
  8
VISIBLE
 10
3393.637901869727
 20
-1590.613263357123
 30
0.0
  0
VERTEX
  5
532
  8
VISIBLE
 10
3393.538694587895
 20
-1589.627438469827
 30
0.0
  0
SEQEND
  5
597
  8
VISIBLE
  0
POLYLINE
  5
1E6
  8
VISIBLE
 66
     1
 10
0.0
 20
0.0
 30
0.0
  0
VERTEX
  5
533
  8
VISIBLE
 10
3399.171376100513
 20
-1595.260119982446
 30
0.0
  0
VERTEX
  5
534
  8
VISIBLE
 10
3398.185551213218
 20
-1595.160912700615
 30
0.0
  0
VERTEX
  5
535
  8
VISIBLE
 10
3397.133450356263
 20
-1594.866604857445
 30
0.0
  0
VERTEX
  5
536
  8
VISIBLE
 10
3396.05021877928
 20
-1594.387027756226
 30
0.0
  0
SEQEND
  5
598
  8
VISIBLE
  0
POLYLINE
  5
1E7
  8
VISIBLE
 66
     1
 10
0.0
 20
0.0
 30
0.0
  0
VERTEX
  5
537
  8
VISIBLE
 10
3393.538694587894
 20
-1542.792796818405
 30
0.0
  0
VERTEX
  5
538
  8
VISIBLE
 10
3393.637901869726
 20
-1541.80697193111
 30
0.0
  0
VERTEX
  5
539
  8
VISIBLE
 10
3393.932209712896
 20
-1540.754871074155
 30
0.0
  0
VERTEX
  5
53A
  8
VISIBLE
 10
3394.411786814115
 20
-1539.671639497172
 30
0.0
  0
SEQEND
  5
599
  8
VISIBLE
  0
POLYLINE
  5
1E8
  8
VISIBLE
 66
     1
 10
0.0
 20
0.0
 30
0.0
  0
VERTEX
  5
53B
  8
VISIBLE
 10
3449.127175073169
 20
-1594.387027756226
 30
0.0
  0
VERTEX
  5
53C
  8
VISIBLE
 10
3448.043943496186
 20
-1594.866604857445
 30
0.0
  0
VERTEX
  5
53D
  8
VISIBLE
 10
3446.991842639231
 20
-1595.160912700615
 30
0.0
  0
VERTEX
  5
53E
  8
VISIBLE
 10
3446.006017751936
 20
-1595.260119982446
 30
0.0
  0
SEQEND
  5
59A
  8
VISIBLE
  0
POLYLINE
  5
1E9
  8
VISIBLE
 66
     1
 10
0.0
 20
0.0
 30
0.0
  0
VERTEX
  5
53F
  8
VISIBLE
 10
3451.638699264555
 20
-1589.627438469827
 30
0.0
  0
VERTEX
  5
540
  8
VISIBLE
 10
3451.539491982724
 20
-1590.613263357122
 30
0.0
  0
VERTEX
  5
541
  8
VISIBLE
 10
3451.245184139554
 20
-1591.665364214077
 30
0.0
  0
VERTEX
  5
542
  8
VISIBLE
 10
3450.765607038335
 20
-1592.748595791061
 30
0.0
  0
SEQEND
  5
59B
  8
VISIBLE
  0
POLYLINE
  5
1EA
  8
VISIBLE
 66
     1
 10
0.0
 20
0.0
 30
0.0
  0
VERTEX
  5
543
  8
VISIBLE
 10
3446.006017751936
 20
-1537.160115305785
 30
0.0
  0
VERTEX
  5
544
  8
VISIBLE
 10
3446.991842639231
 20
-1537.259322587617
 30
0.0
  0
VERTEX
  5
545
  8
VISIBLE
 10
3448.043943496186
 20
-1537.553630430787
 30
0.0
  0
VERTEX
  5
546
  8
VISIBLE
 10
3449.127175073169
 20
-1538.033207532006
 30
0.0
  0
SEQEND
  5
59C
  8
VISIBLE
  0
POLYLINE
  5
1EB
  8
VISIBLE
 66
     1
 10
0.0
 20
0.0
 30
0.0
  0
VERTEX
  5
547
  8
VISIBLE
 10
3450.765607038335
 20
-1539.671639497171
 30
0.0
  0
VERTEX
  5
548
  8
VISIBLE
 10
3451.245184139554
 20
-1540.754871074155
 30
0.0
  0
VERTEX
  5
549
  8
VISIBLE
 10
3451.539491982724
 20
-1541.80697193111
 30
0.0
  0
VERTEX
  5
54A
  8
VISIBLE
 10
3451.638699264555
 20
-1542.792796818404
 30
0.0
  0
SEQEND
  5
59D
  8
VISIBLE
  0
POLYLINE
  5
1EC
  8
VISIBLE
 66
     1
 10
0.0
 20
0.0
 30
0.0
  0
VERTEX
  5
54B
  8
VISIBLE
 10
3452.154981842594
 20
-1538.282264692912
 30
0.0
  0
VERTEX
  5
54C
  8
VISIBLE
 10
3453.021719083178
 20
-1539.771711380327
 30
0.0
  0
VERTEX
  5
54D
  8
VISIBLE
 10
3453.660811234711
 20
-1541.262750897562
 30
0.0
  0
VERTEX
  5
54E
  8
VISIBLE
 10
3454.05239050849
 20
-1542.709030526926
 30
0.0
  0
VERTEX
  5
54F
  8
VISIBLE
 10
3454.184283676826
 20
-1544.06558902454
 30
0.0
  0
SEQEND
  5
59E
  8
VISIBLE
  0
POLYLINE
  5
1ED
  8
VISIBLE
 66
     1
 10
0.0
 20
0.0
 30
0.0
  0
VERTEX
  5
550
  8
VISIBLE
 10
3400.444168306649
 20
-1597.805704394718
 30
0.0
  0
VERTEX
  5
551
  8
VISIBLE
 10
3399.087609809035
 20
-1597.673811226381
 30
0.0
  0
VERTEX
  5
552
  8
VISIBLE
 10
3397.641330179672
 20
-1597.282231952602
 30
0.0
  0
VERTEX
  5
553
  8
VISIBLE
 10
3396.150290662436
 20
-1596.643139801069
 30
0.0
  0
VERTEX
  5
554
  8
VISIBLE
 10
3394.660843975021
 20
-1595.776402560485
 30
0.0
  0
SEQEND
  5
59F
  8
VISIBLE
  0
POLYLINE
  5
1EE
  8
VISIBLE
 66
     1
 10
0.0
 20
0.0
 30
0.0
  0
VERTEX
  5
555
  8
VISIBLE
 10
3390.993110175623
 20
-1544.06558902454
 30
0.0
  0
VERTEX
  5
556
  8
VISIBLE
 10
3391.12500334396
 20
-1542.709030526926
 30
0.0
  0
VERTEX
  5
557
  8
VISIBLE
 10
3391.516582617738
 20
-1541.262750897563
 30
0.0
  0
VERTEX
  5
558
  8
VISIBLE
 10
3392.155674769272
 20
-1539.771711380327
 30
0.0
  0
VERTEX
  5
559
  8
VISIBLE
 10
3393.022412009856
 20
-1538.282264692913
 30
0.0
  0
SEQEND
  5
5A0
  8
VISIBLE
  0
POLYLINE
  5
1EF
  8
VISIBLE
 66
     1
 10
0.0
 20
0.0
 30
0.0
  0
VERTEX
  5
55A
  8
VISIBLE
 10
3393.022412009856
 20
-1594.13797059532
 30
0.0
  0
VERTEX
  5
55B
  8
VISIBLE
 10
3392.155674769273
 20
-1592.648523907905
 30
0.0
  0
VERTEX
  5
55C
  8
VISIBLE
 10
3391.516582617739
 20
-1591.157484390669
 30
0.0
  0
VERTEX
  5
55D
  8
VISIBLE
 10
3391.12500334396
 20
-1589.711204761306
 30
0.0
  0
VERTEX
  5
55E
  8
VISIBLE
 10
3390.993110175623
 20
-1588.354646263692
 30
0.0
  0
SEQEND
  5
5A1
  8
VISIBLE
  0
POLYLINE
  5
1F0
  8
VISIBLE
 66
     1
 10
0.0
 20
0.0
 30
0.0
  0
VERTEX
  5
55F
  8
VISIBLE
 10
3450.516549877428
 20
-1595.776402560485
 30
0.0
  0
VERTEX
  5
560
  8
VISIBLE
 10
3449.027103190014
 20
-1596.643139801069
 30
0.0
  0
VERTEX
  5
561
  8
VISIBLE
 10
3447.536063672778
 20
-1597.282231952603
 30
0.0
  0
VERTEX
  5
562
  8
VISIBLE
 10
3446.089784043415
 20
-1597.673811226381
 30
0.0
  0
VERTEX
  5
563
  8
VISIBLE
 10
3444.7332255458
 20
-1597.805704394718
 30
0.0
  0
SEQEND
  5
5A2
  8
VISIBLE
  0
POLYLINE
  5
1F1
  8
VISIBLE
 66
     1
 10
0.0
 20
0.0
 30
0.0
  0
VERTEX
  5
564
  8
VISIBLE
 10
3444.7332255458
 20
-1534.614530893514
 30
0.0
  0
VERTEX
  5
565
  8
VISIBLE
 10
3446.089784043415
 20
-1534.746424061851
 30
0.0
  0
VERTEX
  5
566
  8
VISIBLE
 10
3447.536063672778
 20
-1535.138003335629
 30
0.0
  0
VERTEX
  5
567
  8
VISIBLE
 10
3449.027103190014
 20
-1535.777095487163
 30
0.0
  0
VERTEX
  5
568
  8
VISIBLE
 10
3450.516549877428
 20
-1536.643832727746
 30
0.0
  0
SEQEND
  5
5A3
  8
VISIBLE
  0
POLYLINE
  5
1F2
  8
VISIBLE
 66
     1
 10
0.0
 20
0.0
 30
0.0
  0
VERTEX
  5
569
  8
VISIBLE
 10
3396.05021877928
 20
-1538.033207532006
 30
0.0
  0
VERTEX
  5
56A
  8
VISIBLE
 10
3397.133450356263
 20
-1537.553630430787
 30
0.0
  0
VERTEX
  5
56B
  8
VISIBLE
 10
3398.185551213218
 20
-1537.259322587617
 30
0.0
  0
VERTEX
  5
56C
  8
VISIBLE
 10
3399.171376100513
 20
-1537.160115305786
 30
0.0
  0
SEQEND
  5
5A4
  8
VISIBLE
  0
POLYLINE
  5
1F3
  8
VISIBLE
 66
     1
 10
0.0
 20
0.0
 30
0.0
  0
VERTEX
  5
56D
  8
VISIBLE
 10
3394.660843975021
 20
-1536.643832727747
 30
0.0
  0
VERTEX
  5
56E
  8
VISIBLE
 10
3396.150290662436
 20
-1535.777095487163
 30
0.0
  0
VERTEX
  5
56F
  8
VISIBLE
 10
3397.641330179672
 20
-1535.138003335629
 30
0.0
  0
VERTEX
  5
570
  8
VISIBLE
 10
3399.087609809035
 20
-1534.746424061851
 30
0.0
  0
VERTEX
  5
571
  8
VISIBLE
 10
3400.444168306649
 20
-1534.614530893514
 30
0.0
  0
SEQEND
  5
5A5
  8
VISIBLE
  0
POLYLINE
  5
1F4
  8
VISIBLE
 66
     1
 10
0.0
 20
0.0
 30
0.0
  0
VERTEX
  5
572
  8
VISIBLE
 10
3454.184283676826
 20
-1588.354646263692
 30
0.0
  0
VERTEX
  5
573
  8
VISIBLE
 10
3454.05239050849
 20
-1589.711204761306
 30
0.0
  0
VERTEX
  5
574
  8
VISIBLE
 10
3453.660811234711
 20
-1591.15748439067
 30
0.0
  0
VERTEX
  5
575
  8
VISIBLE
 10
3453.021719083178
 20
-1592.648523907905
 30
0.0
  0
VERTEX
  5
576
  8
VISIBLE
 10
3452.154981842594
 20
-1594.13797059532
 30
0.0
  0
SEQEND
  5
5A6
  8
VISIBLE
  0
LINE
  5
1F5
  8
VISIBLE
 10
3388.001928332971
 20
-1607.89462318965
 30
0.0
 11
3396.009104146443
 21
-1629.894157930767
 31
0.0
  0
LINE
  5
1F6
  8
VISIBLE
 10
3390.58374208745
 20
-1606.216684980828
 30
0.0
 11
3398.109726761073
 21
-1626.894157930767
 31
0.0
  0
LINE
  5
1F7
  8
VISIBLE
 10
3397.888489388015
 20
-1631.210117644116
 30
0.0
 11
3447.288904464434
 21
-1631.210117644116
 31
0.0
  0
LINE
  5
1F8
  8
VISIBLE
 10
3399.989112002644
 20
-1628.210117644116
 30
0.0
 11
3445.188281849805
 21
-1628.210117644116
 31
0.0
  0
LINE
  5
1F9
  8
VISIBLE
 10
3449.168289706006
 20
-1629.894157930767
 30
0.0
 11
3457.175465519478
 21
-1607.89462318965
 31
0.0
  0
LINE
  5
1FA
  8
VISIBLE
 10
3447.067667091377
 20
-1626.894157930767
 30
0.0
 11
3454.593651765
 21
-1606.216684980828
 31
0.0
  0
ARC
  5
1FB
  8
VISIBLE
 10
3422.588696926225
 20
-1566.210117644116
 30
0.0
 40
50.0
 50
313.6325906046042
 51
226.3674093953962
  0
ARC
  5
1FC
  8
VISIBLE
 10
3422.588696926225
 20
-1566.210117644116
 30
0.0
 40
53.0
 50
314.2790770102733
 51
225.7209229897275
  0
ARC
  5
1FD
  8
VISIBLE
 10
3381.186815879591
 20
-1609.636886414085
 30
0.0
 40
10.0
 50
20.00000000000082
 51
46.36740939539602
  0
ARC
  5
1FE
  8
VISIBLE
 10
3378.605002125112
 20
-1611.314824622907
 30
0.0
 40
10.0
 50
19.99999999999959
 51
45.72092298972601
  0
ARC
  5
1FF
  8
VISIBLE
 10
3397.888489388015
 20
-1629.210117644116
 30
0.0
 40
2.0
 50
199.9999999999998
 51
270.0
  0
ARC
  5
200
  8
VISIBLE
 10
3399.989112002644
 20
-1626.210117644116
 30
0.0
 40
2.0
 50
199.9999999999998
 51
270.0
  0
ARC
  5
201
  8
VISIBLE
 10
3447.288904464434
 20
-1629.210117644116
 30
0.0
 40
2.0
 50
270.0
 51
340.0000000000047
  0
ARC
  5
202
  8
VISIBLE
 10
3445.188281849805
 20
-1626.210117644116
 30
0.0
 40
2.0
 50
270.0
 51
340.0000000000047
  0
ARC
  5
203
  8
VISIBLE
 10
3463.990577972859
 20
-1609.636886414085
 30
0.0
 40
10.0
 50
133.632590604604
 51
159.9999999999992
  0
ARC
  5
204
  8
VISIBLE
 10
3466.572391727338
 20
-1611.314824622907
 30
0.0
 40
10.0
 50
134.2790770102721
 51
160.0000000000004
  0
LINE
  5
205
  8
VISIBLE
 10
1081.60507435948
 20
1911.869974644633
 30
0.0
 11
1073.597898546008
 21
1933.86950938575
 31
0.0
  0
LINE
  5
206
  8
VISIBLE
 10
1079.023260605001
 20
1910.192036435812
 30
0.0
 11
1071.497275931379
 21
1930.86950938575
 31
0.0
  0
LINE
  5
207
  8
VISIBLE
 10
1071.718513304436
 20
1935.185469099099
 30
0.0
 11
1022.318098228017
 21
1935.185469099099
 31
0.0
  0
LINE
  5
208
  8
VISIBLE
 10
1069.617890689807
 20
1932.185469099099
 30
0.0
 11
1024.418720842646
 21
1932.185469099099
 31
0.0
  0
LINE
  5
209
  8
VISIBLE
 10
1020.438712986445
 20
1933.86950938575
 30
0.0
 11
1012.431537172973
 21
1911.869974644633
 31
0.0
  0
LINE
  5
20A
  8
VISIBLE
 10
1022.539335601074
 20
1930.86950938575
 30
0.0
 11
1015.013350927452
 21
1910.192036435811
 31
0.0
  0
ARC
  5
20B
  8
VISIBLE
 10
1047.018305766227
 20
1870.185469099099
 30
0.0
 40
50.0
 50
133.6325906046042
 51
46.36740939539622
  0
ARC
  5
20C
  8
VISIBLE
 10
1047.018305766227
 20
1870.185469099099
 30
0.0
 40
53.0
 50
134.2790770102729
 51
45.72092298972727
  0
ARC
  5
20D
  8
VISIBLE
 10
1088.420186812861
 20
1913.612237869068
 30
0.0
 40
10.0
 50
200.0000000000008
 51
226.367409395396
  0
ARC
  5
20E
  8
VISIBLE
 10
1091.00200056734
 20
1915.29017607789
 30
0.0
 40
10.0
 50
199.9999999999996
 51
225.7209229897269
  0
ARC
  5
20F
  8
VISIBLE
 10
1071.718513304436
 20
1933.185469099099
 30
0.0
 40
2.0
 50
19.99999999999759
 51
90.0
  0
ARC
  5
210
  8
VISIBLE
 10
1069.617890689807
 20
1930.185469099099
 30
0.0
 40
2.0
 50
19.99999999999759
 51
90.0
  0
ARC
  5
211
  8
VISIBLE
 10
1022.318098228017
 20
1933.185469099099
 30
0.0
 40
2.0
 50
90.0
 51
160.0000000000047
  0
ARC
  5
212
  8
VISIBLE
 10
1024.418720842646
 20
1930.185469099099
 30
0.0
 40
2.0
 50
90.0
 51
160.0000000000047
  0
ARC
  5
213
  8
VISIBLE
 10
1005.616424719593
 20
1913.612237869068
 30
0.0
 40
10.0
 50
313.632590604604
 51
340.0000000000005
  0
ARC
  5
214
  8
VISIBLE
 10
1003.034610965114
 20
1915.29017607789
 30
0.0
 40
10.0
 50
314.2790770102731
 51
340.0000000000005
  0
LINE
  5
215
  8
VISIBLE
 10
3457.17546551948
 20
1911.869974644643
 30
0.0
 11
3449.168289706008
 21
1933.86950938576
 31
0.0
  0
LINE
  5
216
  8
VISIBLE
 10
3454.593651765001
 20
1910.192036435821
 30
0.0
 11
3447.067667091379
 21
1930.86950938576
 31
0.0
  0
LINE
  5
217
  8
VISIBLE
 10
3447.288904464436
 20
1935.185469099109
 30
0.0
 11
3397.888489388017
 21
1935.185469099109
 31
0.0
  0
LINE
  5
218
  8
VISIBLE
 10
3445.188281849807
 20
1932.185469099109
 30
0.0
 11
3399.989112002646
 21
1932.185469099109
 31
0.0
  0
LINE
  5
219
  8
VISIBLE
 10
3396.009104146445
 20
1933.86950938576
 30
0.0
 11
3388.001928332973
 21
1911.869974644643
 31
0.0
  0
LINE
  5
21A
  8
VISIBLE
 10
3398.109726761074
 20
1930.86950938576
 30
0.0
 11
3390.583742087451
 21
1910.192036435821
 31
0.0
  0
ARC
  5
21B
  8
VISIBLE
 10
3422.588696926226
 20
1870.185469099109
 30
0.0
 40
50.0
 50
133.6325906046042
 51
46.36740939539641
  0
ARC
  5
21C
  8
VISIBLE
 10
3422.588696926226
 20
1870.185469099109
 30
0.0
 40
53.0
 50
134.2790770102729
 51
45.72092298972745
  0
ARC
  5
21D
  8
VISIBLE
 10
3463.99057797286
 20
1913.612237869078
 30
0.0
 40
10.0
 50
200.000000000002
 51
226.367409395396
  0
ARC
  5
21E
  8
VISIBLE
 10
3466.572391727339
 20
1915.2901760779
 30
0.0
 40
10.0
 50
199.9999999999996
 51
225.7209229897279
  0
ARC
  5
21F
  8
VISIBLE
 10
3447.288904464436
 20
1933.185469099109
 30
0.0
 40
2.0
 50
19.99999999999536
 51
90.0
  0
ARC
  5
220
  8
VISIBLE
 10
3445.188281849807
 20
1930.185469099109
 30
0.0
 40
2.0
 50
19.99999999999536
 51
90.0
  0
ARC
  5
221
  8
VISIBLE
 10
3397.888489388017
 20
1933.185469099109
 30
0.0
 40
2.0
 50
90.0
 51
160.0000000000047
  0
ARC
  5
222
  8
VISIBLE
 10
3399.989112002646
 20
1930.185469099109
 30
0.0
 40
2.0
 50
90.0
 51
160.0000000000047
  0
ARC
  5
223
  8
VISIBLE
 10
3381.186815879592
 20
1913.612237869078
 30
0.0
 40
10.0
 50
313.6325906046048
 51
340.0000000000005
  0
ARC
  5
224
  8
VISIBLE
 10
3378.605002125114
 20
1915.2901760779
 30
0.0
 40
10.0
 50
314.2790770102721
 51
340.0000000000005
  0
LINE
  5
225
  8
VISIBLE
 10
2178.250951119904
 20
130.1093559997619
 30
0.0
 11
2169.270694998835
 21
139.0896121208309
 31
0.0
  0
LINE
  5
226
  8
VISIBLE
 10
2180.01871807287
 20
131.8771229527283
 30
0.0
 11
2171.038461951801
 21
140.8573790737973
 31
0.0
  0
LINE
  5
227
  8
VISIBLE
 10
2178.250951119904
 20
130.1093559997619
 30
0.0
 11
2180.01871807287
 21
131.8771229527283
 31
0.0
  0
LINE
  5
228
  8
VISIBLE
 10
2168.695958607086
 20
141.8276757290825
 30
0.0
 11
2161.075958607086
 21
141.8276757290824
 31
0.0
  0
LINE
  5
229
  8
VISIBLE
 10
2193.438665667067
 20
114.9216414525993
 30
0.0
 11
2187.139698116704
 21
121.2206090029617
 31
0.0
  0
LINE
  5
22A
  8
VISIBLE
 10
2187.139698116704
 20
121.2206090029617
 30
0.0
 11
2188.907465069671
 21
122.9883759559281
 31
0.0
  0
LINE
  5
22B
  8
VISIBLE
 10
2204.036434620112
 20
104.3238724995546
 30
0.0
 11
2197.73746706975
 21
110.6228400499169
 31
0.0
  0
LINE
  5
22C
  8
VISIBLE
 10
2205.804201573078
 20
106.091639452521
 30
0.0
 11
2199.505234022716
 21
112.3906070028833
 31
0.0
  0
LINE
  5
22D
  8
VISIBLE
 10
2161.075958607086
 20
141.8276757290824
 30
0.0
 11
2161.075958607086
 21
139.3276757290823
 31
0.0
  0
LINE
  5
22E
  8
VISIBLE
 10
2195.206432620033
 20
116.6894084055657
 30
0.0
 11
2188.907465069671
 21
122.9883759559281
 31
0.0
  0
LINE
  5
22F
  8
VISIBLE
 10
2205.804201573078
 20
106.091639452521
 30
0.0
 11
2204.036434620112
 21
104.3238724995546
 31
0.0
  0
LINE
  5
230
  8
VISIBLE
 10
2221.905437737982
 20
86.45486938168536
 30
0.0
 11
2212.925181616912
 21
95.43512550275436
 31
0.0
  0
LINE
  5
231
  8
VISIBLE
 10
2224.643501346233
 20
78.26013298993692
 30
0.0
 11
2224.643501346233
 21
85.88013298993694
 31
0.0
  0
LINE
  5
232
  8
VISIBLE
 10
2222.143501346233
 20
78.26013298993692
 30
0.0
 11
2222.143501346233
 21
85.88013298993694
 31
0.0
  0
LINE
  5
233
  8
VISIBLE
 10
2223.673204690948
 20
88.22263633465178
 30
0.0
 11
2214.692948569879
 21
97.20289245572076
 31
0.0
  0
LINE
  5
234
  8
VISIBLE
 10
2222.143501346233
 20
78.26013298993692
 30
0.0
 11
2224.643501346233
 21
78.26013298993692
 31
0.0
  0
LINE
  5
235
  8
VISIBLE
 10
2214.692948569879
 20
97.20289245572076
 30
0.0
 11
2212.925181616912
 21
95.43512550275436
 31
0.0
  0
LINE
  5
236
  8
VISIBLE
 10
2199.505234022716
 20
112.3906070028833
 30
0.0
 11
2197.73746706975
 21
110.6228400499169
 31
0.0
  0
LINE
  5
237
  8
VISIBLE
 10
2193.438665667067
 20
114.9216414525993
 30
0.0
 11
2195.206432620033
 21
116.6894084055657
 31
0.0
  0
LINE
  5
238
  8
VISIBLE
 10
2168.695958607086
 20
139.3276757290825
 30
0.0
 11
2161.075958607086
 21
139.3276757290823
 31
0.0
  0
ARC
  5
239
  8
VISIBLE
 10
2168.695958607086
 20
138.5148757290825
 30
0.0
 40
0.8128000000000001
 50
44.99999999999859
 51
90.0
  0
ARC
  5
23A
  8
VISIBLE
 10
2168.695958607086
 20
138.5148757290825
 30
0.0
 40
3.3128
 50
45.00000000000174
 51
90.0
  0
ARC
  5
23B
  8
VISIBLE
 10
2221.330701346233
 20
85.88013298993694
 30
0.0
 40
3.3128
 50
0.0000000000002458
 51
45.00000000000139
  0
ARC
  5
23C
  8
VISIBLE
 10
2221.330701346233
 20
85.88013298993694
 30
0.0
 40
0.8128000000000001
 50
0.0000000000010017
 51
44.99999999999575
  0
LINE
  5
23D
  8
VISIBLE
 10
996.8642215289183
 20
719.3850494527406
 30
0.0
 11
1011.727145994841
 21
704.5221249868174
 31
0.0
  0
LINE
  5
23E
  8
VISIBLE
 10
1011.727145994841
 20
704.5221249868174
 30
0.0
 11
1009.959379041875
 21
702.7543580338512
 31
0.0
  0
LINE
  5
23F
  8
VISIBLE
 10
995.0964545759521
 20
717.6172824997743
 30
0.0
 11
1009.959379041875
 21
702.7543580338512
 31
0.0
  0
LINE
  5
240
  8
VISIBLE
 10
1039.719451862562
 20
678.182186245372
 30
0.0
 11
1046.105757467525
 21
684.5684918503374
 31
0.0
  0
LINE
  5
241
  8
VISIBLE
 10
1037.951684909596
 20
679.9499531983383
 30
0.0
 11
1044.33799051456
 21
686.3362588033032
 31
0.0
  0
LINE
  5
242
  8
VISIBLE
 10
1044.33799051456
 20
686.3362588033032
 30
0.0
 11
1046.105757467525
 21
684.5684918503374
 31
0.0
  0
LINE
  5
243
  8
VISIBLE
 10
1029.913012178355
 20
686.3362588033037
 30
0.0
 11
1028.145245225389
 21
684.5684918503374
 31
0.0
  0
LINE
  5
244
  8
VISIBLE
 10
1029.913012178355
 20
686.3362588033037
 30
0.0
 11
1036.299317783319
 21
679.9499531983377
 31
0.0
  0
LINE
  5
245
  8
VISIBLE
 10
1028.145245225389
 20
684.5684918503374
 30
0.0
 11
1034.531550830354
 21
678.1821862453727
 31
0.0
  0
LINE
  5
246
  8
VISIBLE
 10
1062.523856698073
 20
704.5221249868174
 30
0.0
 11
1064.29162365104
 21
702.7543580338505
 31
0.0
  0
LINE
  5
247
  8
VISIBLE
 10
1064.29162365104
 20
702.7543580338505
 30
0.0
 11
1079.154548116963
 21
717.6172824997732
 31
0.0
  0
LINE
  5
248
  8
VISIBLE
 10
1062.523856698073
 20
704.5221249868174
 30
0.0
 11
1077.386781163997
 21
719.3850494527395
 31
0.0
  0
LINE
  5
249
  8
VISIBLE
 10
996.8642215289183
 20
719.3850494527406
 30
0.0
 11
995.0964545759521
 21
717.6172824997743
 31
0.0
  0
LINE
  5
24A
  8
VISIBLE
 10
1079.154548116963
 20
717.6172824997732
 30
0.0
 11
1077.386781163997
 21
719.3850494527395
 31
0.0
  0
ARC
  5
24B
  8
VISIBLE
 10
1037.125501346457
 20
680.7761367614767
 30
0.0
 40
3.6684
 50
225.0000000000038
 51
315.0000000000013
  0
ARC
  5
24C
  8
VISIBLE
 10
1037.125501346457
 20
680.7761367614767
 30
0.0
 40
1.1684
 50
225.0000000000354
 51
315.0
  0
LINE
  5
24D
  8
VISIBLE
 10
3407.083145994618
 20
-400.5467735284682
 30
0.0
 11
3405.315379041651
 21
-398.7790065755014
 31
0.0
  0
LINE
  5
24E
  8
VISIBLE
 10
3405.315379041651
 20
-398.7790065755014
 30
0.0
 11
3390.452454575727
 21
-413.641931041424
 31
0.0
  0
LINE
  5
24F
  8
VISIBLE
 10
3407.083145994618
 20
-400.5467735284682
 30
0.0
 11
3392.220221528693
 21
-415.4096979943903
 31
0.0
  0
LINE
  5
250
  8
VISIBLE
 10
3429.887550830128
 20
-374.2068347870228
 30
0.0
 11
3423.501245225165
 21
-380.5931403919882
 31
0.0
  0
LINE
  5
251
  8
VISIBLE
 10
3431.655317783095
 20
-375.9746017399891
 30
0.0
 11
3425.269012178131
 21
-382.3609073449539
 31
0.0
  0
LINE
  5
252
  8
VISIBLE
 10
3425.269012178131
 20
-382.3609073449539
 30
0.0
 11
3423.501245225165
 21
-380.5931403919882
 31
0.0
  0
LINE
  5
253
  8
VISIBLE
 10
3439.693990514335
 20
-382.3609073449545
 30
0.0
 11
3441.461757467301
 21
-380.5931403919882
 31
0.0
  0
LINE
  5
254
  8
VISIBLE
 10
3439.693990514335
 20
-382.3609073449545
 30
0.0
 11
3433.307684909371
 21
-375.9746017399884
 31
0.0
  0
LINE
  5
255
  8
VISIBLE
 10
3441.461757467301
 20
-380.5931403919882
 30
0.0
 11
3435.075451862337
 21
-374.2068347870236
 31
0.0
  0
LINE
  5
256
  8
VISIBLE
 10
3472.742781163772
 20
-415.4096979943914
 30
0.0
 11
3457.879856697849
 21
-400.5467735284682
 31
0.0
  0
LINE
  5
257
  8
VISIBLE
 10
3457.879856697849
 20
-400.5467735284682
 30
0.0
 11
3459.647623650815
 21
-398.7790065755021
 31
0.0
  0
LINE
  5
258
  8
VISIBLE
 10
3474.510548116738
 20
-413.6419310414251
 30
0.0
 11
3459.647623650815
 21
-398.7790065755021
 31
0.0
  0
LINE
  5
259
  8
VISIBLE
 10
3390.452454575727
 20
-413.641931041424
 30
0.0
 11
3392.220221528693
 21
-415.4096979943903
 31
0.0
  0
LINE
  5
25A
  8
VISIBLE
 10
3472.742781163772
 20
-415.4096979943914
 30
0.0
 11
3474.510548116738
 21
-413.6419310414251
 31
0.0
  0
ARC
  5
25B
  8
VISIBLE
 10
3432.481501346233
 20
-376.8007853031274
 30
0.0
 40
3.6684
 50
44.99999999999937
 51
134.9999999999987
  0
ARC
  5
25C
  8
VISIBLE
 10
3432.481501346233
 20
-376.8007853031274
 30
0.0
 40
1.1684
 50
45.00000000001972
 51
134.999999999998
  0
LINE
  5
25D
  8
VISIBLE
 10
3435.075451862336
 20
678.1821862451908
 30
0.0
 11
3441.461757467299
 21
684.5684918501562
 31
0.0
  0
LINE
  5
25E
  8
VISIBLE
 10
3433.30768490937
 20
679.9499531981571
 30
0.0
 11
3439.693990514334
 21
686.336258803122
 31
0.0
  0
LINE
  5
25F
  8
VISIBLE
 10
3439.693990514334
 20
686.336258803122
 30
0.0
 11
3441.461757467299
 21
684.5684918501562
 31
0.0
  0
LINE
  5
260
  8
VISIBLE
 10
3425.269012178129
 20
686.3362588031225
 30
0.0
 11
3423.501245225163
 21
684.5684918501562
 31
0.0
  0
LINE
  5
261
  8
VISIBLE
 10
3425.269012178129
 20
686.3362588031225
 30
0.0
 11
3431.655317783093
 21
679.9499531981564
 31
0.0
  0
LINE
  5
262
  8
VISIBLE
 10
3423.501245225163
 20
684.5684918501562
 30
0.0
 11
3429.887550830128
 21
678.1821862451916
 31
0.0
  0
LINE
  5
263
  8
VISIBLE
 10
3392.220221528692
 20
719.3850494525594
 30
0.0
 11
3407.083145994615
 21
704.5221249866363
 31
0.0
  0
LINE
  5
264
  8
VISIBLE
 10
3407.083145994615
 20
704.5221249866363
 30
0.0
 11
3405.315379041649
 21
702.7543580336701
 31
0.0
  0
LINE
  5
265
  8
VISIBLE
 10
3390.452454575726
 20
717.6172824995931
 30
0.0
 11
3405.315379041649
 21
702.7543580336701
 31
0.0
  0
LINE
  5
266
  8
VISIBLE
 10
3457.879856697847
 20
704.5221249866363
 30
0.0
 11
3459.647623650814
 21
702.7543580336694
 31
0.0
  0
LINE
  5
267
  8
VISIBLE
 10
3459.647623650814
 20
702.7543580336694
 30
0.0
 11
3474.510548116737
 21
717.617282499592
 31
0.0
  0
LINE
  5
268
  8
VISIBLE
 10
3457.879856697847
 20
704.5221249866363
 30
0.0
 11
3472.742781163771
 21
719.3850494525583
 31
0.0
  0
LINE
  5
269
  8
VISIBLE
 10
3392.220221528692
 20
719.3850494525594
 30
0.0
 11
3390.452454575726
 21
717.6172824995931
 31
0.0
  0
LINE
  5
26A
  8
VISIBLE
 10
3474.510548116737
 20
717.617282499592
 30
0.0
 11
3472.742781163771
 21
719.3850494525583
 31
0.0
  0
ARC
  5
26B
  8
VISIBLE
 10
3432.481501346231
 20
680.7761367612954
 30
0.0
 40
3.6684
 50
225.000000000005
 51
315.0000000000038
  0
ARC
  5
26C
  8
VISIBLE
 10
3432.481501346231
 20
680.7761367612954
 30
0.0
 40
1.1684
 50
225.0000000000354
 51
315.0
  0
LINE
  5
26D
  8
VISIBLE
 10
403.7869079761961
 20
1937.16666909907
 30
0.0
 11
448.6245079761954
 21
1937.166669099069
 31
0.0
  0
LINE
  5
26E
  8
VISIBLE
 10
402.8057079761959
 20
1935.18546909907
 30
0.0
 11
444.1445079761959
 21
1935.185469099069
 31
0.0
  0
LINE
  5
26F
  8
VISIBLE
 10
449.6057079761979
 20
1985.985469099069
 30
0.0
 11
402.8057079761979
 21
1985.98546909907
 31
0.0
  0
LINE
  5
270
  8
VISIBLE
 10
448.6245079761975
 20
1984.004269099069
 30
0.0
 11
403.7869079761977
 21
1984.00426909907
 31
0.0
  0
LINE
  5
271
  8
VISIBLE
 10
400.8057079761975
 20
1983.985469099072
 30
0.0
 11
400.8057079761963
 21
1937.185469099072
 31
0.0
  0
LINE
  5
272
  8
VISIBLE
 10
451.6057079761963
 20
1937.666669099069
 30
0.0
 11
451.6057079761958
 21
1939.665469099069
 31
0.0
  0
LINE
  5
273
  8
VISIBLE
 10
445.5250004730676
 20
1929.048680880893
 30
0.0
 11
446.5352839983416
 21
1930.49151528376
 31
0.0
  0
LINE
  5
274
  8
VISIBLE
 10
457.7424961943716
 20
1941.266176602201
 30
0.0
 11
456.2996617915046
 21
1940.255893076924
 31
0.0
  0
LINE
  5
275
  8
VISIBLE
 10
449.6245079761961
 20
1938.166669099069
 30
0.0
 11
449.6245079761975
 21
1983.004269099069
 31
0.0
  0
LINE
  5
276
  8
VISIBLE
 10
402.7869079761967
 20
1983.00426909907
 30
0.0
 11
402.7869079761956
 21
1938.16666909907
 31
0.0
  0
LINE
  5
277
  8
VISIBLE
 10
451.605707976197
 20
1942.646669099069
 30
0.0
 11
451.6057079761974
 21
1983.985469099069
 31
0.0
  0
LINE
  5
278
  8
VISIBLE
 10
449.7149319540526
 20
1930.491515283761
 30
0.0
 11
450.7252154793302
 21
1929.048680880893
 31
0.0
  0
LINE
  5
279
  8
VISIBLE
 10
457.7424961943711
 20
1936.065961595938
 30
0.0
 11
456.2996617915044
 21
1937.076245121214
 31
0.0
  0
LINE
  5
27A
  8
VISIBLE
 10
452.1057079761958
 20
1940.165469099069
 30
0.0
 11
456.012873573329
 21
1940.165469099069
 31
0.0
  0
LINE
  5
27B
  8
VISIBLE
 10
452.1057079761961
 20
1942.146669099069
 30
0.0
 11
457.455707976196
 21
1942.146669099069
 31
0.0
  0
LINE
  5
27C
  8
VISIBLE
 10
447.1257079761958
 20
1935.185469099069
 30
0.0
 11
449.1245079761959
 21
1935.185469099069
 31
0.0
  0
LINE
  5
27D
  8
VISIBLE
 10
446.6257079761958
 20
1934.685469099069
 30
0.0
 11
446.625707976197
 21
1930.778303501936
 31
0.0
  0
LINE
  5
27E
  8
VISIBLE
 10
444.6445079761954
 20
1934.685469099069
 30
0.0
 11
444.6445079761972
 21
1929.335469099069
 31
0.0
  0
LINE
  5
27F
  8
VISIBLE
 10
452.1057079761956
 20
1935.185469099069
 30
0.0
 11
457.455707976196
 21
1935.185469099069
 31
0.0
  0
LINE
  5
280
  8
VISIBLE
 10
451.6057079761986
 20
1929.335469099069
 30
0.0
 11
451.605707976197
 21
1934.685469099069
 31
0.0
  0
LINE
  5
281
  8
VISIBLE
 10
449.6245079761954
 20
1930.778303501936
 30
0.0
 11
449.6245079761959
 21
1934.685469099069
 31
0.0
  0
LINE
  5
282
  8
VISIBLE
 10
452.1057079761958
 20
1937.166669099069
 30
0.0
 11
456.012873573329
 21
1937.166669099069
 31
0.0
  0
ARC
  5
283
  8
VISIBLE
 10
444.1445079761959
 20
1934.685469099069
 30
0.0
 40
0.5
 50
0.0
 51
90.0
  0
ARC
  5
284
  8
VISIBLE
 10
445.115424450923
 20
1929.335469099069
 30
0.0
 40
0.5
 50
271.6665982568028
 51
325.0000000000208
  0
ARC
  5
285
  8
VISIBLE
 10
403.7869079761977
 20
1983.00426909907
 30
0.0
 40
1.0
 50
90.0
 51
180.0
  0
ARC
  5
286
  8
VISIBLE
 10
403.7869079761961
 20
1938.16666909907
 30
0.0
 40
1.0
 50
180.0
 51
270.0
  0
ARC
  5
287
  8
VISIBLE
 10
452.1057079761965
 20
1942.646669099069
 30
0.0
 40
0.5
 50
180.0
 51
269.9999999999479
  0
ARC
  5
288
  8
VISIBLE
 10
457.455707976196
 20
1941.675752624345
 30
0.0
 40
0.5
 50
305.0000000000155
 51
358.3334017428846
  0
ARC
  5
289
  8
VISIBLE
 10
457.4557079761958
 20
1935.656385573793
 30
0.0
 40
0.5
 50
1.666598257089368
 51
55.00000000002079
  0
ARC
  5
28A
  8
VISIBLE
 10
456.012873573329
 20
1936.666669099069
 30
0.0
 40
0.5
 50
55.00000000002079
 51
90.0
  0
ARC
  5
28B
  8
VISIBLE
 10
452.1057079761958
 20
1937.666669099069
 30
0.0
 40
0.5
 50
180.0
 51
270.0
  0
ARC
  5
28C
  8
VISIBLE
 10
457.455707976196
 20
1941.646669099069
 30
0.0
 40
0.5
 50
1.666598257089368
 51
90.0
  0
ARC
  5
28D
  8
VISIBLE
 10
451.1057079761986
 20
1929.335469099069
 30
0.0
 40
0.5
 50
271.6665982568028
 51
0.0
  0
ARC
  5
28E
  8
VISIBLE
 10
457.4557079761958
 20
1935.685469099069
 30
0.0
 40
0.5
 50
270.000000000026
 51
358.3334017429107
  0
ARC
  5
28F
  8
VISIBLE
 10
456.0128735733292
 20
1940.665469099069
 30
0.0
 40
0.5
 50
269.999999999974
 51
304.9999999999792
  0
ARC
  5
290
  8
VISIBLE
 10
452.1057079761958
 20
1939.665469099069
 30
0.0
 40
0.5
 50
90.0
 51
180.0
  0
ARC
  5
291
  8
VISIBLE
 10
451.1347915014746
 20
1929.335469099069
 30
0.0
 40
0.5
 50
214.9999999999792
 51
268.3334017425981
  0
ARC
  5
292
  8
VISIBLE
 10
448.6245079761959
 20
1938.166669099069
 30
0.0
 40
1.0
 50
269.999999999974
 51
0.0
  0
ARC
  5
293
  8
VISIBLE
 10
450.1245079761973
 20
1930.778303501936
 30
0.0
 40
0.5
 50
180.0
 51
214.9999999999792
  0
ARC
  5
294
  8
VISIBLE
 10
446.1257079761974
 20
1930.778303501936
 30
0.0
 40
0.5
 50
324.9999999999632
 51
0.0
  0
ARC
  5
295
  8
VISIBLE
 10
449.1245079761959
 20
1934.685469099069
 30
0.0
 40
0.5
 50
0.0
 51
90.0
  0
ARC
  5
296
  8
VISIBLE
 10
445.1445079761988
 20
1929.335469099069
 30
0.0
 40
0.5
 50
180.0
 51
268.3334017426242
  0
ARC
  5
297
  8
VISIBLE
 10
402.8057079761959
 20
1937.18546909907
 30
0.0
 40
2.0
 50
180.0
 51
270.0
  0
ARC
  5
298
  8
VISIBLE
 10
402.8057079761975
 20
1983.98546909907
 30
0.0
 40
2.0
 50
89.99999999998697
 51
180.0
  0
ARC
  5
299
  8
VISIBLE
 10
448.6245079761975
 20
1983.004269099069
 30
0.0
 40
1.0
 50
0.0
 51
90.0
  0
ARC
  5
29A
  8
VISIBLE
 10
447.1257079761958
 20
1934.685469099069
 30
0.0
 40
0.5
 50
90.0
 51
180.0
  0
ARC
  5
29B
  8
VISIBLE
 10
449.6057079761974
 20
1983.985469099069
 30
0.0
 40
2.0
 50
0.0
 51
89.99999999998697
  0
ARC
  5
29C
  8
VISIBLE
 10
452.1057079761958
 20
1934.685469099069
 30
0.0
 40
0.5
 50
90.00000000002606
 51
180.0
  0
LINE
  5
29D
  8
VISIBLE
 10
4019.982494716227
 20
1983.004269099109
 30
0.0
 11
4019.982494716226
 21
1938.166669099109
 31
0.0
  0
LINE
  5
29E
  8
VISIBLE
 10
4018.001294716227
 20
1983.985469099109
 30
0.0
 11
4018.001294716226
 21
1942.646669099109
 31
0.0
  0
LINE
  5
29F
  8
VISIBLE
 10
4068.801294716226
 20
1937.185469099107
 30
0.0
 11
4068.801294716227
 21
1983.985469099107
 31
0.0
  0
LINE
  5
2A0
  8
VISIBLE
 10
4066.820094716226
 20
1938.166669099107
 30
0.0
 11
4066.820094716227
 21
1983.004269099107
 31
0.0
  0
LINE
  5
2A1
  8
VISIBLE
 10
4066.801294716229
 20
1985.985469099107
 30
0.0
 11
4020.001294716229
 21
1985.985469099109
 31
0.0
  0
LINE
  5
2A2
  8
VISIBLE
 10
4020.482494716226
 20
1935.185469099109
 30
0.0
 11
4022.481294716225
 21
1935.185469099109
 31
0.0
  0
LINE
  5
2A3
  8
VISIBLE
 10
4011.86450649805
 20
1941.266176602237
 30
0.0
 11
4013.307340900918
 21
1940.255893076963
 31
0.0
  0
LINE
  5
2A4
  8
VISIBLE
 10
4024.082002219357
 20
1929.048680880933
 30
0.0
 11
4023.071718694081
 21
1930.4915152838
 31
0.0
  0
LINE
  5
2A5
  8
VISIBLE
 10
4020.982494716226
 20
1937.166669099109
 30
0.0
 11
4065.820094716226
 21
1937.166669099107
 31
0.0
  0
LINE
  5
2A6
  8
VISIBLE
 10
4065.820094716227
 20
1984.004269099108
 30
0.0
 11
4020.982494716227
 21
1984.004269099109
 31
0.0
  0
LINE
  5
2A7
  8
VISIBLE
 10
4025.462494716226
 20
1935.185469099108
 30
0.0
 11
4066.801294716226
 21
1935.185469099107
 31
0.0
  0
LINE
  5
2A8
  8
VISIBLE
 10
4013.307340900918
 20
1937.076245121252
 30
0.0
 11
4011.86450649805
 21
1936.065961595975
 31
0.0
  0
LINE
  5
2A9
  8
VISIBLE
 10
4018.881787213094
 20
1929.048680880934
 30
0.0
 11
4019.89207073837
 21
1930.4915152838
 31
0.0
  0
LINE
  5
2AA
  8
VISIBLE
 10
4022.981294716226
 20
1934.685469099109
 30
0.0
 11
4022.981294716226
 21
1930.778303501976
 31
0.0
  0
LINE
  5
2AB
  8
VISIBLE
 10
4024.962494716226
 20
1934.685469099109
 30
0.0
 11
4024.962494716226
 21
1929.335469099109
 31
0.0
  0
LINE
  5
2AC
  8
VISIBLE
 10
4018.001294716226
 20
1939.665469099109
 30
0.0
 11
4018.001294716226
 21
1937.666669099109
 31
0.0
  0
LINE
  5
2AD
  8
VISIBLE
 10
4017.501294716226
 20
1940.165469099109
 30
0.0
 11
4013.594129119093
 21
1940.165469099108
 31
0.0
  0
LINE
  5
2AE
  8
VISIBLE
 10
4017.501294716226
 20
1942.146669099109
 30
0.0
 11
4012.151294716225
 21
1942.146669099108
 31
0.0
  0
LINE
  5
2AF
  8
VISIBLE
 10
4018.001294716226
 20
1934.685469099109
 30
0.0
 11
4018.001294716226
 21
1929.335469099109
 31
0.0
  0
LINE
  5
2B0
  8
VISIBLE
 10
4012.151294716225
 20
1935.185469099106
 30
0.0
 11
4017.501294716226
 21
1935.185469099108
 31
0.0
  0
LINE
  5
2B1
  8
VISIBLE
 10
4013.594129119093
 20
1937.166669099109
 30
0.0
 11
4017.501294716226
 21
1937.166669099109
 31
0.0
  0
LINE
  5
2B2
  8
VISIBLE
 10
4019.982494716226
 20
1934.685469099109
 30
0.0
 11
4019.982494716226
 21
1930.778303501976
 31
0.0
  0
ARC
  5
2B3
  8
VISIBLE
 10
4017.501294716226
 20
1942.646669099109
 30
0.0
 40
0.5
 50
270.0
 51
0.0
  0
ARC
  5
2B4
  8
VISIBLE
 10
4012.151294716225
 20
1941.675752624382
 30
0.0
 40
0.5
 50
181.6665982568297
 51
235.0000000000208
  0
ARC
  5
2B5
  8
VISIBLE
 10
4065.820094716227
 20
1983.004269099107
 30
0.0
 40
1.0
 50
0.0
 51
90.0
  0
ARC
  5
2B6
  8
VISIBLE
 10
4020.982494716227
 20
1983.004269099109
 30
0.0
 40
1.0
 50
90.0
 51
180.0
  0
ARC
  5
2B7
  8
VISIBLE
 10
4025.462494716226
 20
1934.685469099108
 30
0.0
 40
0.5
 50
90.0
 51
180.0
  0
ARC
  5
2B8
  8
VISIBLE
 10
4024.491578241502
 20
1929.335469099109
 30
0.0
 40
0.5
 50
215.0000000000368
 51
268.3334017428846
  0
ARC
  5
2B9
  8
VISIBLE
 10
4018.47221119095
 20
1929.335469099109
 30
0.0
 40
0.5
 50
271.6665982571154
 51
325.0000000000357
  0
ARC
  5
2BA
  8
VISIBLE
 10
4019.482494716226
 20
1930.778303501976
 30
0.0
 40
0.5
 50
324.9999999999845
 51
0.0
  0
ARC
  5
2BB
  8
VISIBLE
 10
4020.482494716226
 20
1934.685469099109
 30
0.0
 40
0.5
 50
90.0
 51
180.0
  0
ARC
  5
2BC
  8
VISIBLE
 10
4024.462494716226
 20
1929.335469099109
 30
0.0
 40
0.5
 50
271.6665982571154
 51
0.0
  0
ARC
  5
2BD
  8
VISIBLE
 10
4012.151294716225
 20
1935.685469099106
 30
0.0
 40
0.5
 50
181.6665982568037
 51
270.0
  0
ARC
  5
2BE
  8
VISIBLE
 10
4018.501294716226
 20
1929.335469099109
 30
0.0
 40
0.5
 50
180.0
 51
268.3334017428846
  0
ARC
  5
2BF
  8
VISIBLE
 10
4023.481294716225
 20
1930.778303501976
 30
0.0
 40
0.5
 50
180.0
 51
215.0000000000155
  0
ARC
  5
2C0
  8
VISIBLE
 10
4022.481294716225
 20
1934.685469099109
 30
0.0
 40
0.5
 50
0.0
 51
90.0
  0
ARC
  5
2C1
  8
VISIBLE
 10
4012.151294716225
 20
1935.65638557383
 30
0.0
 40
0.5
 50
124.9999999999792
 51
178.3334017425973
  0
ARC
  5
2C2
  8
VISIBLE
 10
4020.982494716226
 20
1938.166669099109
 30
0.0
 40
1.0
 50
180.0
 51
270.0
  0
ARC
  5
2C3
  8
VISIBLE
 10
4013.594129119093
 20
1936.666669099108
 30
0.0
 40
0.5
 50
90.0
 51
124.9999999999792
  0
ARC
  5
2C4
  8
VISIBLE
 10
4013.594129119093
 20
1940.665469099107
 30
0.0
 40
0.5
 50
234.9999999999632
 51
270.0
  0
ARC
  5
2C5
  8
VISIBLE
 10
4017.501294716226
 20
1937.666669099109
 30
0.0
 40
0.5
 50
270.0
 51
0.0
  0
ARC
  5
2C6
  8
VISIBLE
 10
4012.151294716225
 20
1941.646669099106
 30
0.0
 40
0.5
 50
90.0
 51
178.3334017426494
  0
ARC
  5
2C7
  8
VISIBLE
 10
4020.001294716227
 20
1983.985469099109
 30
0.0
 40
2.0
 50
89.99999999996092
 51
180.0
  0
ARC
  5
2C8
  8
VISIBLE
 10
4066.801294716227
 20
1983.985469099107
 30
0.0
 40
2.0
 50
359.999999999987
 51
89.99999999994789
  0
ARC
  5
2C9
  8
VISIBLE
 10
4065.820094716226
 20
1938.166669099107
 30
0.0
 40
1.0
 50
270.0
 51
0.0
  0
ARC
  5
2CA
  8
VISIBLE
 10
4017.501294716226
 20
1939.665469099109
 30
0.0
 40
0.5
 50
0.0
 51
90.0
  0
ARC
  5
2CB
  8
VISIBLE
 10
4066.801294716226
 20
1937.185469099107
 30
0.0
 40
2.0
 50
270.0
 51
359.999999999987
  0
ARC
  5
2CC
  8
VISIBLE
 10
4017.501294716226
 20
1934.685469099109
 30
0.0
 40
0.5
 50
0.0000000000260551
 51
90.0
  0
LINE
  5
2CD
  8
VISIBLE
 10
447.1245079762048
 20
772.7802735190724
 30
0.0
 11
447.1245079761968
 21
1934.830273519072
 31
0.0
  0
LINE
  5
2CE
  8
VISIBLE
 10
449.6245079762048
 20
772.7802735190724
 30
0.0
 11
449.6245079761968
 21
1934.830273519072
 31
0.0
  0
LINE
  5
2CF
  8
VISIBLE
 10
449.6245079761968
 20
1934.830273519072
 30
0.0
 11
447.1245079761968
 21
1934.830273519072
 31
0.0
  0
LINE
  5
2D0
  8
VISIBLE
 10
447.1245079762048
 20
772.7802735190724
 30
0.0
 11
449.6245079762048
 21
772.7802735190724
 31
0.0
  0
LINE
  5
2D1
  8
VISIBLE
 10
2855.596099136225
 20
1939.666669099107
 30
0.0
 11
4017.646099136225
 21
1939.666669099111
 31
0.0
  0
LINE
  5
2D2
  8
VISIBLE
 10
2855.596099136225
 20
1937.166669099107
 30
0.0
 11
4017.646099136225
 21
1937.166669099111
 31
0.0
  0
LINE
  5
2D3
  8
VISIBLE
 10
4017.646099136225
 20
1937.166669099111
 30
0.0
 11
4017.646099136225
 21
1939.666669099111
 31
0.0
  0
LINE
  5
2D4
  8
VISIBLE
 10
2855.596099136225
 20
1939.666669099107
 30
0.0
 11
2855.596099136225
 21
1937.166669099107
 31
0.0
  0
LINE
  5
2D5
  8
VISIBLE
 10
448.6245079762061
 20
769.2990735190691
 30
0.0
 11
403.7869079762061
 21
769.2990735190691
 31
0.0
  0
LINE
  5
2D6
  8
VISIBLE
 10
445.5250004730747
 20
783.7670617372446
 30
0.0
 11
446.5352839983505
 21
782.3242273343776
 31
0.0
  0
LINE
  5
2D7
  8
VISIBLE
 10
400.8057079762059
 20
769.2802735190692
 30
0.0
 11
400.8057079762061
 21
722.4802735190691
 31
0.0
  0
LINE
  5
2D8
  8
VISIBLE
 10
443.6445079762059
 20
771.2802735190692
 30
0.0
 11
402.8057079762059
 21
771.2802735190692
 31
0.0
  0
LINE
  5
2D9
  8
VISIBLE
 10
450.7252154793375
 20
783.7670617372446
 30
0.0
 11
449.7149319540617
 21
782.3242273343775
 31
0.0
  0
LINE
  5
2DA
  8
VISIBLE
 10
403.7869079762061
 20
722.4614735190692
 30
0.0
 11
448.6245079762061
 21
722.4614735190692
 31
0.0
  0
LINE
  5
2DB
  8
VISIBLE
 10
444.6445079762061
 20
772.2802735190692
 30
0.0
 11
444.6445079762061
 21
783.4802735190691
 31
0.0
  0
LINE
  5
2DC
  8
VISIBLE
 10
451.1347915014821
 20
783.9802735190691
 30
0.0
 11
451.6057079762061
 21
783.9802735190691
 31
0.0
  0
LINE
  5
2DD
  8
VISIBLE
 10
402.8057079762061
 20
720.4802735190692
 30
0.0
 11
443.6445079762061
 21
720.4802735190691
 31
0.0
  0
LINE
  5
2DE
  8
VISIBLE
 10
449.6245079762061
 20
723.461473519069
 30
0.0
 11
449.6245079762061
 21
768.2990735190691
 31
0.0
  0
LINE
  5
2DF
  8
VISIBLE
 10
402.7869079762061
 20
768.2990735190691
 30
0.0
 11
402.7869079762061
 21
723.461473519069
 31
0.0
  0
LINE
  5
2E0
  8
VISIBLE
 10
446.6257079762058
 20
771.7802735190692
 30
0.0
 11
446.6257079762058
 21
782.037439116202
 31
0.0
  0
LINE
  5
2E1
  8
VISIBLE
 10
451.6057079762058
 20
708.280273519069
 30
0.0
 11
451.6057079762061
 21
783.9802735190691
 31
0.0
  0
LINE
  5
2E2
  8
VISIBLE
 10
445.5250004730747
 20
707.9934853008937
 30
0.0
 11
446.5352839983505
 21
709.4363197037608
 31
0.0
  0
LINE
  5
2E3
  8
VISIBLE
 10
450.7252154793373
 20
707.9934853008936
 30
0.0
 11
449.7149319540615
 21
709.4363197037607
 31
0.0
  0
LINE
  5
2E4
  8
VISIBLE
 10
447.1257079762061
 20
720.4802735190692
 30
0.0
 11
449.1245079762061
 21
720.4802735190691
 31
0.0
  0
LINE
  5
2E5
  8
VISIBLE
 10
449.6245079762061
 20
771.780273519069
 30
0.0
 11
449.6245079762061
 21
782.037439116202
 31
0.0
  0
LINE
  5
2E6
  8
VISIBLE
 10
444.6445079762063
 20
719.4802735190692
 30
0.0
 11
444.6445079762061
 21
708.280273519069
 31
0.0
  0
LINE
  5
2E7
  8
VISIBLE
 10
446.6257079762061
 20
719.9802735190691
 30
0.0
 11
446.6257079762058
 21
709.7231079219363
 31
0.0
  0
LINE
  5
2E8
  8
VISIBLE
 10
449.1245079762061
 20
771.280273519069
 30
0.0
 11
447.1257079762061
 21
771.2802735190692
 31
0.0
  0
LINE
  5
2E9
  8
VISIBLE
 10
449.6245079762061
 20
719.9802735190691
 30
0.0
 11
449.6245079762061
 21
709.7231079219362
 31
0.0
  0
ARC
  5
2EA
  8
VISIBLE
 10
402.8057079762059
 20
769.2802735190692
 30
0.0
 40
2.0
 50
90.0
 51
180.0
  0
ARC
  5
2EB
  8
VISIBLE
 10
446.1257079762063
 20
782.037439116202
 30
0.0
 40
0.5
 50
0.0
 51
35.00000000002618
  0
ARC
  5
2EC
  8
VISIBLE
 10
445.1154244509303
 20
783.4802735190691
 30
0.0
 40
0.5
 50
35.00000000000484
 51
88.33340174291062
  0
ARC
  5
2ED
  8
VISIBLE
 10
403.7869079762061
 20
768.2990735190691
 30
0.0
 40
1.0
 50
90.0
 51
180.0
  0
ARC
  5
2EE
  8
VISIBLE
 10
447.1257079762061
 20
771.7802735190692
 30
0.0
 40
0.5
 50
180.0
 51
270.0
  0
ARC
  5
2EF
  8
VISIBLE
 10
451.1347915014821
 20
783.4802735190691
 30
0.0
 40
0.5
 50
90.0
 51
145.0000000000101
  0
ARC
  5
2F0
  8
VISIBLE
 10
449.1245079762061
 20
771.780273519069
 30
0.0
 40
0.5
 50
270.0
 51
0.0
  0
ARC
  5
2F1
  8
VISIBLE
 10
448.6245079762061
 20
768.2990735190691
 30
0.0
 40
1.0
 50
0.0
 51
90.0
  0
ARC
  5
2F2
  8
VISIBLE
 10
403.7869079762061
 20
723.4614735190692
 30
0.0
 40
1.0
 50
180.0
 51
270.0
  0
ARC
  5
2F3
  8
VISIBLE
 10
445.1445079762061
 20
783.4802735190691
 30
0.0
 40
0.5
 50
91.66659825708938
 51
180.0
  0
ARC
  5
2F4
  8
VISIBLE
 10
402.8057079762059
 20
722.4802735190692
 30
0.0
 40
2.0
 50
180.0
 51
270.0000000000065
  0
ARC
  5
2F5
  8
VISIBLE
 10
443.6445079762059
 20
772.2802735190692
 30
0.0
 40
1.0
 50
270.0
 51
0.0
  0
ARC
  5
2F6
  8
VISIBLE
 10
445.1445079762059
 20
708.2802735190692
 30
0.0
 40
0.5
 50
180.0
 51
268.3334017429367
  0
ARC
  5
2F7
  8
VISIBLE
 10
451.1057079762061
 20
708.280273519069
 30
0.0
 40
0.5
 50
271.6665982570893
 51
0.0
  0
ARC
  5
2F8
  8
VISIBLE
 10
446.1257079762061
 20
709.7231079219363
 30
0.0
 40
0.5
 50
324.9999999999952
 51
0.0
  0
ARC
  5
2F9
  8
VISIBLE
 10
445.11542445093
 20
708.2802735190692
 30
0.0
 40
0.5
 50
271.6665982571154
 51
325.0000000000101
  0
ARC
  5
2FA
  8
VISIBLE
 10
451.1347915014819
 20
708.280273519069
 30
0.0
 40
0.5
 50
214.9999999999899
 51
268.3334017429107
  0
ARC
  5
2FB
  8
VISIBLE
 10
448.6245079762061
 20
723.4614735190692
 30
0.0
 40
1.0
 50
270.0
 51
359.9999999999935
  0
ARC
  5
2FC
  8
VISIBLE
 10
450.1245079762059
 20
709.7231079219362
 30
0.0
 40
0.5
 50
180.0
 51
215.0000000000048
  0
ARC
  5
2FD
  8
VISIBLE
 10
443.6445079762061
 20
719.4802735190691
 30
0.0
 40
1.0
 50
0.0000000000065138
 51
90.0
  0
ARC
  5
2FE
  8
VISIBLE
 10
447.1257079762061
 20
719.9802735190691
 30
0.0
 40
0.5
 50
90.0
 51
180.0
  0
ARC
  5
2FF
  8
VISIBLE
 10
450.1245079762061
 20
782.037439116202
 30
0.0
 40
0.5
 50
144.9999999999952
 51
180.0
  0
ARC
  5
300
  8
VISIBLE
 10
449.1245079762061
 20
719.980273519069
 30
0.0
 40
0.5
 50
0.0000000000130276
 51
90.0
  0
LINE
  5
301
  8
VISIBLE
 10
2852.114899136222
 20
1938.166669099104
 30
0.0
 11
2852.114899136222
 21
1983.004269099104
 31
0.0
  0
LINE
  5
302
  8
VISIBLE
 10
2866.582887354397
 20
1941.266176602236
 30
0.0
 11
2865.14005295153
 21
1940.25589307696
 31
0.0
  0
LINE
  5
303
  8
VISIBLE
 10
2852.096099136222
 20
1985.985469099104
 30
0.0
 11
2805.296099136222
 21
1985.985469099104
 31
0.0
  0
LINE
  5
304
  8
VISIBLE
 10
2854.096099136222
 20
1943.146669099104
 30
0.0
 11
2854.096099136222
 21
1983.985469099104
 31
0.0
  0
LINE
  5
305
  8
VISIBLE
 10
2866.582887354397
 20
1936.065961595973
 30
0.0
 11
2865.14005295153
 21
1937.076245121249
 31
0.0
  0
LINE
  5
306
  8
VISIBLE
 10
2805.277299136222
 20
1983.004269099104
 30
0.0
 11
2805.277299136222
 21
1938.166669099104
 31
0.0
  0
LINE
  5
307
  8
VISIBLE
 10
2855.096099136222
 20
1942.146669099104
 30
0.0
 11
2866.296099136222
 21
1942.146669099104
 31
0.0
  0
LINE
  5
308
  8
VISIBLE
 10
2866.796099136222
 20
1935.656385573828
 30
0.0
 11
2866.796099136222
 21
1935.185469099104
 31
0.0
  0
LINE
  5
309
  8
VISIBLE
 10
2803.296099136222
 20
1983.985469099104
 30
0.0
 11
2803.296099136222
 21
1943.146669099104
 31
0.0
  0
LINE
  5
30A
  8
VISIBLE
 10
2806.277299136222
 20
1937.166669099104
 30
0.0
 11
2851.114899136222
 21
1937.166669099104
 31
0.0
  0
LINE
  5
30B
  8
VISIBLE
 10
2851.114899136222
 20
1984.004269099104
 30
0.0
 11
2806.277299136222
 21
1984.004269099104
 31
0.0
  0
LINE
  5
30C
  8
VISIBLE
 10
2854.596099136222
 20
1940.165469099104
 30
0.0
 11
2864.853264733355
 21
1940.165469099104
 31
0.0
  0
LINE
  5
30D
  8
VISIBLE
 10
2791.096099136222
 20
1935.185469099104
 30
0.0
 11
2866.796099136222
 21
1935.185469099104
 31
0.0
  0
LINE
  5
30E
  8
VISIBLE
 10
2790.809310918046
 20
1941.266176602235
 30
0.0
 11
2792.252145320914
 21
1940.255893076959
 31
0.0
  0
LINE
  5
30F
  8
VISIBLE
 10
2790.809310918046
 20
1936.065961595972
 30
0.0
 11
2792.252145320914
 21
1937.076245121248
 31
0.0
  0
LINE
  5
310
  8
VISIBLE
 10
2803.296099136222
 20
1939.665469099104
 30
0.0
 11
2803.296099136222
 21
1937.666669099104
 31
0.0
  0
LINE
  5
311
  8
VISIBLE
 10
2854.596099136222
 20
1937.166669099104
 30
0.0
 11
2864.853264733355
 21
1937.166669099104
 31
0.0
  0
LINE
  5
312
  8
VISIBLE
 10
2802.296099136222
 20
1942.146669099104
 30
0.0
 11
2791.096099136222
 21
1942.146669099104
 31
0.0
  0
LINE
  5
313
  8
VISIBLE
 10
2802.796099136222
 20
1940.165469099104
 30
0.0
 11
2792.538933539089
 21
1940.165469099104
 31
0.0
  0
LINE
  5
314
  8
VISIBLE
 10
2854.096099136222
 20
1937.666669099104
 30
0.0
 11
2854.096099136222
 21
1939.665469099104
 31
0.0
  0
LINE
  5
315
  8
VISIBLE
 10
2802.796099136222
 20
1937.166669099104
 30
0.0
 11
2792.538933539089
 21
1937.166669099104
 31
0.0
  0
ARC
  5
316
  8
VISIBLE
 10
2852.096099136222
 20
1983.985469099104
 30
0.0
 40
2.0
 50
0.0
 51
90.0
  0
ARC
  5
317
  8
VISIBLE
 10
2864.853264733355
 20
1940.665469099104
 30
0.0
 40
0.5
 50
270.0
 51
304.9999999999941
  0
ARC
  5
318
  8
VISIBLE
 10
2866.296099136222
 20
1941.67575262438
 30
0.0
 40
0.5
 50
305.0000000000368
 51
358.333401742936
  0
ARC
  5
319
  8
VISIBLE
 10
2851.114899136222
 20
1983.004269099104
 30
0.0
 40
1.0
 50
0.0
 51
90.0
  0
ARC
  5
31A
  8
VISIBLE
 10
2854.596099136222
 20
1939.665469099104
 30
0.0
 40
0.5
 50
90.0
 51
180.0
  0
ARC
  5
31B
  8
VISIBLE
 10
2866.296099136222
 20
1935.656385573828
 30
0.0
 40
0.5
 50
0.0
 51
55.00000000000584
  0
ARC
  5
31C
  8
VISIBLE
 10
2854.596099136222
 20
1937.666669099104
 30
0.0
 40
0.5
 50
180.0
 51
270.0
  0
ARC
  5
31D
  8
VISIBLE
 10
2851.114899136222
 20
1938.166669099104
 30
0.0
 40
1.0
 50
270.0
 51
0.0
  0
ARC
  5
31E
  8
VISIBLE
 10
2806.277299136222
 20
1983.004269099104
 30
0.0
 40
1.0
 50
90.0
 51
180.0
  0
ARC
  5
31F
  8
VISIBLE
 10
2866.296099136222
 20
1941.646669099104
 30
0.0
 40
0.5
 50
1.66659825711617
 51
90.0
  0
ARC
  5
320
  8
VISIBLE
 10
2805.296099136222
 20
1983.985469099104
 30
0.0
 40
2.0
 50
90.0
 51
180.0
  0
ARC
  5
321
  8
VISIBLE
 10
2855.096099136222
 20
1943.146669099104
 30
0.0
 40
1.0
 50
180.0
 51
270.0
  0
ARC
  5
322
  8
VISIBLE
 10
2791.096099136222
 20
1941.646669099104
 30
0.0
 40
0.5
 50
90.00000000005213
 51
178.3334017429114
  0
ARC
  5
323
  8
VISIBLE
 10
2791.096099136222
 20
1935.685469099104
 30
0.0
 40
0.5
 50
181.6665982571162
 51
270.0
  0
ARC
  5
324
  8
VISIBLE
 10
2792.538933539089
 20
1940.665469099104
 30
0.0
 40
0.5
 50
235.0000000000208
 51
270.0
  0
ARC
  5
325
  8
VISIBLE
 10
2791.096099136222
 20
1941.67575262438
 30
0.0
 40
0.5
 50
181.6665982570886
 51
234.9999999999632
  0
ARC
  5
326
  8
VISIBLE
 10
2791.096099136222
 20
1935.656385573828
 30
0.0
 40
0.5
 50
124.9999999999942
 51
178.3334017429359
  0
ARC
  5
327
  8
VISIBLE
 10
2806.277299136222
 20
1938.166669099104
 30
0.0
 40
1.0
 50
180.0
 51
269.999999999974
  0
ARC
  5
328
  8
VISIBLE
 10
2792.538933539089
 20
1936.666669099104
 30
0.0
 40
0.5
 50
90.0
 51
124.9999999999792
  0
ARC
  5
329
  8
VISIBLE
 10
2802.296099136222
 20
1943.146669099104
 30
0.0
 40
1.0
 50
270.0
 51
0.0
  0
ARC
  5
32A
  8
VISIBLE
 10
2802.796099136222
 20
1939.665469099104
 30
0.0
 40
0.5
 50
0.0
 51
90.0
  0
ARC
  5
32B
  8
VISIBLE
 10
2864.853264733355
 20
1936.666669099104
 30
0.0
 40
0.5
 50
55.00000000002079
 51
90.0
  0
ARC
  5
32C
  8
VISIBLE
 10
2802.796099136222
 20
1937.666669099104
 30
0.0
 40
0.5
 50
270.0
 51
0.0
  0
LINE
  5
32D
  8
VISIBLE
 10
449.6245079762148
 20
-416.3373242709282
 30
0.0
 11
449.6245079762066
 21
720.3126757290718
 31
0.0
  0
LINE
  5
32E
  8
VISIBLE
 10
449.6245079762066
 20
720.3126757290718
 30
0.0
 11
447.1245079762068
 21
720.3126757290718
 31
0.0
  0
LINE
  5
32F
  8
VISIBLE
 10
447.1245079762148
 20
-416.3373242709282
 30
0.0
 11
447.1245079762068
 21
720.3126757290718
 31
0.0
  0
LINE
  5
330
  8
VISIBLE
 10
447.1245079762148
 20
-416.3373242709282
 30
0.0
 11
449.6245079762148
 21
-416.3373242709282
 31
0.0
  0
LINE
  5
331
  8
VISIBLE
 10
1666.478501346225
 20
1937.166669099102
 30
0.0
 11
2803.128501346225
 21
1937.166669099106
 31
0.0
  0
LINE
  5
332
  8
VISIBLE
 10
2803.128501346225
 20
1937.166669099106
 30
0.0
 11
2803.128501346225
 21
1939.666669099106
 31
0.0
  0
LINE
  5
333
  8
VISIBLE
 10
1666.478501346225
 20
1939.666669099102
 30
0.0
 11
2803.128501346225
 21
1939.666669099106
 31
0.0
  0
LINE
  5
334
  8
VISIBLE
 10
1666.478501346225
 20
1939.666669099102
 30
0.0
 11
1666.478501346225
 21
1937.166669099102
 31
0.0
  0
LINE
  5
335
  8
VISIBLE
 10
2855.596099136251
 20
-1633.191317640932
 30
0.0
 11
4017.646099136251
 21
-1633.19131764092
 31
0.0
  0
LINE
  5
336
  8
VISIBLE
 10
2855.596099136251
 20
-1635.691317640932
 30
0.0
 11
4017.646099136251
 21
-1635.69131764092
 31
0.0
  0
LINE
  5
337
  8
VISIBLE
 10
4017.646099136251
 20
-1635.69131764092
 30
0.0
 11
4017.646099136251
 21
-1633.19131764092
 31
0.0
  0
LINE
  5
338
  8
VISIBLE
 10
2855.596099136251
 20
-1633.191317640932
 30
0.0
 11
2855.596099136251
 21
-1635.691317640932
 31
0.0
  0
LINE
  5
339
  8
VISIBLE
 10
449.6245079762166
 20
-468.8049220609279
 30
0.0
 11
449.6245079762252
 21
-1630.854922060928
 31
0.0
  0
LINE
  5
33A
  8
VISIBLE
 10
447.1245079762168
 20
-468.8049220609279
 30
0.0
 11
447.1245079762252
 21
-1630.854922060928
 31
0.0
  0
LINE
  5
33B
  8
VISIBLE
 10
447.1245079762252
 20
-1630.854922060928
 30
0.0
 11
449.6245079762252
 21
-1630.854922060928
 31
0.0
  0
LINE
  5
33C
  8
VISIBLE
 10
449.6245079762166
 20
-468.8049220609279
 30
0.0
 11
447.1245079762168
 21
-468.8049220609279
 31
0.0
  0
LINE
  5
33D
  8
VISIBLE
 10
1614.010903556225
 20
1937.166669099099
 30
0.0
 11
451.9609035562246
 21
1937.166669099099
 31
0.0
  0
LINE
  5
33E
  8
VISIBLE
 10
1614.010903556225
 20
1939.666669099099
 30
0.0
 11
451.9609035562246
 21
1939.666669099099
 31
0.0
  0
LINE
  5
33F
  8
VISIBLE
 10
451.9609035562246
 20
1939.666669099099
 30
0.0
 11
451.9609035562246
 21
1937.166669099099
 31
0.0
  0
LINE
  5
340
  8
VISIBLE
 10
1614.010903556225
 20
1937.166669099099
 30
0.0
 11
1614.010903556225
 21
1939.666669099099
 31
0.0
  0
LINE
  5
341
  8
VISIBLE
 10
402.7869079762158
 20
-419.4861220609258
 30
0.0
 11
402.7869079762163
 21
-464.3237220609259
 31
0.0
  0
LINE
  5
342
  8
VISIBLE
 10
402.8057079762164
 20
-467.3049220609257
 30
0.0
 11
443.6445079762163
 21
-467.3049220609257
 31
0.0
  0
LINE
  5
343
  8
VISIBLE
 10
403.7869079762163
 20
-465.3237220609258
 30
0.0
 11
448.6245079762164
 21
-465.3237220609255
 31
0.0
  0
LINE
  5
344
  8
VISIBLE
 10
443.6445079762157
 20
-416.5049220609257
 30
0.0
 11
402.8057079762157
 21
-416.5049220609258
 31
0.0
  0
LINE
  5
345
  8
VISIBLE
 10
400.8057079762157
 20
-418.5049220609259
 30
0.0
 11
400.8057079762164
 21
-465.3049220609259
 31
0.0
  0
LINE
  5
346
  8
VISIBLE
 10
446.6257079762161
 20
-478.0620876580584
 30
0.0
 11
446.6257079762163
 21
-467.8049220609256
 31
0.0
  0
LINE
  5
347
  8
VISIBLE
 10
448.6245079762159
 20
-418.4861220609256
 30
0.0
 11
403.7869079762158
 21
-418.4861220609258
 31
0.0
  0
LINE
  5
348
  8
VISIBLE
 10
449.6245079762161
 20
-464.3237220609257
 30
0.0
 11
449.6245079762157
 21
-419.4861220609256
 31
0.0
  0
LINE
  5
349
  8
VISIBLE
 10
444.6445079762163
 20
-479.5049220609257
 30
0.0
 11
444.6445079762163
 21
-468.3049220609256
 31
0.0
  0
LINE
  5
34A
  8
VISIBLE
 10
446.5352839983602
 20
-405.4609682456172
 30
0.0
 11
445.5250004730844
 21
-404.0181338427501
 31
0.0
  0
LINE
  5
34B
  8
VISIBLE
 10
451.6057079762161
 20
-480.0049220609255
 30
0.0
 11
451.1347915014921
 21
-480.0049220609257
 31
0.0
  0
LINE
  5
34C
  8
VISIBLE
 10
447.1257079762163
 20
-467.3049220609256
 30
0.0
 11
449.1245079762164
 21
-467.3049220609257
 31
0.0
  0
LINE
  5
34D
  8
VISIBLE
 10
446.5352839983607
 20
-478.3488758762339
 30
0.0
 11
445.5250004730849
 21
-479.7917102791012
 31
0.0
  0
LINE
  5
34E
  8
VISIBLE
 10
451.6057079762161
 20
-480.0049220609255
 30
0.0
 11
451.6057079762159
 21
-404.3049220609255
 31
0.0
  0
LINE
  5
34F
  8
VISIBLE
 10
449.1245079762159
 20
-416.5049220609257
 30
0.0
 11
447.1257079762158
 21
-416.5049220609255
 31
0.0
  0
LINE
  5
350
  8
VISIBLE
 10
449.7149319540715
 20
-405.4609682456173
 30
0.0
 11
450.7252154793473
 21
-404.0181338427501
 31
0.0
  0
LINE
  5
351
  8
VISIBLE
 10
449.7149319540717
 20
-478.3488758762338
 30
0.0
 11
450.7252154793475
 21
-479.791710279101
 31
0.0
  0
LINE
  5
352
  8
VISIBLE
 10
449.6245079762161
 20
-478.0620876580584
 30
0.0
 11
449.6245079762161
 21
-467.8049220609256
 31
0.0
  0
LINE
  5
353
  8
VISIBLE
 10
449.6245079762157
 20
-405.7477564637927
 30
0.0
 11
449.6245079762157
 21
-416.0049220609257
 31
0.0
  0
LINE
  5
354
  8
VISIBLE
 10
446.6257079762158
 20
-405.7477564637927
 30
0.0
 11
446.6257079762158
 21
-416.0049220609255
 31
0.0
  0
LINE
  5
355
  8
VISIBLE
 10
444.6445079762161
 20
-404.3049220609256
 30
0.0
 11
444.6445079762159
 21
-415.5049220609257
 31
0.0
  0
ARC
  5
356
  8
VISIBLE
 10
402.8057079762164
 20
-465.3049220609257
 30
0.0
 40
2.0
 50
180.0
 51
270.0
  0
ARC
  5
357
  8
VISIBLE
 10
402.8057079762157
 20
-418.5049220609258
 30
0.0
 40
2.0
 50
90.0
 51
180.0
  0
ARC
  5
358
  8
VISIBLE
 10
403.7869079762163
 20
-464.3237220609258
 30
0.0
 40
1.0
 50
180.0
 51
270.0
  0
ARC
  5
359
  8
VISIBLE
 10
403.7869079762158
 20
-419.4861220609258
 30
0.0
 40
1.0
 50
90.0
 51
180.0
  0
ARC
  5
35A
  8
VISIBLE
 10
449.1245079762164
 20
-467.8049220609257
 30
0.0
 40
0.5
 50
0.0000000000130276
 51
90.0
  0
ARC
  5
35B
  8
VISIBLE
 10
449.1245079762159
 20
-416.0049220609257
 30
0.0
 40
0.5
 50
270.0
 51
0.0
  0
ARC
  5
35C
  8
VISIBLE
 10
447.1257079762163
 20
-467.8049220609256
 30
0.0
 40
0.5
 50
90.0
 51
180.0
  0
ARC
  5
35D
  8
VISIBLE
 10
445.1445079762161
 20
-479.5049220609257
 30
0.0
 40
0.5
 50
180.0
 51
268.3334017429367
  0
ARC
  5
35E
  8
VISIBLE
 10
446.1257079762161
 20
-405.7477564637927
 30
0.0
 40
0.5
 50
0.0
 51
35.00000000001551
  0
ARC
  5
35F
  8
VISIBLE
 10
445.1445079762159
 20
-404.3049220609256
 30
0.0
 40
0.5
 50
91.66659825708938
 51
180.0
  0
ARC
  5
360
  8
VISIBLE
 10
451.1057079762161
 20
-404.3049220609255
 30
0.0
 40
0.5
 50
0.0
 51
88.33340174293667
  0
ARC
  5
361
  8
VISIBLE
 10
443.6445079762163
 20
-468.3049220609257
 30
0.0
 40
1.0
 50
0.0000000000065138
 51
90.0
  0
ARC
  5
362
  8
VISIBLE
 10
447.1257079762158
 20
-416.0049220609255
 30
0.0
 40
0.5
 50
180.0
 51
270.0
  0
ARC
  5
363
  8
VISIBLE
 10
448.6245079762164
 20
-464.3237220609255
 30
0.0
 40
1.0
 50
270.0
 51
359.9999999999935
  0
ARC
  5
364
  8
VISIBLE
 10
445.1154244509401
 20
-404.3049220609256
 30
0.0
 40
0.5
 50
35.00000000001017
 51
88.33340174291062
  0
ARC
  5
365
  8
VISIBLE
 10
451.1347915014919
 20
-404.3049220609255
 30
0.0
 40
0.5
 50
91.66659825711541
 51
145.0000000000208
  0
ARC
  5
366
  8
VISIBLE
 10
450.1245079762159
 20
-405.7477564637927
 30
0.0
 40
0.5
 50
145.0000000000155
 51
180.0
  0
ARC
  5
367
  8
VISIBLE
 10
443.6445079762157
 20
-415.5049220609257
 30
0.0
 40
1.0
 50
270.0
 51
0.0
  0
ARC
  5
368
  8
VISIBLE
 10
448.6245079762159
 20
-419.4861220609256
 30
0.0
 40
1.0
 50
0.0
 51
90.0
  0
ARC
  5
369
  8
VISIBLE
 10
446.1257079762163
 20
-478.0620876580584
 30
0.0
 40
0.5
 50
324.9999999999845
 51
0.0
  0
ARC
  5
36A
  8
VISIBLE
 10
445.1154244509403
 20
-479.5049220609257
 30
0.0
 40
0.5
 50
271.6665982571154
 51
325.0000000000208
  0
ARC
  5
36B
  8
VISIBLE
 10
451.1347915014921
 20
-479.5049220609255
 30
0.0
 40
0.5
 50
214.9999999999792
 51
270.0
  0
ARC
  5
36C
  8
VISIBLE
 10
450.1245079762161
 20
-478.0620876580584
 30
0.0
 40
0.5
 50
180.0
 51
214.9999999999845
  0
LINE
  5
36D
  8
VISIBLE
 10
1663.329703556227
 20
1984.004269099104
 30
0.0
 11
1618.492103556227
 21
1984.004269099104
 31
0.0
  0
LINE
  5
36E
  8
VISIBLE
 10
1615.510903556227
 20
1983.985469099104
 30
0.0
 11
1615.510903556227
 21
1943.146669099104
 31
0.0
  0
LINE
  5
36F
  8
VISIBLE
 10
1617.492103556227
 20
1983.004269099104
 30
0.0
 11
1617.492103556227
 21
1938.166669099104
 31
0.0
  0
LINE
  5
370
  8
VISIBLE
 10
1666.310903556227
 20
1943.146669099104
 30
0.0
 11
1666.310903556227
 21
1983.985469099104
 31
0.0
  0
LINE
  5
371
  8
VISIBLE
 10
1664.310903556227
 20
1985.985469099104
 30
0.0
 11
1617.510903556227
 21
1985.985469099104
 31
0.0
  0
LINE
  5
372
  8
VISIBLE
 10
1604.753737959094
 20
1940.165469099104
 30
0.0
 11
1615.010903556227
 21
1940.165469099104
 31
0.0
  0
LINE
  5
373
  8
VISIBLE
 10
1664.329703556227
 20
1938.166669099104
 30
0.0
 11
1664.329703556227
 21
1983.004269099104
 31
0.0
  0
LINE
  5
374
  8
VISIBLE
 10
1618.492103556227
 20
1937.166669099104
 30
0.0
 11
1663.329703556227
 21
1937.166669099104
 31
0.0
  0
LINE
  5
375
  8
VISIBLE
 10
1603.310903556227
 20
1942.146669099104
 30
0.0
 11
1614.510903556227
 21
1942.146669099104
 31
0.0
  0
LINE
  5
376
  8
VISIBLE
 10
1677.354857371536
 20
1940.25589307696
 30
0.0
 11
1678.797691774403
 21
1941.266176602236
 31
0.0
  0
LINE
  5
377
  8
VISIBLE
 10
1602.810903556227
 20
1935.185469099104
 30
0.0
 11
1602.810903556227
 21
1935.656385573828
 31
0.0
  0
LINE
  5
378
  8
VISIBLE
 10
1615.510903556227
 20
1939.665469099104
 30
0.0
 11
1615.510903556227
 21
1937.666669099104
 31
0.0
  0
LINE
  5
379
  8
VISIBLE
 10
1604.466949740919
 20
1940.255893076959
 30
0.0
 11
1603.024115338052
 21
1941.266176602235
 31
0.0
  0
LINE
  5
37A
  8
VISIBLE
 10
1602.810903556227
 20
1935.185469099104
 30
0.0
 11
1678.510903556227
 21
1935.185469099104
 31
0.0
  0
LINE
  5
37B
  8
VISIBLE
 10
1666.310903556227
 20
1937.666669099104
 30
0.0
 11
1666.310903556227
 21
1939.665469099104
 31
0.0
  0
LINE
  5
37C
  8
VISIBLE
 10
1677.354857371535
 20
1937.076245121249
 30
0.0
 11
1678.797691774403
 21
1936.065961595973
 31
0.0
  0
LINE
  5
37D
  8
VISIBLE
 10
1604.466949740919
 20
1937.076245121248
 30
0.0
 11
1603.024115338052
 21
1936.065961595972
 31
0.0
  0
LINE
  5
37E
  8
VISIBLE
 10
1604.753737959094
 20
1937.166669099104
 30
0.0
 11
1615.010903556227
 21
1937.166669099104
 31
0.0
  0
LINE
  5
37F
  8
VISIBLE
 10
1677.06806915336
 20
1937.166669099104
 30
0.0
 11
1666.810903556227
 21
1937.166669099104
 31
0.0
  0
LINE
  5
380
  8
VISIBLE
 10
1677.06806915336
 20
1940.165469099104
 30
0.0
 11
1666.810903556227
 21
1940.165469099104
 31
0.0
  0
LINE
  5
381
  8
VISIBLE
 10
1678.510903556227
 20
1942.146669099104
 30
0.0
 11
1667.310903556227
 21
1942.146669099104
 31
0.0
  0
ARC
  5
382
  8
VISIBLE
 10
1617.510903556227
 20
1983.985469099104
 30
0.0
 40
2.0
 50
90.00000000000651
 51
180.0
  0
ARC
  5
383
  8
VISIBLE
 10
1664.310903556227
 20
1983.985469099104
 30
0.0
 40
2.0
 50
0.0
 51
90.0
  0
ARC
  5
384
  8
VISIBLE
 10
1618.492103556227
 20
1983.004269099104
 30
0.0
 40
1.0
 50
90.0
 51
180.0
  0
ARC
  5
385
  8
VISIBLE
 10
1663.329703556227
 20
1983.004269099104
 30
0.0
 40
1.0
 50
0.0
 51
90.0
  0
ARC
  5
386
  8
VISIBLE
 10
1615.010903556227
 20
1937.666669099104
 30
0.0
 40
0.5
 50
270.000000000026
 51
0.0
  0
ARC
  5
387
  8
VISIBLE
 10
1666.810903556227
 20
1937.666669099104
 30
0.0
 40
0.5
 50
180.0
 51
270.0
  0
ARC
  5
388
  8
VISIBLE
 10
1615.010903556227
 20
1939.665469099104
 30
0.0
 40
0.5
 50
0.0
 51
90.0
  0
ARC
  5
389
  8
VISIBLE
 10
1603.310903556227
 20
1941.646669099104
 30
0.0
 40
0.5
 50
90.0
 51
178.3334017429099
  0
ARC
  5
38A
  8
VISIBLE
 10
1677.06806915336
 20
1940.665469099104
 30
0.0
 40
0.5
 50
270.0
 51
305.0000000000155
  0
ARC
  5
38B
  8
VISIBLE
 10
1678.510903556227
 20
1941.646669099104
 30
0.0
 40
0.5
 50
1.666598257115412
 51
90.0
  0
ARC
  5
38C
  8
VISIBLE
 10
1678.510903556227
 20
1935.685469099104
 30
0.0
 40
0.5
 50
270.0
 51
358.3334017429107
  0
ARC
  5
38D
  8
VISIBLE
 10
1614.510903556227
 20
1943.146669099104
 30
0.0
 40
1.0
 50
270.000000000013
 51
0.0
  0
ARC
  5
38E
  8
VISIBLE
 10
1666.810903556227
 20
1939.665469099104
 30
0.0
 40
0.5
 50
90.0
 51
180.0
  0
ARC
  5
38F
  8
VISIBLE
 10
1618.492103556227
 20
1938.166669099104
 30
0.0
 40
1.0
 50
180.0
 51
270.0
  0
ARC
  5
390
  8
VISIBLE
 10
1678.510903556227
 20
1941.67575262438
 30
0.0
 40
0.5
 50
305.0000000000155
 51
358.3334017429367
  0
ARC
  5
391
  8
VISIBLE
 10
1678.510903556227
 20
1935.656385573828
 30
0.0
 40
0.5
 50
1.666598257089368
 51
55.00000000002079
  0
ARC
  5
392
  8
VISIBLE
 10
1677.06806915336
 20
1936.666669099104
 30
0.0
 40
0.5
 50
55.00000000002079
 51
90.0
  0
ARC
  5
393
  8
VISIBLE
 10
1667.310903556227
 20
1943.146669099104
 30
0.0
 40
1.0
 50
180.0
 51
270.0
  0
ARC
  5
394
  8
VISIBLE
 10
1663.329703556227
 20
1938.166669099104
 30
0.0
 40
1.0
 50
270.0
 51
0.0
  0
ARC
  5
395
  8
VISIBLE
 10
1604.753737959094
 20
1940.665469099104
 30
0.0
 40
0.5
 50
234.9999999999994
 51
270.0
  0
ARC
  5
396
  8
VISIBLE
 10
1603.310903556227
 20
1941.67575262438
 30
0.0
 40
0.5
 50
181.6665982570901
 51
235.0000000000058
  0
ARC
  5
397
  8
VISIBLE
 10
1603.310903556227
 20
1935.656385573828
 30
0.0
 40
0.5
 50
124.9999999999942
 51
180.0
  0
ARC
  5
398
  8
VISIBLE
 10
1604.753737959094
 20
1936.666669099104
 30
0.0
 40
0.5
 50
90.0
 51
124.9999999999792
  0
LINE
  5
399
  8
VISIBLE
 10
4019.982494716251
 20
772.7802735190841
 30
0.0
 11
4019.982494716251
 21
1934.830273519084
 31
0.0
  0
LINE
  5
39A
  8
VISIBLE
 10
4022.482494716251
 20
772.7802735190841
 30
0.0
 11
4022.482494716251
 21
1934.830273519084
 31
0.0
  0
LINE
  5
39B
  8
VISIBLE
 10
4022.482494716251
 20
1934.830273519084
 30
0.0
 11
4019.982494716251
 21
1934.830273519084
 31
0.0
  0
LINE
  5
39C
  8
VISIBLE
 10
4019.982494716251
 20
772.7802735190841
 30
0.0
 11
4022.482494716251
 21
772.7802735190841
 31
0.0
  0
LINE
  5
39D
  8
VISIBLE
 10
4019.982494716251
 20
720.3126757290838
 30
0.0
 11
4019.982494716251
 21
-416.337324270916
 31
0.0
  0
LINE
  5
39E
  8
VISIBLE
 10
4019.982494716251
 20
-416.337324270916
 30
0.0
 11
4022.482494716251
 21
-416.337324270916
 31
0.0
  0
LINE
  5
39F
  8
VISIBLE
 10
4022.482494716251
 20
720.3126757290838
 30
0.0
 11
4022.482494716251
 21
-416.337324270916
 31
0.0
  0
LINE
  5
3A0
  8
VISIBLE
 10
4022.482494716251
 20
720.3126757290838
 30
0.0
 11
4019.982494716251
 21
720.3126757290838
 31
0.0
  0
LINE
  5
3A1
  8
VISIBLE
 10
4066.82009471625
 20
723.461473519081
 30
0.0
 11
4066.82009471625
 21
768.299073519081
 31
0.0
  0
LINE
  5
3A2
  8
VISIBLE
 10
4066.801294716251
 20
771.2802735190809
 30
0.0
 11
4025.962494716251
 21
771.280273519081
 31
0.0
  0
LINE
  5
3A3
  8
VISIBLE
 10
4065.820094716251
 20
769.2990735190809
 30
0.0
 11
4020.982494716251
 21
769.2990735190809
 31
0.0
  0
LINE
  5
3A4
  8
VISIBLE
 10
4025.962494716251
 20
720.4802735190809
 30
0.0
 11
4066.801294716251
 21
720.4802735190809
 31
0.0
  0
LINE
  5
3A5
  8
VISIBLE
 10
4068.801294716251
 20
722.4802735190809
 30
0.0
 11
4068.801294716251
 21
769.280273519081
 31
0.0
  0
LINE
  5
3A6
  8
VISIBLE
 10
4022.981294716251
 20
782.0374391162138
 30
0.0
 11
4022.981294716251
 21
771.780273519081
 31
0.0
  0
LINE
  5
3A7
  8
VISIBLE
 10
4020.982494716251
 20
722.461473519081
 30
0.0
 11
4065.820094716251
 21
722.461473519081
 31
0.0
  0
LINE
  5
3A8
  8
VISIBLE
 10
4019.982494716251
 20
768.299073519081
 30
0.0
 11
4019.982494716251
 21
723.461473519081
 31
0.0
  0
LINE
  5
3A9
  8
VISIBLE
 10
4024.962494716251
 20
783.480273519081
 30
0.0
 11
4024.962494716251
 21
772.2802735190809
 31
0.0
  0
LINE
  5
3AA
  8
VISIBLE
 10
4023.071718694106
 20
709.4363197037725
 30
0.0
 11
4024.082002219382
 21
707.9934853009055
 31
0.0
  0
LINE
  5
3AB
  8
VISIBLE
 10
4018.001294716251
 20
783.9802735190809
 30
0.0
 11
4018.472211190975
 21
783.980273519081
 31
0.0
  0
LINE
  5
3AC
  8
VISIBLE
 10
4022.481294716251
 20
771.2802735190809
 30
0.0
 11
4020.482494716251
 21
771.280273519081
 31
0.0
  0
LINE
  5
3AD
  8
VISIBLE
 10
4023.071718694106
 20
782.3242273343893
 30
0.0
 11
4024.082002219382
 21
783.7670617372565
 31
0.0
  0
LINE
  5
3AE
  8
VISIBLE
 10
4018.001294716251
 20
783.9802735190809
 30
0.0
 11
4018.00129471625
 21
708.280273519081
 31
0.0
  0
LINE
  5
3AF
  8
VISIBLE
 10
4020.482494716251
 20
720.4802735190809
 30
0.0
 11
4022.481294716251
 21
720.4802735190808
 31
0.0
  0
LINE
  5
3B0
  8
VISIBLE
 10
4019.892070738395
 20
709.4363197037726
 30
0.0
 11
4018.881787213119
 21
707.9934853009056
 31
0.0
  0
LINE
  5
3B1
  8
VISIBLE
 10
4019.892070738395
 20
782.3242273343893
 30
0.0
 11
4018.881787213119
 21
783.7670617372565
 31
0.0
  0
LINE
  5
3B2
  8
VISIBLE
 10
4019.982494716251
 20
782.0374391162139
 30
0.0
 11
4019.982494716251
 21
771.780273519081
 31
0.0
  0
LINE
  5
3B3
  8
VISIBLE
 10
4019.982494716251
 20
709.7231079219481
 30
0.0
 11
4019.982494716251
 21
719.980273519081
 31
0.0
  0
LINE
  5
3B4
  8
VISIBLE
 10
4022.981294716251
 20
709.723107921948
 30
0.0
 11
4022.981294716251
 21
719.9802735190809
 31
0.0
  0
LINE
  5
3B5
  8
VISIBLE
 10
4024.962494716251
 20
708.280273519081
 30
0.0
 11
4024.962494716251
 21
719.4802735190809
 31
0.0
  0
ARC
  5
3B6
  8
VISIBLE
 10
4066.801294716251
 20
769.2802735190809
 30
0.0
 40
2.0
 50
0.0000000000032569
 51
90.0
  0
ARC
  5
3B7
  8
VISIBLE
 10
4066.801294716251
 20
722.4802735190809
 30
0.0
 40
2.0
 50
270.0
 51
0.0
  0
ARC
  5
3B8
  8
VISIBLE
 10
4065.820094716251
 20
768.2990735190809
 30
0.0
 40
1.0
 50
0.0000000000065138
 51
90.0
  0
ARC
  5
3B9
  8
VISIBLE
 10
4065.820094716251
 20
723.461473519081
 30
0.0
 40
1.0
 50
270.0
 51
0.0
  0
ARC
  5
3BA
  8
VISIBLE
 10
4020.482494716251
 20
771.7802735190811
 30
0.0
 40
0.5
 50
180.0
 51
270.0
  0
ARC
  5
3BB
  8
VISIBLE
 10
4020.482494716251
 20
719.980273519081
 30
0.0
 40
0.5
 50
90.0
 51
180.0
  0
ARC
  5
3BC
  8
VISIBLE
 10
4022.481294716251
 20
771.780273519081
 30
0.0
 40
0.5
 50
270.0
 51
0.0
  0
ARC
  5
3BD
  8
VISIBLE
 10
4024.462494716251
 20
783.480273519081
 30
0.0
 40
0.5
 50
0.0
 51
88.33340174293667
  0
ARC
  5
3BE
  8
VISIBLE
 10
4023.481294716251
 20
709.723107921948
 30
0.0
 40
0.5
 50
180.0
 51
215.0000000000048
  0
ARC
  5
3BF
  8
VISIBLE
 10
4024.462494716251
 20
708.280273519081
 30
0.0
 40
0.5
 50
271.6665982571154
 51
0.0
  0
ARC
  5
3C0
  8
VISIBLE
 10
4018.50129471625
 20
708.280273519081
 30
0.0
 40
0.5
 50
180.0
 51
268.3334017429367
  0
ARC
  5
3C1
  8
VISIBLE
 10
4025.962494716251
 20
772.280273519081
 30
0.0
 40
1.0
 50
180.0
 51
270.0
  0
ARC
  5
3C2
  8
VISIBLE
 10
4022.481294716251
 20
719.9802735190809
 30
0.0
 40
0.5
 50
0.0
 51
90.0
  0
ARC
  5
3C3
  8
VISIBLE
 10
4020.982494716251
 20
768.2990735190809
 30
0.0
 40
1.0
 50
90.0
 51
180.0
  0
ARC
  5
3C4
  8
VISIBLE
 10
4024.491578241526
 20
708.280273519081
 30
0.0
 40
0.5
 50
215.0000000000155
 51
268.3334017429367
  0
ARC
  5
3C5
  8
VISIBLE
 10
4018.472211190975
 20
708.280273519081
 30
0.0
 40
0.5
 50
271.6665982570633
 51
324.9999999999952
  0
ARC
  5
3C6
  8
VISIBLE
 10
4019.482494716251
 20
709.7231079219481
 30
0.0
 40
0.5
 50
324.9999999999952
 51
0.0
  0
ARC
  5
3C7
  8
VISIBLE
 10
4025.962494716251
 20
719.4802735190809
 30
0.0
 40
1.0
 50
90.0
 51
180.0
  0
ARC
  5
3C8
  8
VISIBLE
 10
4020.982494716251
 20
723.461473519081
 30
0.0
 40
1.0
 50
180.0
 51
270.0
  0
ARC
  5
3C9
  8
VISIBLE
 10
4023.481294716251
 20
782.0374391162138
 30
0.0
 40
0.5
 50
144.9999999999952
 51
180.0
  0
ARC
  5
3CA
  8
VISIBLE
 10
4024.491578241526
 20
783.480273519081
 30
0.0
 40
0.5
 50
91.66659825706333
 51
144.9999999999952
  0
ARC
  5
3CB
  8
VISIBLE
 10
4018.472211190975
 20
783.480273519081
 30
0.0
 40
0.5
 50
35.00000000000484
 51
90.0
  0
ARC
  5
3CC
  8
VISIBLE
 10
4019.482494716251
 20
782.0374391162139
 30
0.0
 40
0.5
 50
0.0
 51
34.99999999996427
  0
LINE
  5
3CD
  8
VISIBLE
 10
4022.482494716251
 20
-468.8049220609161
 30
0.0
 11
4022.482494716251
 21
-1630.854922060916
 31
0.0
  0
LINE
  5
3CE
  8
VISIBLE
 10
4019.982494716251
 20
-468.8049220609161
 30
0.0
 11
4019.982494716251
 21
-1630.854922060916
 31
0.0
  0
LINE
  5
3CF
  8
VISIBLE
 10
4019.982494716251
 20
-1630.854922060916
 30
0.0
 11
4022.482494716251
 21
-1630.854922060916
 31
0.0
  0
LINE
  5
3D0
  8
VISIBLE
 10
4022.482494716251
 20
-468.8049220609161
 30
0.0
 11
4019.982494716251
 21
-468.8049220609161
 31
0.0
  0
LINE
  5
3D1
  8
VISIBLE
 10
4020.982494716251
 20
-465.3237220609129
 30
0.0
 11
4065.820094716251
 21
-465.3237220609129
 31
0.0
  0
LINE
  5
3D2
  8
VISIBLE
 10
4024.082002219382
 20
-479.7917102790884
 30
0.0
 11
4023.071718694106
 21
-478.3488758762213
 31
0.0
  0
LINE
  5
3D3
  8
VISIBLE
 10
4068.801294716251
 20
-465.3049220609129
 30
0.0
 11
4068.801294716251
 21
-418.5049220609128
 31
0.0
  0
LINE
  5
3D4
  8
VISIBLE
 10
4025.962494716251
 20
-467.3049220609129
 30
0.0
 11
4066.801294716251
 21
-467.3049220609129
 31
0.0
  0
LINE
  5
3D5
  8
VISIBLE
 10
4018.881787213119
 20
-479.7917102790884
 30
0.0
 11
4019.892070738395
 21
-478.3488758762212
 31
0.0
  0
LINE
  5
3D6
  8
VISIBLE
 10
4065.820094716251
 20
-418.486122060913
 30
0.0
 11
4020.982494716251
 21
-418.486122060913
 31
0.0
  0
LINE
  5
3D7
  8
VISIBLE
 10
4024.962494716251
 20
-468.3049220609129
 30
0.0
 11
4024.962494716251
 21
-479.5049220609129
 31
0.0
  0
LINE
  5
3D8
  8
VISIBLE
 10
4018.472211190975
 20
-480.0049220609128
 30
0.0
 11
4018.00129471625
 21
-480.0049220609128
 31
0.0
  0
LINE
  5
3D9
  8
VISIBLE
 10
4066.801294716251
 20
-416.5049220609129
 30
0.0
 11
4025.962494716251
 21
-416.5049220609128
 31
0.0
  0
LINE
  5
3DA
  8
VISIBLE
 10
4019.982494716251
 20
-419.4861220609129
 30
0.0
 11
4019.982494716251
 21
-464.3237220609129
 31
0.0
  0
LINE
  5
3DB
  8
VISIBLE
 10
4066.82009471625
 20
-464.3237220609129
 30
0.0
 11
4066.82009471625
 21
-419.4861220609129
 31
0.0
  0
LINE
  5
3DC
  8
VISIBLE
 10
4022.981294716251
 20
-467.804922060913
 30
0.0
 11
4022.981294716251
 21
-478.0620876580458
 31
0.0
  0
LINE
  5
3DD
  8
VISIBLE
 10
4018.001294716251
 20
-404.3049220609129
 30
0.0
 11
4018.00129471625
 21
-480.0049220609128
 31
0.0
  0
LINE
  5
3DE
  8
VISIBLE
 10
4024.082002219382
 20
-404.0181338427375
 30
0.0
 11
4023.071718694106
 21
-405.4609682456045
 31
0.0
  0
LINE
  5
3DF
  8
VISIBLE
 10
4018.881787213119
 20
-404.0181338427374
 30
0.0
 11
4019.892070738395
 21
-405.4609682456044
 31
0.0
  0
LINE
  5
3E0
  8
VISIBLE
 10
4022.481294716251
 20
-416.5049220609129
 30
0.0
 11
4020.482494716251
 21
-416.5049220609128
 31
0.0
  0
LINE
  5
3E1
  8
VISIBLE
 10
4019.982494716251
 20
-467.8049220609129
 30
0.0
 11
4019.982494716251
 21
-478.0620876580457
 31
0.0
  0
LINE
  5
3E2
  8
VISIBLE
 10
4024.962494716251
 20
-415.5049220609129
 30
0.0
 11
4024.962494716251
 21
-404.3049220609129
 31
0.0
  0
LINE
  5
3E3
  8
VISIBLE
 10
4022.981294716251
 20
-416.0049220609129
 30
0.0
 11
4022.981294716251
 21
-405.74775646378
 31
0.0
  0
LINE
  5
3E4
  8
VISIBLE
 10
4020.482494716251
 20
-467.3049220609128
 30
0.0
 11
4022.481294716251
 21
-467.3049220609129
 31
0.0
  0
LINE
  5
3E5
  8
VISIBLE
 10
4019.982494716251
 20
-416.0049220609129
 30
0.0
 11
4019.982494716251
 21
-405.7477564637799
 31
0.0
  0
ARC
  5
3E6
  8
VISIBLE
 10
4066.801294716251
 20
-465.3049220609129
 30
0.0
 40
2.0
 50
270.0
 51
0.0
  0
ARC
  5
3E7
  8
VISIBLE
 10
4023.481294716251
 20
-478.0620876580458
 30
0.0
 40
0.5
 50
180.0
 51
215.0000000000101
  0
ARC
  5
3E8
  8
VISIBLE
 10
4024.491578241526
 20
-479.5049220609129
 30
0.0
 40
0.5
 50
215.0000000000155
 51
268.3334017429367
  0
ARC
  5
3E9
  8
VISIBLE
 10
4065.820094716251
 20
-464.3237220609129
 30
0.0
 40
1.0
 50
270.0
 51
0.0
  0
ARC
  5
3EA
  8
VISIBLE
 10
4022.481294716251
 20
-467.804922060913
 30
0.0
 40
0.5
 50
0.0
 51
90.0
  0
ARC
  5
3EB
  8
VISIBLE
 10
4018.472211190975
 20
-479.5049220609129
 30
0.0
 40
0.5
 50
270.0
 51
324.9999999999845
  0
ARC
  5
3EC
  8
VISIBLE
 10
4020.482494716251
 20
-467.8049220609129
 30
0.0
 40
0.5
 50
90.0
 51
180.0
  0
ARC
  5
3ED
  8
VISIBLE
 10
4020.982494716251
 20
-464.3237220609129
 30
0.0
 40
1.0
 50
179.9999999999967
 51
270.0
  0
ARC
  5
3EE
  8
VISIBLE
 10
4065.820094716251
 20
-419.486122060913
 30
0.0
 40
1.0
 50
0.0000000000065138
 51
90.0
  0
ARC
  5
3EF
  8
VISIBLE
 10
4024.462494716251
 20
-479.5049220609129
 30
0.0
 40
0.5
 50
271.6665982571154
 51
0.0
  0
ARC
  5
3F0
  8
VISIBLE
 10
4066.801294716251
 20
-418.5049220609129
 30
0.0
 40
2.0
 50
0.0000000000032569
 51
90.0
  0
ARC
  5
3F1
  8
VISIBLE
 10
4025.962494716251
 20
-468.3049220609129
 30
0.0
 40
1.0
 50
90.0
 51
180.0
  0
ARC
  5
3F2
  8
VISIBLE
 10
4024.462494716251
 20
-404.304922060913
 30
0.0
 40
0.5
 50
0.0000000000130276
 51
88.33340174293667
  0
ARC
  5
3F3
  8
VISIBLE
 10
4018.501294716251
 20
-404.3049220609129
 30
0.0
 40
0.5
 50
91.66659825711541
 51
180.0
  0
ARC
  5
3F4
  8
VISIBLE
 10
4023.481294716251
 20
-405.74775646378
 30
0.0
 40
0.5
 50
145.0000000000058
 51
180.0
  0
ARC
  5
3F5
  8
VISIBLE
 10
4024.491578241526
 20
-404.304922060913
 30
0.0
 40
0.5
 50
91.66659825706333
 51
144.9999999999845
  0
ARC
  5
3F6
  8
VISIBLE
 10
4018.472211190975
 20
-404.3049220609129
 30
0.0
 40
0.5
 50
35.00000000001551
 51
88.33340174293667
  0
ARC
  5
3F7
  8
VISIBLE
 10
4020.982494716251
 20
-419.486122060913
 30
0.0
 40
1.0
 50
90.0
 51
180.0
  0
ARC
  5
3F8
  8
VISIBLE
 10
4019.482494716251
 20
-405.7477564637799
 30
0.0
 40
0.5
 50
0.0
 51
34.99999999996427
  0
ARC
  5
3F9
  8
VISIBLE
 10
4025.962494716251
 20
-415.5049220609128
 30
0.0
 40
1.0
 50
180.0
 51
270.0
  0
ARC
  5
3FA
  8
VISIBLE
 10
4022.481294716251
 20
-416.0049220609129
 30
0.0
 40
0.5
 50
270.0
 51
0.0
  0
ARC
  5
3FB
  8
VISIBLE
 10
4019.482494716251
 20
-478.0620876580457
 30
0.0
 40
0.5
 50
325.0000000000059
 51
0.0
  0
ARC
  5
3FC
  8
VISIBLE
 10
4020.482494716251
 20
-416.0049220609128
 30
0.0
 40
0.5
 50
180.0
 51
270.0
  0
LINE
  5
3FD
  8
VISIBLE
 10
4065.820094716251
 20
-1633.191317640917
 30
0.0
 11
4020.982494716251
 21
-1633.191317640916
 31
0.0
  0
LINE
  5
3FE
  8
VISIBLE
 10
4066.801294716251
 20
-1631.210117640917
 30
0.0
 11
4025.462494716251
 21
-1631.210117640916
 31
0.0
  0
LINE
  5
3FF
  8
VISIBLE
 10
4020.001294716249
 20
-1682.010117640916
 30
0.0
 11
4066.801294716249
 21
-1682.010117640917
 31
0.0
  0
LINE
  5
400
  8
VISIBLE
 10
4020.98249471625
 20
-1680.028917640916
 30
0.0
 11
4065.82009471625
 21
-1680.028917640917
 31
0.0
  0
LINE
  5
401
  8
VISIBLE
 10
4068.801294716249
 20
-1680.010117640919
 30
0.0
 11
4068.801294716251
 21
-1633.210117640919
 31
0.0
  0
LINE
  5
402
  8
VISIBLE
 10
4018.00129471625
 20
-1633.691317640916
 30
0.0
 11
4018.001294716251
 21
-1635.690117640916
 31
0.0
  0
LINE
  5
403
  8
VISIBLE
 10
4024.082002219379
 20
-1625.07332942274
 30
0.0
 11
4023.071718694105
 21
-1626.516163825607
 31
0.0
  0
LINE
  5
404
  8
VISIBLE
 10
4011.864506498075
 20
-1637.290825144048
 30
0.0
 11
4013.307340900942
 21
-1636.280541618771
 31
0.0
  0
LINE
  5
405
  8
VISIBLE
 10
4019.982494716251
 20
-1634.191317640916
 30
0.0
 11
4019.982494716249
 21
-1679.028917640916
 31
0.0
  0
LINE
  5
406
  8
VISIBLE
 10
4066.82009471625
 20
-1679.028917640917
 30
0.0
 11
4066.820094716251
 21
-1634.191317640917
 31
0.0
  0
LINE
  5
407
  8
VISIBLE
 10
4018.00129471625
 20
-1638.671317640916
 30
0.0
 11
4018.00129471625
 21
-1680.010117640916
 31
0.0
  0
LINE
  5
408
  8
VISIBLE
 10
4019.892070738394
 20
-1626.516163825608
 30
0.0
 11
4018.881787213117
 21
-1625.07332942274
 31
0.0
  0
LINE
  5
409
  8
VISIBLE
 10
4011.864506498076
 20
-1632.090610137785
 30
0.0
 11
4013.307340900943
 21
-1633.100893663061
 31
0.0
  0
LINE
  5
40A
  8
VISIBLE
 10
4017.501294716251
 20
-1636.190117640916
 30
0.0
 11
4013.594129119118
 21
-1636.190117640916
 31
0.0
  0
LINE
  5
40B
  8
VISIBLE
 10
4017.50129471625
 20
-1638.171317640916
 30
0.0
 11
4012.151294716251
 21
-1638.171317640916
 31
0.0
  0
LINE
  5
40C
  8
VISIBLE
 10
4022.481294716251
 20
-1631.210117640916
 30
0.0
 11
4020.482494716251
 21
-1631.210117640916
 31
0.0
  0
LINE
  5
40D
  8
VISIBLE
 10
4022.981294716251
 20
-1630.710117640916
 30
0.0
 11
4022.98129471625
 21
-1626.802952043783
 31
0.0
  0
LINE
  5
40E
  8
VISIBLE
 10
4024.962494716252
 20
-1630.710117640916
 30
0.0
 11
4024.96249471625
 21
-1625.360117640916
 31
0.0
  0
LINE
  5
40F
  8
VISIBLE
 10
4017.501294716251
 20
-1631.210117640916
 30
0.0
 11
4012.151294716251
 21
-1631.210117640916
 31
0.0
  0
LINE
  5
410
  8
VISIBLE
 10
4018.001294716248
 20
-1625.360117640916
 30
0.0
 11
4018.00129471625
 21
-1630.710117640916
 31
0.0
  0
LINE
  5
411
  8
VISIBLE
 10
4019.982494716251
 20
-1626.802952043783
 30
0.0
 11
4019.982494716251
 21
-1630.710117640916
 31
0.0
  0
LINE
  5
412
  8
VISIBLE
 10
4017.501294716251
 20
-1633.191317640916
 30
0.0
 11
4013.594129119118
 21
-1633.191317640916
 31
0.0
  0
ARC
  5
413
  8
VISIBLE
 10
4025.462494716251
 20
-1630.710117640916
 30
0.0
 40
0.5
 50
180.0
 51
270.0
  0
ARC
  5
414
  8
VISIBLE
 10
4024.491578241524
 20
-1625.360117640916
 30
0.0
 40
0.5
 50
91.66659825680289
 51
145.0000000000058
  0
ARC
  5
415
  8
VISIBLE
 10
4065.82009471625
 20
-1679.028917640917
 30
0.0
 40
1.0
 50
270.0
 51
0.0
  0
ARC
  5
416
  8
VISIBLE
 10
4065.820094716251
 20
-1634.191317640917
 30
0.0
 40
1.0
 50
0.0
 51
90.0
  0
ARC
  5
417
  8
VISIBLE
 10
4017.50129471625
 20
-1638.671317640916
 30
0.0
 40
0.5
 50
0.0
 51
90.0
  0
ARC
  5
418
  8
VISIBLE
 10
4012.151294716251
 20
-1637.700401166192
 30
0.0
 40
0.5
 50
125.0000000000796
 51
178.3334017429114
  0
ARC
  5
419
  8
VISIBLE
 10
4012.151294716251
 20
-1631.68103411564
 30
0.0
 40
0.5
 50
181.6665982570886
 51
235.0000000000208
  0
ARC
  5
41A
  8
VISIBLE
 10
4013.594129119118
 20
-1632.691317640916
 30
0.0
 40
0.5
 50
235.0000000000208
 51
270.0
  0
ARC
  5
41B
  8
VISIBLE
 10
4017.501294716251
 20
-1633.691317640916
 30
0.0
 40
0.5
 50
0.0
 51
90.0
  0
ARC
  5
41C
  8
VISIBLE
 10
4012.151294716251
 20
-1637.671317640916
 30
0.0
 40
0.5
 50
181.6665982571147
 51
270.0
  0
ARC
  5
41D
  8
VISIBLE
 10
4018.501294716248
 20
-1625.360117640916
 30
0.0
 40
0.5
 50
91.66659825680289
 51
180.0
  0
ARC
  5
41E
  8
VISIBLE
 10
4012.151294716251
 20
-1631.710117640916
 30
0.0
 40
0.5
 50
90.0
 51
178.3334017429114
  0
ARC
  5
41F
  8
VISIBLE
 10
4013.594129119117
 20
-1636.690117640916
 30
0.0
 40
0.5
 50
89.99999999994789
 51
124.9999999999792
  0
ARC
  5
420
  8
VISIBLE
 10
4017.501294716251
 20
-1635.690117640916
 30
0.0
 40
0.5
 50
270.0
 51
0.0
  0
ARC
  5
421
  8
VISIBLE
 10
4018.472211190972
 20
-1625.360117640916
 30
0.0
 40
0.5
 50
34.99999999999417
 51
88.33340174262415
  0
ARC
  5
422
  8
VISIBLE
 10
4020.982494716251
 20
-1634.191317640916
 30
0.0
 40
1.0
 50
89.99999999994789
 51
180.0
  0
ARC
  5
423
  8
VISIBLE
 10
4019.48249471625
 20
-1626.802952043783
 30
0.0
 40
0.5
 50
0.0
 51
34.99999999999417
  0
ARC
  5
424
  8
VISIBLE
 10
4023.48129471625
 20
-1626.802952043783
 30
0.0
 40
0.5
 50
144.9999999999845
 51
180.0
  0
ARC
  5
425
  8
VISIBLE
 10
4020.482494716251
 20
-1630.710117640916
 30
0.0
 40
0.5
 50
180.0
 51
270.0
  0
ARC
  5
426
  8
VISIBLE
 10
4024.462494716248
 20
-1625.360117640916
 30
0.0
 40
0.5
 50
0.0
 51
88.33340174262415
  0
ARC
  5
427
  8
VISIBLE
 10
4066.801294716251
 20
-1633.210117640917
 30
0.0
 40
2.0
 50
359.9999999999479
 51
90.0
  0
ARC
  5
428
  8
VISIBLE
 10
4066.801294716249
 20
-1680.010117640917
 30
0.0
 40
2.0
 50
269.999999999987
 51
359.9999999999479
  0
ARC
  5
429
  8
VISIBLE
 10
4020.98249471625
 20
-1679.028917640916
 30
0.0
 40
1.0
 50
180.0
 51
270.0
  0
ARC
  5
42A
  8
VISIBLE
 10
4022.481294716251
 20
-1630.710117640916
 30
0.0
 40
0.5
 50
270.0
 51
0.0
  0
ARC
  5
42B
  8
VISIBLE
 10
4020.00129471625
 20
-1680.010117640916
 30
0.0
 40
2.0
 50
180.0
 51
269.999999999974
  0
ARC
  5
42C
  8
VISIBLE
 10
4017.501294716251
 20
-1630.710117640916
 30
0.0
 40
0.5
 50
270.0000000000521
 51
0.0
  0
ENDSEC
  0
EOF
